{
.appVersion = "113";
date = "2020-11-21 14:40:08 +0000";
designer = "Cruzine Design";
familyName = "Darling Brush";
featurePrefixes = (
{
automatic = 1;
code = "languagesystem DFLT dflt;\012languagesystem latn dflt;\012languagesystem latn ROM;\012languagesystem latn MOL;\012";
name = Languagesystems;
}
);
features = (
{
automatic = 1;
code = "feature locl;\012";
name = aalt;
},
{
automatic = 1;
code = "script latn;\012language ROM;\012sub Scedilla by Scommaaccent;\012sub scedilla by scommaaccent;\012sub Tcedilla by Tcommaaccent;\012sub tcedilla by tcommaaccent;\012language MOL;\012sub Scedilla by Scommaaccent;\012sub scedilla by scommaaccent;\012sub Tcedilla by Tcommaaccent;\012sub tcedilla by tcommaaccent;\012";
name = locl;
}
);
fontMaster = (
{
ascender = 800;
capHeight = 700;
descender = -200;
id = "35B18FD4-EE95-4CAF-9F6E-40BA2ACEDFAA";
weightValue = 0;
widthValue = 0;
xHeight = 500;
}
);
glyphs = (
{
glyphname = A;
lastChange = "2020-11-21 14:55:14 +0000";
layers = (
{
layerId = "35B18FD4-EE95-4CAF-9F6E-40BA2ACEDFAA";
paths = (
{
closed = 1;
nodes = (
"369 170 OFFCURVE",
"369 163 OFFCURVE",
"369 155 CURVE",
"368 150 OFFCURVE",
"365 144 OFFCURVE",
"366 138 CURVE",
"368 103 OFFCURVE",
"358 72 OFFCURVE",
"343 41 CURVE",
"339 31 OFFCURVE",
"336 30 OFFCURVE",
"324 32 CURVE",
"319 33 OFFCURVE",
"317 31 OFFCURVE",
"316 26 CURVE",
"316 24 OFFCURVE",
"314 22 OFFCURVE",
"312 20 CURVE",
"306 26 OFFCURVE",
"297 30 OFFCURVE",
"293 37 CURVE",
"289 43 OFFCURVE",
"290 52 OFFCURVE",
"289 60 CURVE",
"286 72 OFFCURVE",
"288 86 OFFCURVE",
"277 96 CURVE",
"275 98 OFFCURVE",
"275 104 OFFCURVE",
"275 108 CURVE",
"275 126 OFFCURVE",
"277 145 OFFCURVE",
"275 163 CURVE",
"273 177 OFFCURVE",
"271 190 OFFCURVE",
"272 203 CURVE",
"272 205 OFFCURVE",
"270 208 OFFCURVE",
"269 208 CURVE",
"267 208 OFFCURVE",
"264 207 OFFCURVE",
"262 206 CURVE",
"252 198 OFFCURVE",
"242 190 OFFCURVE",
"228 191 CURVE",
"219 192 OFFCURVE",
"210 187 OFFCURVE",
"201 188 CURVE",
"191 189 OFFCURVE",
"182 185 OFFCURVE",
"175 180 CURVE",
"167 175 OFFCURVE",
"161 169 OFFCURVE",
"150 173 CURVE",
"139 177 OFFCURVE",
"129 171 OFFCURVE",
"120 165 CURVE",
"114 162 OFFCURVE",
"109 159 OFFCURVE",
"103 157 CURVE",
"94 154 OFFCURVE",
"90 149 OFFCURVE",
"89 140 CURVE",
"88 134 OFFCURVE",
"86 128 OFFCURVE",
"85 122 CURVE",
"83 116 OFFCURVE",
"81 109 OFFCURVE",
"79 102 CURVE",
"78 96 OFFCURVE",
"77 89 OFFCURVE",
"75 83 CURVE",
"71 70 OFFCURVE",
"66 58 OFFCURVE",
"62 46 CURVE",
"59 40 OFFCURVE",
"58 33 OFFCURVE",
"55 26 CURVE",
"52 21 OFFCURVE",
"48 17 OFFCURVE",
"46 12 CURVE",
"43 7 OFFCURVE",
"40 5 OFFCURVE",
"34 4 CURVE",
"29 4 OFFCURVE",
"24 3 OFFCURVE",
"20 2 CURVE",
"11 -2 OFFCURVE",
"2 3 OFFCURVE",
"0 12 CURVE",
"-1 15 OFFCURVE",
"-3 18 OFFCURVE",
"-5 21 CURVE",
"-6 24 OFFCURVE",
"-8 28 OFFCURVE",
"-10 31 CURVE",
"-12 34 OFFCURVE",
"-14 37 OFFCURVE",
"-15 40 CURVE",
"-17 43 OFFCURVE",
"-19 45 OFFCURVE",
"-21 48 CURVE",
"-23 55 OFFCURVE",
"-25 63 OFFCURVE",
"-28 71 CURVE",
"-28 70 OFFCURVE",
"-28 71 OFFCURVE",
"-28 71 CURVE",
"-27 73 OFFCURVE",
"-26 74 OFFCURVE",
"-24 74 CURVE",
"-11 82 OFFCURVE",
"-9 96 OFFCURVE",
"-5 108 CURVE",
"0 124 OFFCURVE",
"4 140 OFFCURVE",
"8 156 CURVE",
"14 176 OFFCURVE",
"19 197 OFFCURVE",
"24 217 CURVE",
"27 227 OFFCURVE",
"30 236 OFFCURVE",
"32 246 CURVE",
"36 258 OFFCURVE",
"38 269 OFFCURVE",
"41 281 CURVE",
"43 287 OFFCURVE",
"45 293 OFFCURVE",
"47 299 CURVE",
"48 302 OFFCURVE",
"50 306 OFFCURVE",
"52 309 CURVE",
"54 318 OFFCURVE",
"56 328 OFFCURVE",
"59 337 CURVE",
"60 344 OFFCURVE",
"61 352 OFFCURVE",
"64 359 CURVE",
"69 368 OFFCURVE",
"70 377 OFFCURVE",
"67 386 CURVE",
"83 398 OFFCURVE",
"84 417 OFFCURVE",
"93 433 CURVE",
"94 435 OFFCURVE",
"95 438 OFFCURVE",
"95 441 CURVE",
"96 449 OFFCURVE",
"101 457 OFFCURVE",
"94 464 CURVE",
"104 468 OFFCURVE",
"122 492 OFFCURVE",
"120 503 CURVE",
"118 513 OFFCURVE",
"124 515 OFFCURVE",
"127 521 CURVE",
"136 532 OFFCURVE",
"143 545 OFFCURVE",
"152 557 CURVE",
"156 563 OFFCURVE",
"157 568 OFFCURVE",
"152 575 CURVE",
"154 577 OFFCURVE",
"157 578 OFFCURVE",
"158 580 CURVE",
"162 590 OFFCURVE",
"169 597 OFFCURVE",
"180 601 CURVE",
"183 601 OFFCURVE",
"186 604 OFFCURVE",
"189 607 CURVE",
"209 630 OFFCURVE",
"233 646 OFFCURVE",
"260 659 CURVE",
"267 663 OFFCURVE",
"274 666 OFFCURVE",
"282 668 CURVE",
"289 670 OFFCURVE",
"297 671 OFFCURVE",
"303 669 CURVE",
"314 666 OFFCURVE",
"324 660 OFFCURVE",
"334 651 CURVE",
"346 638 OFFCURVE",
"353 622 OFFCURVE",
"359 607 CURVE",
"365 594 OFFCURVE",
"368 578 OFFCURVE",
"364 563 CURVE",
"364 560 OFFCURVE",
"364 557 OFFCURVE",
"364 554 CURVE",
"363 543 OFFCURVE",
"363 533 OFFCURVE",
"362 522 CURVE",
"362 518 OFFCURVE",
"363 514 OFFCURVE",
"363 511 CURVE",
"363 504 OFFCURVE",
"363 497 OFFCURVE",
"363 490 CURVE",
"363 486 OFFCURVE",
"363 481 OFFCURVE",
"363 476 CURVE",
"363 470 OFFCURVE",
"365 464 OFFCURVE",
"364 458 CURVE",
"364 449 OFFCURVE",
"362 440 OFFCURVE",
"362 431 CURVE",
"361 428 OFFCURVE",
"362 425 OFFCURVE",
"362 422 CURVE",
"362 412 OFFCURVE",
"359 402 OFFCURVE",
"364 392 CURVE",
"365 391 OFFCURVE",
"364 389 OFFCURVE",
"364 387 CURVE",
"363 383 OFFCURVE",
"361 378 OFFCURVE",
"361 373 CURVE",
"362 356 OFFCURVE",
"358 339 OFFCURVE",
"364 322 CURVE",
"367 316 OFFCURVE",
"362 308 OFFCURVE",
"362 300 CURVE",
"362 292 OFFCURVE",
"364 283 OFFCURVE",
"365 275 CURVE",
"365 249 OFFCURVE",
"365 222 OFFCURVE",
"366 196 CURVE",
"366 190 OFFCURVE",
"368 184 OFFCURVE",
"369 178 CURVE"
);
},
{
closed = 1;
nodes = (
"133 263 OFFCURVE",
"141 266 OFFCURVE",
"150 267 CURVE",
"163 269 OFFCURVE",
"176 269 OFFCURVE",
"189 273 CURVE",
"213 279 OFFCURVE",
"237 282 OFFCURVE",
"261 281 CURVE",
"262 280 OFFCURVE",
"263 280 OFFCURVE",
"264 281 CURVE",
"265 282 OFFCURVE",
"267 283 OFFCURVE",
"268 285 CURVE",
"272 296 OFFCURVE",
"273 307 OFFCURVE",
"269 318 CURVE",
"267 322 OFFCURVE",
"268 326 OFFCURVE",
"268 330 CURVE",
"269 343 OFFCURVE",
"271 355 OFFCURVE",
"272 367 CURVE",
"272 383 OFFCURVE",
"272 398 OFFCURVE",
"272 414 CURVE",
"272 437 OFFCURVE",
"272 460 OFFCURVE",
"272 483 CURVE",
"272 485 OFFCURVE",
"272 488 OFFCURVE",
"273 491 CURVE",
"274 496 OFFCURVE",
"275 500 OFFCURVE",
"275 505 CURVE",
"275 516 OFFCURVE",
"273 527 OFFCURVE",
"273 539 CURVE",
"269 541 OFFCURVE",
"265 540 OFFCURVE",
"262 534 CURVE",
"260 531 OFFCURVE",
"258 529 OFFCURVE",
"256 528 CURVE",
"239 518 OFFCURVE",
"226 503 OFFCURVE",
"218 487 CURVE",
"205 462 OFFCURVE",
"188 441 OFFCURVE",
"179 415 CURVE",
"175 402 OFFCURVE",
"167 390 OFFCURVE",
"162 377 CURVE",
"157 365 OFFCURVE",
"155 351 OFFCURVE",
"150 339 CURVE",
"142 319 OFFCURVE",
"132 299 OFFCURVE",
"127 277 CURVE",
"126 272 OFFCURVE",
"124 267 OFFCURVE",
"122 260 CURVE"
);
},
{
closed = 1;
nodes = (
"300 12 OFFCURVE",
"299 9 OFFCURVE",
"297 7 CURVE",
"294 9 OFFCURVE",
"292 12 OFFCURVE",
"289 14 CURVE",
"289 15 OFFCURVE",
"290 16 OFFCURVE",
"290 16 CURVE",
"293 16 OFFCURVE",
"297 16 OFFCURVE",
"302 15 CURVE"
);
}
);
width = 400;
}
);
unicode = 0041;
},
{
glyphname = B;
lastChange = "2020-11-21 14:55:19 +0000";
layers = (
{
layerId = "35B18FD4-EE95-4CAF-9F6E-40BA2ACEDFAA";
paths = (
{
closed = 1;
nodes = (
"117.251 592.279 OFFCURVE",
"121.841 592.279 OFFCURVE",
"126.432 592.279 CURVE",
"128.829 591.102 OFFCURVE",
"131.246 588.869 OFFCURVE",
"133.619 588.914 CURVE",
"155.428 589.327 OFFCURVE",
"175.158 581.134 OFFCURVE",
"195.262 574.498 CURVE",
"207.759 570.373 OFFCURVE",
"220.411 566.595 OFFCURVE",
"232.591 561.667 CURVE",
"246.14 556.184 OFFCURVE",
"259.554 550.17 OFFCURVE",
"272.421 543.26 CURVE",
"282.543 537.824 OFFCURVE",
"292.806 531.804 OFFCURVE",
"301.102 524.014 CURVE",
"312.754 513.072 OFFCURVE",
"323.241 500.714 OFFCURVE",
"333.054 488.053 CURVE",
"338.718 480.746 OFFCURVE",
"344.194 472.062 OFFCURVE",
"345.905 463.25 CURVE",
"347.821 453.381 OFFCURVE",
"350.989 444.96 OFFCURVE",
"357.115 437.343 CURVE",
"357.115 430.457 OFFCURVE",
"357.115 423.57 OFFCURVE",
"357.115 416.685 CURVE",
"355.878 414.501 OFFCURVE",
"353.609 412.337 OFFCURVE",
"353.569 410.132 CURVE",
"353.271 393.762 OFFCURVE",
"344.144 381.037 OFFCURVE",
"335.095 369.093 CURVE",
"326.485 357.728 OFFCURVE",
"315.296 348.236 OFFCURVE",
"304.739 338.461 CURVE",
"299.89 333.971 OFFCURVE",
"294.09 330.33 OFFCURVE",
"288.285 327.087 CURVE",
"274.767 319.536 OFFCURVE",
"260.53 312.969 OFFCURVE",
"254.731 295.61 CURVE",
"257.145 293.789 OFFCURVE",
"260.082 291.241 OFFCURVE",
"263.33 289.183 CURVE",
"273.995 282.424 OFFCURVE",
"286.236 277.363 OFFCURVE",
"295.127 268.8 CURVE",
"305.576 258.738 OFFCURVE",
"313.671 246.039 OFFCURVE",
"321.77 233.809 CURVE",
"326.158 227.181 OFFCURVE",
"327.627 218.652 OFFCURVE",
"331.847 211.873 CURVE",
"338.094 201.838 OFFCURVE",
"336.938 190.45 OFFCURVE",
"339.503 179.78 CURVE",
"339.744 178.777 OFFCURVE",
"339.158 177.563 OFFCURVE",
"338.915 176.456 CURVE",
"336.855 167.079 OFFCURVE",
"335.082 157.625 OFFCURVE",
"332.588 148.365 CURVE",
"331.422 144.036 OFFCURVE",
"329.026 139.992 OFFCURVE",
"326.849 136.003 CURVE",
"325.826 134.13 OFFCURVE",
"323.871 132.792 OFFCURVE",
"322.566 131.041 CURVE",
"317.437 124.155 OFFCURVE",
"313.085 116.532 OFFCURVE",
"307.152 110.442 CURVE",
"299.673 102.764 OFFCURVE",
"290.815 96.448 OFFCURVE",
"282.761 89.309 CURVE",
"270.636 78.562 OFFCURVE",
"258.769 67.524 OFFCURVE",
"246.607 56.819 CURVE",
"244.145 54.651 OFFCURVE",
"240.958 53.214 OFFCURVE",
"237.939 51.79 CURVE",
"232.667 49.304 OFFCURVE",
"225.885 48.39 OFFCURVE",
"222.211 44.487 CURVE",
"214.837 36.654 OFFCURVE",
"206.02 38.626 OFFCURVE",
"197.286 37.287 CURVE",
"190.566 36.257 OFFCURVE",
"182.77 33.311 OFFCURVE",
"178.27 28.552 CURVE",
"168.329 18.038 OFFCURVE",
"157.957 14.139 OFFCURVE",
"144.747 17.972 CURVE",
"140.032 19.34 OFFCURVE",
"134.605 18.319 OFFCURVE",
"129.504 18.267 CURVE",
"126.27 18.235 OFFCURVE",
"122.792 17.124 OFFCURVE",
"119.849 17.974 CURVE",
"109.03 21.099 OFFCURVE",
"98.268 24.86 OFFCURVE",
"87.118 20.243 CURVE",
"83.694 18.825 OFFCURVE",
"81.315 14.96 OFFCURVE",
"77.915 13.397 CURVE",
"69.845 9.687 OFFCURVE",
"61.278 7.05 OFFCURVE",
"53.238 3.283 CURVE",
"46.459 0.108 OFFCURVE",
"40.177 -3.97 OFFCURVE",
"39.383 8.352 CURVE",
"39.354 8.797 OFFCURVE",
"38.704 9.229 OFFCURVE",
"38.294 9.616 CURVE",
"29.985 17.479 OFFCURVE",
"21.894 25.445 OFFCURVE",
"22.309 38.215 CURVE",
"22.331 38.892 OFFCURVE",
"21.586 39.846 OFFCURVE",
"20.937 40.253 CURVE",
"13.471 44.92 OFFCURVE",
"12.856 52.258 OFFCURVE",
"12.299 60.091 CURVE",
"12.021 64.003 OFFCURVE",
"10.26 70.107 OFFCURVE",
"7.656 71.054 CURVE",
"2.938 72.77 OFFCURVE",
"-0.637 75.144 OFFCURVE",
"0.099 79.428 CURVE",
"0.858 83.857 OFFCURVE",
"4.313 87.822 OFFCURVE",
"6.279 91.422 CURVE",
"5.265 92.72 OFFCURVE",
"3.084 94.711 OFFCURVE",
"1.895 97.179 CURVE",
"-2.68 106.676 OFFCURVE",
"2.623 115.259 OFFCURVE",
"4.586 124.238 CURVE",
"6.871 134.687 OFFCURVE",
"11.297 144.539 OFFCURVE",
"9.358 156.115 CURVE",
"8.065 163.834 OFFCURVE",
"10.92 172.323 OFFCURVE",
"12.344 180.393 CURVE",
"13.204 185.268 OFFCURVE",
"15.745 189.954 OFFCURVE",
"16.002 194.806 CURVE",
"16.529 204.707 OFFCURVE",
"15.968 214.662 OFFCURVE",
"15.955 224.596 CURVE",
"15.937 237.578 OFFCURVE",
"15.958 250.561 OFFCURVE",
"16.075 263.543 CURVE",
"16.144 271.291 OFFCURVE",
"13.652 274.286 OFFCURVE",
"5.165 268.8 CURVE",
"6.515 272.004 OFFCURVE",
"7.919 273.731 OFFCURVE",
"9.528 275.241 CURVE",
"10.896 276.524 OFFCURVE",
"13.534 277.331 OFFCURVE",
"13.838 278.733 CURVE",
"16.875 292.721 OFFCURVE",
"22.724 306.507 OFFCURVE",
"19.098 321.161 CURVE",
"18.132 325.063 OFFCURVE",
"15.48 329.914 OFFCURVE",
"12.199 331.605 CURVE",
"4.339 335.655 OFFCURVE",
"3.576 337.536 OFFCURVE",
"10.325 344.014 CURVE",
"11.979 342.858 OFFCURVE",
"13.631 341.701 OFFCURVE",
"15.302 340.532 CURVE",
"22.909 352.048 OFFCURVE",
"23.436 358.666 OFFCURVE",
"17.304 368.544 CURVE",
"14.94 364.873 OFFCURVE",
"12.796 361.541 OFFCURVE",
"10.525 358.011 CURVE",
"5.208 372.913 OFFCURVE",
"8.708 380.277 OFFCURVE",
"22.042 386.695 CURVE",
"25.461 388.341 OFFCURVE",
"28.891 393.36 OFFCURVE",
"29.344 397.181 CURVE",
"31.24 413.165 OFFCURVE",
"32.19 429.272 OFFCURVE",
"33.105 445.356 CURVE",
"33.56 453.363 OFFCURVE",
"32.581 461.478 OFFCURVE",
"33.371 469.433 CURVE",
"34.12 476.966 OFFCURVE",
"34.987 485.017 OFFCURVE",
"38.248 491.635 CURVE",
"42.169 499.595 OFFCURVE",
"43.909 507.366 OFFCURVE",
"43.909 516.013 CURVE",
"43.909 519.161 OFFCURVE",
"44.733 523.097 OFFCURVE",
"46.707 525.319 CURVE",
"54.465 534.051 OFFCURVE",
"55.918 544.557 OFFCURVE",
"57.346 555.473 CURVE",
"57.89 559.632 OFFCURVE",
"60.362 564.81 OFFCURVE",
"63.646 567.121 CURVE",
"78.002 577.223 OFFCURVE",
"93.61 585.033 OFFCURVE",
"110.931 588.978 CURVE",
"111.717 589.157 OFFCURVE",
"112.093 591.137 OFFCURVE",
"112.66 592.279 CURVE"
);
},
{
closed = 1;
nodes = (
"112.463 341.306 OFFCURVE",
"113.331 340.54 OFFCURVE",
"114.2 339.774 CURVE",
"123.809 343.046 OFFCURVE",
"133.775 345.55 OFFCURVE",
"142.924 349.812 CURVE",
"151.625 353.866 OFFCURVE",
"159.274 360.114 OFFCURVE",
"167.741 364.751 CURVE",
"180.034 371.484 OFFCURVE",
"193.211 376.748 OFFCURVE",
"204.973 384.264 CURVE",
"218.771 393.084 OFFCURVE",
"231.439 403.67 OFFCURVE",
"244.632 413.444 CURVE",
"250.438 417.745 OFFCURVE",
"256.329 421.934 OFFCURVE",
"261.73 425.848 CURVE",
"260.291 433.295 OFFCURVE",
"258.778 441.903 OFFCURVE",
"256.896 450.429 CURVE",
"256.216 453.51 OFFCURVE",
"254.961 456.568 OFFCURVE",
"253.432 459.34 CURVE",
"246.738 471.483 OFFCURVE",
"234.844 472.507 OFFCURVE",
"222.657 473.293 CURVE",
"222.657 470.775 OFFCURVE",
"222.657 468.256 OFFCURVE",
"222.657 464.6 CURVE",
"220.203 465.251 OFFCURVE",
"218.087 465.515 OFFCURVE",
"216.379 466.492 CURVE",
"215.996 466.712 OFFCURVE",
"216.52 470.003 OFFCURVE",
"217.512 470.882 CURVE",
"221.42 474.351 OFFCURVE",
"219.975 476.755 OFFCURVE",
"216.351 478.804 CURVE",
"211.704 481.432 OFFCURVE",
"206.946 483.861 OFFCURVE",
"202.235 486.375 CURVE",
"184.254 495.971 OFFCURVE",
"165.759 503.803 OFFCURVE",
"145.101 503.029 CURVE",
"141.016 497.446 OFFCURVE",
"135.155 492.51 OFFCURVE",
"133.403 486.398 CURVE",
"129.815 473.886 OFFCURVE",
"128.189 460.78 OFFCURVE",
"126.217 447.848 CURVE",
"124.488 436.506 OFFCURVE",
"124.692 424.713 OFFCURVE",
"121.701 413.757 CURVE",
"117.454 398.201 OFFCURVE",
"115 382.719 OFFCURVE",
"115.726 366.656 CURVE",
"115.853 363.856 OFFCURVE",
"115.419 360.987 OFFCURVE",
"114.914 358.211 CURVE",
"113.931 352.809 OFFCURVE",
"112.714 347.45 OFFCURVE",
"111.594 342.073 CURVE"
);
},
{
closed = 1;
nodes = (
"240.666 178.517 OFFCURVE",
"242.103 183.123 OFFCURVE",
"241.038 183.802 CURVE SMOOTH",
"235.849 187.108 OFFCURVE",
"231.154 194.112 OFFCURVE",
"234.117 197.755 CURVE SMOOTH",
"238.202 202.776 OFFCURVE",
"235.566 205.915 OFFCURVE",
"232.371 208.457 CURVE SMOOTH",
"228.093 211.86 OFFCURVE",
"223.331 215.348 OFFCURVE",
"218.205 216.858 CURVE SMOOTH",
"203.743 221.116 OFFCURVE",
"188.58 222.791 OFFCURVE",
"175.286 231.014 CURVE SMOOTH",
"166.475 236.465 OFFCURVE",
"164.201 234.96 OFFCURVE",
"160.521 225.361 CURVE SMOOTH",
"159.734 223.311 OFFCURVE",
"156.445 220.31 OFFCURVE",
"155.2 220.687 CURVE SMOOTH",
"150.382 222.147 OFFCURVE",
"145.925 224.797 OFFCURVE",
"141.334 227.003 CURVE",
"142.31 227.347 OFFCURVE",
"143.285 227.692 OFFCURVE",
"144.26 228.036 CURVE",
"144.923 231.02 OFFCURVE",
"147.101 234.851 OFFCURVE",
"145.987 236.841 CURVE SMOOTH",
"141.201 245.398 OFFCURVE",
"135.788 253.67 OFFCURVE",
"129.896 261.513 CURVE SMOOTH",
"127.193 265.111 OFFCURVE",
"122.941 267.594 OFFCURVE",
"119.232 270.37 CURVE SMOOTH",
"116.759 272.221 OFFCURVE",
"113.534 275.439 OFFCURVE",
"111.495 274.889 CURVE SMOOTH",
"109.046 274.23 OFFCURVE",
"106.982 270.455 OFFCURVE",
"105.682 267.604 CURVE SMOOTH",
"103.502 262.827 OFFCURVE",
"104.054 258.032 OFFCURVE",
"104.891 252.608 CURVE SMOOTH",
"105.97 245.605 OFFCURVE",
"101.43 237.683 OFFCURVE",
"102.685 230.769 CURVE SMOOTH",
"105.729 213.988 OFFCURVE",
"95.184 197.683 OFFCURVE",
"101.889 181.068 CURVE SMOOTH",
"102.161 180.393 OFFCURVE",
"101.662 179.403 OFFCURVE",
"101.513 178.562 CURVE SMOOTH",
"100.543 173.09 OFFCURVE",
"99.203 167.653 OFFCURVE",
"98.693 162.14 CURVE SMOOTH",
"98.062 155.308 OFFCURVE",
"98.33 148.398 OFFCURVE",
"97.826 141.55 CURVE SMOOTH",
"97.16 132.515 OFFCURVE",
"95.74 123.516 OFFCURVE",
"95.522 114.481 CURVE SMOOTH",
"95.47 112.308 OFFCURVE",
"98.817 108.255 OFFCURVE",
"100.707 108.191 CURVE SMOOTH",
"105.374 108.034 OFFCURVE",
"110.264 109.202 OFFCURVE",
"114.774 110.706 CURVE SMOOTH",
"127.151 114.833 OFFCURVE",
"139.371 119.429 OFFCURVE",
"151.668 123.797 CURVE SMOOTH",
"158.968 126.39 OFFCURVE",
"166.463 128.516 OFFCURVE",
"173.558 131.577 CURVE SMOOTH",
"179.244 134.029 OFFCURVE",
"184.221 139.461 OFFCURVE",
"189.939 140.182 CURVE SMOOTH",
"198.141 141.215 OFFCURVE",
"202.264 146.585 OFFCURVE",
"207.148 151.405 CURVE SMOOTH",
"209.594 153.819 OFFCURVE",
"210.661 157.576 OFFCURVE",
"212.917 160.249 CURVE SMOOTH",
"216.867 164.93 OFFCURVE",
"222.494 168.612 OFFCURVE",
"225.164 173.86 CURVE SMOOTH",
"229.164 181.723 OFFCURVE",
"233.25 179.428 OFFCURVE",
"240.275 174.675 CURVE"
);
}
);
width = 350;
}
);
unicode = 0042;
},
{
glyphname = C;
lastChange = "2020-11-21 14:55:21 +0000";
layers = (
{
layerId = "35B18FD4-EE95-4CAF-9F6E-40BA2ACEDFAA";
paths = (
{
closed = 1;
nodes = (
"341.503 533.992 OFFCURVE",
"338.938 530.67 OFFCURVE",
"340.355 524.256 CURVE SMOOTH",
"343.195 511.399 OFFCURVE",
"336.13 500.77 OFFCURVE",
"329.029 492.296 CURVE SMOOTH",
"325.677 488.296 OFFCURVE",
"321.014 484.232 OFFCURVE",
"317.786 479.561 CURVE SMOOTH",
"312.599 472.054 OFFCURVE",
"307.784 464.271 OFFCURVE",
"303.169 456.396 CURVE SMOOTH",
"300.952 452.613 OFFCURVE",
"302.972 451.149 OFFCURVE",
"314.643 449.469 CURVE",
"311.622 446.557 OFFCURVE",
"310.056 443.769 OFFCURVE",
"307.935 443.249 CURVE SMOOTH",
"302.252 441.857 OFFCURVE",
"290.333 447.75 OFFCURVE",
"289.581 451.757 CURVE",
"292.656 451.436 OFFCURVE",
"295.737 451.113 OFFCURVE",
"298.818 450.791 CURVE",
"299.333 451.588 OFFCURVE",
"299.847 452.386 OFFCURVE",
"300.362 453.184 CURVE",
"297.922 454.559 OFFCURVE",
"295.482 455.934 OFFCURVE",
"292.113 457.832 CURVE",
"297.016 463.147 OFFCURVE",
"301.108 467.583 OFFCURVE",
"305.201 472.021 CURVE",
"297.461 480.702 OFFCURVE",
"294.788 489.319 OFFCURVE",
"296.04 500.727 CURVE SMOOTH",
"297.646 515.359 OFFCURVE",
"296.39 530.394 OFFCURVE",
"295.304 545.177 CURVE SMOOTH",
"295.006 549.242 OFFCURVE",
"290.916 553.028 OFFCURVE",
"289.661 555.119 CURVE",
"284.366 552.946 OFFCURVE",
"281 551.741 OFFCURVE",
"277.784 550.216 CURVE SMOOTH",
"263.189 543.293 OFFCURVE",
"250.692 533.716 OFFCURVE",
"241.177 520.544 CURVE SMOOTH",
"236.882 514.598 OFFCURVE",
"233.247 508.143 OFFCURVE",
"228.65 502.454 CURVE SMOOTH",
"221.662 493.806 OFFCURVE",
"213.417 486.11 OFFCURVE",
"206.98 477.101 CURVE SMOOTH",
"201.181 468.985 OFFCURVE",
"197.283 459.535 OFFCURVE",
"192.188 450.885 CURVE SMOOTH",
"188.72 444.998 OFFCURVE",
"184.5 439.558 OFFCURVE",
"180.852 433.769 CURVE SMOOTH",
"174.687 423.985 OFFCURVE",
"168.425 414.242 OFFCURVE",
"162.785 404.156 CURVE SMOOTH",
"160.412 399.911 OFFCURVE",
"159.487 394.849 OFFCURVE",
"157.977 390.135 CURVE SMOOTH",
"157.552 388.811 OFFCURVE",
"157.865 386.917 OFFCURVE",
"157.035 386.106 CURVE SMOOTH",
"143.745 373.107 OFFCURVE",
"138.11 355.099 OFFCURVE",
"132.244 339.023 CURVE SMOOTH",
"125.959 321.801 OFFCURVE",
"116.48 305.791 OFFCURVE",
"112.004 287.442 CURVE SMOOTH",
"109.376 276.671 OFFCURVE",
"109.188 262.496 OFFCURVE",
"98.123 254.169 CURVE SMOOTH",
"96.912 253.258 OFFCURVE",
"95.975 249.559 OFFCURVE",
"96.541 249.081 CURVE SMOOTH",
"102.329 244.191 OFFCURVE",
"97.53 240.336 OFFCURVE",
"95.329 236.666 CURVE SMOOTH",
"88.629 225.496 OFFCURVE",
"87.26 213.02 OFFCURVE",
"85.508 200.544 CURVE SMOOTH",
"84.628 194.281 OFFCURVE",
"82.315 188.174 OFFCURVE",
"81.839 181.906 CURVE SMOOTH",
"80.492 164.171 OFFCURVE",
"77.989 146.241 OFFCURVE",
"79.461 128.684 CURVE SMOOTH",
"80.319 118.455 OFFCURVE",
"81.941 104.765 OFFCURVE",
"96.435 101.532 CURVE SMOOTH",
"99.841 100.772 OFFCURVE",
"103.617 101.582 OFFCURVE",
"107.215 101.807 CURVE SMOOTH",
"108.894 101.912 OFFCURVE",
"110.582 102.706 OFFCURVE",
"112.216 102.573 CURVE SMOOTH",
"125.068 101.53 OFFCURVE",
"134.77 107.881 OFFCURVE",
"144.678 114.976 CURVE SMOOTH",
"150.304 119.005 OFFCURVE",
"158.251 119.74 OFFCURVE",
"164.019 123.637 CURVE SMOOTH",
"169.66 127.449 OFFCURVE",
"173.607 133.677 OFFCURVE",
"178.775 138.311 CURVE SMOOTH",
"182.896 142.005 OFFCURVE",
"187.328 145.976 OFFCURVE",
"192.358 147.877 CURVE SMOOTH",
"198.806 150.314 OFFCURVE",
"205.014 151.474 OFFCURVE",
"210.007 157.568 CURVE SMOOTH",
"216.222 165.154 OFFCURVE",
"223.777 172.186 OFFCURVE",
"232.042 177.42 CURVE SMOOTH",
"245.333 185.836 OFFCURVE",
"251.487 199.821 OFFCURVE",
"261.267 210.913 CURVE SMOOTH",
"263.47 213.412 OFFCURVE",
"265.522 216.468 OFFCURVE",
"268.339 217.911 CURVE SMOOTH",
"274.026 220.825 OFFCURVE",
"280.535 222.545 OFFCURVE",
"278.061 231.219 CURVE SMOOTH",
"277.99 231.468 OFFCURVE",
"278.045 231.863 OFFCURVE",
"278.205 232.051 CURVE SMOOTH",
"285.143 240.234 OFFCURVE",
"291.889 248.6 OFFCURVE",
"299.244 256.391 CURVE SMOOTH",
"300.594 257.82 OFFCURVE",
"304.425 256.908 OFFCURVE",
"307.111 257.077 CURVE",
"307.034 254.521 OFFCURVE",
"307.614 251.702 OFFCURVE",
"306.723 249.471 CURVE SMOOTH",
"305.459 246.305 OFFCURVE",
"303.112 243.571 OFFCURVE",
"300.826 240.031 CURVE",
"312.944 231.419 OFFCURVE",
"303.118 220.471 OFFCURVE",
"301.955 210.143 CURVE SMOOTH",
"300.429 196.588 OFFCURVE",
"292.373 184.966 OFFCURVE",
"292.252 170.314 CURVE SMOOTH",
"292.162 159.304 OFFCURVE",
"284.891 148.195 OFFCURVE",
"280.158 137.42 CURVE SMOOTH",
"274.455 124.438 OFFCURVE",
"267.009 112.139 OFFCURVE",
"262.223 98.858 CURVE SMOOTH",
"256.359 82.582 OFFCURVE",
"243.345 72.834 OFFCURVE",
"231.761 61.84 CURVE SMOOTH",
"210.709 41.859 OFFCURVE",
"184.568 29.221 OFFCURVE",
"160.069 14.275 CURVE SMOOTH",
"153.414 10.215 OFFCURVE",
"145.7 4.477 OFFCURVE",
"138.884 4.989 CURVE SMOOTH",
"130.943 5.585 OFFCURVE",
"124.548 2.27 OFFCURVE",
"117.345 1.78 CURVE SMOOTH",
"112.611 1.458 OFFCURVE",
"107.689 -0.646 OFFCURVE",
"103.262 0.199 CURVE SMOOTH",
"97.476 1.303 OFFCURVE",
"91.519 3.691 OFFCURVE",
"86.66 7.021 CURVE SMOOTH",
"76.127 14.24 OFFCURVE",
"67.14 24.304 OFFCURVE",
"55.838 29.638 CURVE SMOOTH",
"45.258 34.631 OFFCURVE",
"37.439 40.236 OFFCURVE",
"32.315 50.79 CURVE SMOOTH",
"28.678 58.281 OFFCURVE",
"22.215 64.402 OFFCURVE",
"18.586 71.896 CURVE SMOOTH",
"13.778 81.827 OFFCURVE",
"10.431 92.473 OFFCURVE",
"6.598 102.864 CURVE SMOOTH",
"4.309 109.07 OFFCURVE",
"1.526 115.24 OFFCURVE",
"0.377 121.678 CURVE SMOOTH",
"-0.706 127.748 OFFCURVE",
"-0.296 134.17 OFFCURVE",
"0.091 140.397 CURVE SMOOTH",
"0.812 151.96 OFFCURVE",
"2.658 163.483 OFFCURVE",
"2.846 175.042 CURVE SMOOTH",
"3.212 197.668 OFFCURVE",
"8.612 219.223 OFFCURVE",
"14.953 240.695 CURVE SMOOTH",
"19.994 257.765 OFFCURVE",
"28.455 274.034 OFFCURVE",
"27.41 292.585 CURVE SMOOTH",
"27.332 293.974 OFFCURVE",
"27.512 295.553 OFFCURVE",
"28.113 296.778 CURVE SMOOTH",
"36.52 313.902 OFFCURVE",
"45.208 330.892 OFFCURVE",
"53.364 348.133 CURVE SMOOTH",
"55.331 352.292 OFFCURVE",
"56.293 357.215 OFFCURVE",
"56.532 361.848 CURVE SMOOTH",
"57.125 373.392 OFFCURVE",
"68.292 379.856 OFFCURVE",
"70.354 389.568 CURVE SMOOTH",
"72.925 401.675 OFFCURVE",
"81.991 409.705 OFFCURVE",
"85.352 420.749 CURVE SMOOTH",
"86.353 424.04 OFFCURVE",
"86.551 428.658 OFFCURVE",
"84.97 431.455 CURVE SMOOTH",
"79.618 440.924 OFFCURVE",
"82.513 447.454 OFFCURVE",
"91.394 453.331 CURVE",
"92.089 450.508 OFFCURVE",
"92.726 447.924 OFFCURVE",
"94.141 442.177 CURVE",
"101.37 452.681 OFFCURVE",
"107.394 461.147 OFFCURVE",
"113.079 469.835 CURVE SMOOTH",
"115.354 473.312 OFFCURVE",
"117.209 477.159 OFFCURVE",
"118.636 481.064 CURVE SMOOTH",
"119.552 483.572 OFFCURVE",
"120.579 487.294 OFFCURVE",
"119.419 489.092 CURVE SMOOTH",
"113.674 497.991 OFFCURVE",
"118.806 503.385 OFFCURVE",
"125.235 509.172 CURVE",
"126.315 507.255 OFFCURVE",
"127.345 505.427 OFFCURVE",
"128.696 503.029 CURVE",
"141.523 515.635 OFFCURVE",
"155.792 526.494 OFFCURVE",
"155.041 547.536 CURVE SMOOTH",
"154.595 560.041 OFFCURVE",
"166.807 565.627 OFFCURVE",
"173.689 575.064 CURVE",
"179.912 568.228 OFFCURVE",
"184.427 571.74 OFFCURVE",
"189.166 576.309 CURVE SMOOTH",
"195.379 582.299 OFFCURVE",
"203.005 587.086 OFFCURVE",
"203.578 597.098 CURVE SMOOTH",
"203.669 598.689 OFFCURVE",
"205.646 600.771 OFFCURVE",
"207.272 601.583 CURVE SMOOTH",
"223.599 609.728 OFFCURVE",
"240.035 617.653 OFFCURVE",
"256.439 625.646 CURVE SMOOTH",
"259.294 627.037 OFFCURVE",
"262.138 628.449 OFFCURVE",
"264.988 629.852 CURVE",
"270.152 629.852 OFFCURVE",
"275.317 629.852 OFFCURVE",
"280.481 629.852 CURVE",
"281.776 624.288 OFFCURVE",
"285.089 622.079 OFFCURVE",
"290.908 622.666 CURVE SMOOTH",
"294.526 623.031 OFFCURVE",
"299.078 623.479 OFFCURVE",
"301.814 621.718 CURVE SMOOTH",
"319.1 610.6 OFFCURVE",
"334.555 597.744 OFFCURVE",
"340.631 576.72 CURVE SMOOTH",
"342.208 571.26 OFFCURVE",
"345.251 566.223 OFFCURVE",
"347.62 560.992 CURVE",
"347.62 552.384 OFFCURVE",
"347.62 543.776 OFFCURVE",
"347.62 535.169 CURVE"
);
}
);
width = 350;
}
);
unicode = 0043;
},
{
glyphname = D;
lastChange = "2020-11-21 14:55:25 +0000";
layers = (
{
layerId = "35B18FD4-EE95-4CAF-9F6E-40BA2ACEDFAA";
paths = (
{
closed = 1;
nodes = (
"362.341 409.371 OFFCURVE",
"362.341 394.441 OFFCURVE",
"362.341 379.511 CURVE",
"359.945 368.61 OFFCURVE",
"357.557 357.707 OFFCURVE",
"355.144 346.81 CURVE",
"354.727 344.927 OFFCURVE",
"354.303 343.036 OFFCURVE",
"353.708 341.205 CURVE",
"350.794 332.229 OFFCURVE",
"345.867 323.395 OFFCURVE",
"345.29 314.281 CURVE",
"344.214 297.274 OFFCURVE",
"331.11 283.395 OFFCURVE",
"333.841 265.723 CURVE",
"333.976 264.854 OFFCURVE",
"332.668 263.834 OFFCURVE",
"332.251 262.796 CURVE",
"327.446 250.842 OFFCURVE",
"322.45 238.959 OFFCURVE",
"317.966 226.885 CURVE",
"312.006 210.84 OFFCURVE",
"306.455 194.643 OFFCURVE",
"300.728 178.511 CURVE",
"298.058 170.989 OFFCURVE",
"295.518 163.418 OFFCURVE",
"292.679 155.961 CURVE",
"289.837 148.498 OFFCURVE",
"286.937 141.038 OFFCURVE",
"283.6 133.79 CURVE",
"281.434 129.087 OFFCURVE",
"277.905 124.988 OFFCURVE",
"275.926 120.228 CURVE",
"271.832 110.378 OFFCURVE",
"270.535 99.036 OFFCURVE",
"260.215 92.77 CURVE",
"259.983 92.629 OFFCURVE",
"259.797 92.361 OFFCURVE",
"259.667 92.113 CURVE",
"251.067 75.743 OFFCURVE",
"239.355 62.164 OFFCURVE",
"225.023 50.356 CURVE",
"212.651 40.163 OFFCURVE",
"200.23 30.418 OFFCURVE",
"185.442 23.972 CURVE",
"173.765 18.882 OFFCURVE",
"161.882 14.142 OFFCURVE",
"150.637 8.21 CURVE",
"131.572 -1.849 OFFCURVE",
"112.079 -2.136 OFFCURVE",
"92.277 4.476 CURVE",
"82.851 7.624 OFFCURVE",
"81.892 15.052 OFFCURVE",
"89.225 21.123 CURVE",
"89.558 21.399 OFFCURVE",
"89.47 22.184 OFFCURVE",
"89.78 23.753 CURVE",
"87.874 25.062 OFFCURVE",
"85.429 26.406 OFFCURVE",
"83.382 28.205 CURVE",
"75.598 35.041 OFFCURVE",
"67.744 41.819 OFFCURVE",
"60.292 49.007 CURVE",
"52.04 56.966 OFFCURVE",
"44 65.169 OFFCURVE",
"36.271 73.635 CURVE",
"32.915 77.31 OFFCURVE",
"29.073 81.566 OFFCURVE",
"28.033 86.145 CURVE",
"24.424 102.021 OFFCURVE",
"26.215 118.931 OFFCURVE",
"17.69 133.966 CURVE",
"14.062 140.365 OFFCURVE",
"12.492 147.931 OFFCURVE",
"9.882 155.262 CURVE",
"7.031 150.619 OFFCURVE",
"5.09 147.457 OFFCURVE",
"3.149 144.295 CURVE",
"2.386 144.709 OFFCURVE",
"1.623 145.123 OFFCURVE",
"0.861 145.536 CURVE",
"0.861 152.652 OFFCURVE",
"-1.303 160.722 OFFCURVE",
"1.324 166.677 CURVE",
"6.334 178.033 OFFCURVE",
"7.475 189.372 OFFCURVE",
"7.323 201.327 CURVE",
"7.229 208.631 OFFCURVE",
"5.895 216.708 OFFCURVE",
"8.458 223.096 CURVE",
"14.302 237.663 OFFCURVE",
"18.219 252.157 OFFCURVE",
"17.795 267.974 CURVE",
"17.618 274.619 OFFCURVE",
"19.268 281.42 OFFCURVE",
"27.869 283.053 CURVE",
"29.121 283.291 OFFCURVE",
"30.776 285.091 OFFCURVE",
"30.93 286.332 CURVE",
"31.068 287.436 OFFCURVE",
"29.359 288.751 OFFCURVE",
"28.506 290.001 CURVE",
"27.447 291.554 OFFCURVE",
"26.43 293.137 OFFCURVE",
"25.395 294.707 CURVE",
"27.187 295.111 OFFCURVE",
"28.969 295.577 OFFCURVE",
"30.775 295.902 CURVE",
"32.966 296.297 OFFCURVE",
"36.247 295.76 OFFCURVE",
"37.208 297.028 CURVE",
"43.515 305.35 OFFCURVE",
"43.035 315.031 OFFCURVE",
"36.246 323.697 CURVE",
"33.83 320.953 OFFCURVE",
"31.464 318.266 OFFCURVE",
"29.114 315.597 CURVE",
"24.34 331.868 OFFCURVE",
"31.784 346.043 OFFCURVE",
"35.454 360.691 CURVE",
"35.844 362.245 OFFCURVE",
"40.084 362.816 OFFCURVE",
"42.522 363.879 CURVE",
"44.829 364.885 OFFCURVE",
"48.58 365.435 OFFCURVE",
"49.14 367.065 CURVE",
"50.94 372.295 OFFCURVE",
"51.557 377.933 OFFCURVE",
"52.63 383.414 CURVE",
"51.724 383.744 OFFCURVE",
"50.817 384.075 OFFCURVE",
"49.91 384.405 CURVE",
"47.378 382.688 OFFCURVE",
"44.846 380.97 OFFCURVE",
"41.273 378.546 CURVE",
"41.895 386.153 OFFCURVE",
"42.382 392.925 OFFCURVE",
"43.019 399.683 CURVE",
"43.648 406.366 OFFCURVE",
"45.071 413.041 OFFCURVE",
"45.008 419.709 CURVE",
"44.884 432.97 OFFCURVE",
"49.692 444.984 OFFCURVE",
"57.309 454.657 CURVE",
"64.171 463.371 OFFCURVE",
"66.252 471.84 OFFCURVE",
"65.857 482.133 CURVE",
"65.746 485.049 OFFCURVE",
"67.052 488.865 OFFCURVE",
"69.086 490.87 CURVE",
"77.184 498.849 OFFCURVE",
"81.667 516.63 OFFCURVE",
"77.529 527.677 CURVE",
"75.176 524.978 OFFCURVE",
"72.902 522.368 OFFCURVE",
"70.628 519.759 CURVE",
"70.115 528.603 OFFCURVE",
"71.201 536.861 OFFCURVE",
"72.682 545.048 CURVE",
"75.377 559.945 OFFCURVE",
"89.303 571.399 OFFCURVE",
"104.146 571.788 CURVE",
"107.859 571.885 OFFCURVE",
"111.556 573.6 OFFCURVE",
"115.212 574.729 CURVE",
"123.383 577.254 OFFCURVE",
"131.386 581.403 OFFCURVE",
"139.703 582.146 CURVE",
"157.489 583.733 OFFCURVE",
"175.46 583.722 OFFCURVE",
"192.551 576.927 CURVE",
"201.585 573.336 OFFCURVE",
"210.452 569.315 OFFCURVE",
"219.548 565.896 CURVE",
"227.52 562.901 OFFCURVE",
"236.308 561.58 OFFCURVE",
"243.673 557.569 CURVE",
"259.092 549.173 OFFCURVE",
"273.637 539.189 OFFCURVE",
"288.869 530.427 CURVE",
"302.212 522.753 OFFCURVE",
"312.302 511.809 OFFCURVE",
"322.871 500.907 CURVE",
"338.951 484.319 OFFCURVE",
"350.86 466.668 OFFCURVE",
"352.317 442.627 CURVE",
"352.698 436.339 OFFCURVE",
"358.843 430.4 OFFCURVE",
"362.341 424.3 CURVE"
);
},
{
closed = 1;
nodes = (
"244.292 437.454 OFFCURVE",
"241.747 437.158 OFFCURVE",
"239.839 438.122 CURVE",
"233.695 441.223 OFFCURVE",
"227.991 445.241 OFFCURVE",
"221.745 448.087 CURVE",
"206.123 455.205 OFFCURVE",
"190.35 462 OFFCURVE",
"174.524 468.654 CURVE",
"168.689 471.108 OFFCURVE",
"162.96 470.894 OFFCURVE",
"160.486 463.739 CURVE",
"158.402 457.716 OFFCURVE",
"156.852 451.484 OFFCURVE",
"155.435 445.26 CURVE",
"152.935 434.277 OFFCURVE",
"150.706 423.231 OFFCURVE",
"148.381 412.208 CURVE",
"146.107 401.428 OFFCURVE",
"143.817 390.652 OFFCURVE",
"141.627 379.855 CURVE",
"141.232 377.909 OFFCURVE",
"141.515 375.821 OFFCURVE",
"141.09 373.885 CURVE",
"139.037 364.544 OFFCURVE",
"136.65 355.272 OFFCURVE",
"134.77 345.898 CURVE",
"133.194 338.037 OFFCURVE",
"132.494 329.995 OFFCURVE",
"130.802 322.164 CURVE",
"127.808 308.313 OFFCURVE",
"123.673 294.677 OFFCURVE",
"121.294 280.733 CURVE",
"119.115 267.958 OFFCURVE",
"118.63 254.894 OFFCURVE",
"117.382 241.959 CURVE",
"117.3 241.111 OFFCURVE",
"117.25 240.194 OFFCURVE",
"116.894 239.448 CURVE",
"112.211 229.629 OFFCURVE",
"110.757 219.284 OFFCURVE",
"110.429 208.442 CURVE",
"110.161 199.556 OFFCURVE",
"108.188 190.705 OFFCURVE",
"106.738 181.878 CURVE",
"104.702 169.479 OFFCURVE",
"102.483 157.11 OFFCURVE",
"100.274 144.741 CURVE",
"99.491 140.352 OFFCURVE",
"97.96 136.021 OFFCURVE",
"97.773 131.622 CURVE",
"97.581 127.104 OFFCURVE",
"96.974 120.433 OFFCURVE",
"99.489 118.467 CURVE",
"103.512 115.322 OFFCURVE",
"109.901 114.532 OFFCURVE",
"115.399 114.085 CURVE",
"128.496 113.021 OFFCURVE",
"138.891 120.152 OFFCURVE",
"147.505 128.418 CURVE",
"156.738 137.277 OFFCURVE",
"164.373 147.908 OFFCURVE",
"172.042 158.256 CURVE",
"176.914 164.829 OFFCURVE",
"180.719 172.218 OFFCURVE",
"184.735 179.392 CURVE",
"187.631 184.565 OFFCURVE",
"190.195 189.935 OFFCURVE",
"192.692 195.317 CURVE",
"194.05 198.242 OFFCURVE",
"194.949 201.38 OFFCURVE",
"196.072 204.416 CURVE",
"199.799 214.491 OFFCURVE",
"203.385 224.623 OFFCURVE",
"207.347 234.605 CURVE",
"208.715 238.051 OFFCURVE",
"211.027 241.121 OFFCURVE",
"212.908 244.363 CURVE",
"214.047 242.143 OFFCURVE",
"215.08 239.857 OFFCURVE",
"216.377 237.734 CURVE",
"216.906 236.87 OFFCURVE",
"218.01 236.358 OFFCURVE",
"220.122 234.673 CURVE",
"224.301 241.444 OFFCURVE",
"228.206 247.77 OFFCURVE",
"232.11 254.096 CURVE",
"231.239 254.914 OFFCURVE",
"230.368 255.733 OFFCURVE",
"229.498 256.551 CURVE",
"225.654 255.064 OFFCURVE",
"221.811 253.576 OFFCURVE",
"216.238 251.42 CURVE",
"217.861 260.419 OFFCURVE",
"219.119 268.637 OFFCURVE",
"220.878 276.747 CURVE",
"222.283 283.228 OFFCURVE",
"223.353 290.047 OFFCURVE",
"226.255 295.877 CURVE",
"231.154 305.718 OFFCURVE",
"239.207 313.939 OFFCURVE",
"238.512 326.316 CURVE",
"238.304 330.014 OFFCURVE",
"241.368 334.139 OFFCURVE",
"243.616 337.63 CURVE",
"244.773 339.425 OFFCURVE",
"247.43 340.255 OFFCURVE",
"249.41 341.521 CURVE",
"250.362 339.635 OFFCURVE",
"251.438 337.798 OFFCURVE",
"252.219 335.844 CURVE",
"252.676 334.699 OFFCURVE",
"252.663 333.365 OFFCURVE",
"252.916 331.78 CURVE",
"260.86 337.605 OFFCURVE",
"261.76 343.104 OFFCURVE",
"256.792 353.772 CURVE",
"254.357 351.181 OFFCURVE",
"252.045 348.72 OFFCURVE",
"249.307 345.806 CURVE",
"247.329 364.36 OFFCURVE",
"246.381 365.287 OFFCURVE",
"261.287 372.227 CURVE",
"268.827 375.738 OFFCURVE",
"273.076 381.276 OFFCURVE",
"272.727 390.029 CURVE",
"272.437 397.28 OFFCURVE",
"272.667 404.552 OFFCURVE",
"272.667 411.815 CURVE",
"273.584 412.263 OFFCURVE",
"274.501 412.712 OFFCURVE",
"275.418 413.161 CURVE",
"271.379 415.766 OFFCURVE",
"266.637 417.725 OFFCURVE",
"263.492 421.151 CURVE",
"260.155 424.787 OFFCURVE",
"253.052 426.672 OFFCURVE",
"256.139 434.666 CURVE",
"257.091 437.129 OFFCURVE",
"254.234 441.063 OFFCURVE",
"253.121 444.323 CURVE",
"250.925 442.501 OFFCURVE",
"248.729 440.678 OFFCURVE",
"244.772 437.394 CURVE"
);
},
{
closed = 1;
nodes = (
"250.186 302.801 OFFCURVE",
"251.13 308.685 OFFCURVE",
"246.147 320.332 CURVE",
"237.3 313.957 OFFCURVE",
"243.337 305.49 OFFCURVE",
"241.465 297.257 CURVE"
);
}
);
width = 350;
}
);
unicode = 0044;
},
{
glyphname = E;
lastChange = "2020-11-21 14:55:28 +0000";
layers = (
{
layerId = "35B18FD4-EE95-4CAF-9F6E-40BA2ACEDFAA";
paths = (
{
closed = 1;
nodes = (
"152.502 352.529 OFFCURVE",
"161.633 354.409 OFFCURVE",
"170.667 356.68 CURVE SMOOTH",
"186.913 360.764 OFFCURVE",
"203.019 364.447 OFFCURVE",
"219.844 359.039 CURVE SMOOTH",
"224.551 357.526 OFFCURVE",
"230.16 359.018 OFFCURVE",
"235.081 357.912 CURVE SMOOTH",
"239.113 357.005 OFFCURVE",
"244.919 355.17 OFFCURVE",
"246.124 352.199 CURVE SMOOTH",
"249.379 344.168 OFFCURVE",
"250.644 335.322 OFFCURVE",
"252.599 326.777 CURVE SMOOTH",
"253.079 324.677 OFFCURVE",
"252.598 320.939 OFFCURVE",
"253.543 320.584 CURVE SMOOTH",
"262.607 317.189 OFFCURVE",
"257.462 315.8 OFFCURVE",
"253.566 311.563 CURVE SMOOTH",
"239.425 296.188 OFFCURVE",
"220.748 287.609 OFFCURVE",
"203.619 276.811 CURVE SMOOTH",
"199.602 274.279 OFFCURVE",
"193.128 275.523 OFFCURVE",
"187.773 275.269 CURVE SMOOTH",
"180.186 274.91 OFFCURVE",
"172.25 276.213 OFFCURVE",
"168.604 266.398 CURVE SMOOTH",
"167.744 264.083 OFFCURVE",
"163.153 262.209 OFFCURVE",
"160.071 261.833 CURVE SMOOTH",
"149.047 260.487 OFFCURVE",
"137.934 259.872 OFFCURVE",
"125.35 258.859 CURVE",
"123.261 254.823 OFFCURVE",
"118.982 249.005 OFFCURVE",
"117.125 242.495 CURVE SMOOTH",
"112.233 225.351 OFFCURVE",
"108.201 207.952 OFFCURVE",
"104.191 190.57 CURVE SMOOTH",
"100.247 173.478 OFFCURVE",
"96.874 156.255 OFFCURVE",
"92.999 139.147 CURVE SMOOTH",
"91.38 132 OFFCURVE",
"88.602 125.079 OFFCURVE",
"87.469 117.88 CURVE SMOOTH",
"87.155 115.888 OFFCURVE",
"91.214 111.057 OFFCURVE",
"92.653 111.292 CURVE SMOOTH",
"101.013 112.657 OFFCURVE",
"109.774 113.912 OFFCURVE",
"117.32 117.487 CURVE SMOOTH",
"138.785 127.654 OFFCURVE",
"159.437 139.55 OFFCURVE",
"180.963 149.575 CURVE SMOOTH",
"201.132 158.968 OFFCURVE",
"221.947 166.994 OFFCURVE",
"242.597 175.326 CURVE SMOOTH",
"256.136 180.787 OFFCURVE",
"269.833 185.874 OFFCURVE",
"283.567 190.831 CURVE SMOOTH",
"291.03 193.526 OFFCURVE",
"295.824 189.822 OFFCURVE",
"302.077 185.114 CURVE SMOOTH",
"313.315 176.653 OFFCURVE",
"311.085 163.093 OFFCURVE",
"317.241 152.794 CURVE SMOOTH",
"320.521 147.305 OFFCURVE",
"316.497 136.024 OFFCURVE",
"313.318 128.377 CURVE SMOOTH",
"305.108 108.623 OFFCURVE",
"288.906 96.147 OFFCURVE",
"271.088 85.306 CURVE SMOOTH",
"259.711 78.385 OFFCURVE",
"249.362 69.739 OFFCURVE",
"237.85 63.081 CURVE SMOOTH",
"228.352 57.589 OFFCURVE",
"217.689 54.155 OFFCURVE",
"207.785 49.312 CURVE SMOOTH",
"194.839 42.983 OFFCURVE",
"182.284 35.845 OFFCURVE",
"169.273 29.661 CURVE SMOOTH",
"159.728 25.125 OFFCURVE",
"150.095 21.308 OFFCURVE",
"138.674 23.102 CURVE SMOOTH",
"133.97 23.84 OFFCURVE",
"127.604 20.767 OFFCURVE",
"123.545 17.5 CURVE SMOOTH",
"113.289 9.245 OFFCURVE",
"101.393 5.298 OFFCURVE",
"88.996 3.238 CURVE SMOOTH",
"76.465 1.155 OFFCURVE",
"63.642 0.047 OFFCURVE",
"50.941 0 CURVE SMOOTH",
"38.889 -0.044 OFFCURVE",
"35.628 4.504 OFFCURVE",
"36.125 16.406 CURVE SMOOTH",
"36.182 17.792 OFFCURVE",
"36.082 19.462 OFFCURVE",
"35.373 20.559 CURVE SMOOTH",
"30.252 28.486 OFFCURVE",
"25.218 36.492 OFFCURVE",
"19.632 44.086 CURVE SMOOTH",
"15.298 49.979 OFFCURVE",
"10.545 55.375 OFFCURVE",
"10.954 63.427 CURVE SMOOTH",
"11.056 65.44 OFFCURVE",
"9.739 67.609 OFFCURVE",
"8.805 69.579 CURVE SMOOTH",
"3.147 81.52 OFFCURVE",
"-0.938 93.886 OFFCURVE",
"0.2 107.271 CURVE SMOOTH",
"0.507 110.881 OFFCURVE",
"3.384 114.216 OFFCURVE",
"4.035 117.864 CURVE SMOOTH",
"5.8 127.76 OFFCURVE",
"6.56 137.848 OFFCURVE",
"8.611 147.674 CURVE SMOOTH",
"9.695 152.864 OFFCURVE",
"12.846 157.591 OFFCURVE",
"14.702 162.66 CURVE SMOOTH",
"17.946 171.521 OFFCURVE",
"22.88 180.342 OFFCURVE",
"23.538 189.437 CURVE SMOOTH",
"24.553 203.493 OFFCURVE",
"32.967 215.635 OFFCURVE",
"34.104 228.2 CURVE SMOOTH",
"35.708 245.931 OFFCURVE",
"42.969 261.048 OFFCURVE",
"47.587 277.342 CURVE SMOOTH",
"49.171 282.93 OFFCURVE",
"50.656 288.551 OFFCURVE",
"52.039 294.193 CURVE SMOOTH",
"55.678 309.051 OFFCURVE",
"58.932 324.01 OFFCURVE",
"62.911 338.776 CURVE SMOOTH",
"66.877 353.494 OFFCURVE",
"71.609 368.005 OFFCURVE",
"75.852 382.651 CURVE SMOOTH",
"77.325 387.734 OFFCURVE",
"78.19 392.992 OFFCURVE",
"79.599 398.096 CURVE SMOOTH",
"81.96 406.646 OFFCURVE",
"84.941 415.045 OFFCURVE",
"86.894 423.68 CURVE SMOOTH",
"88.5 430.784 OFFCURVE",
"88.897 438.153 OFFCURVE",
"90.046 445.37 CURVE SMOOTH",
"90.344 447.243 OFFCURVE",
"90.967 449.508 OFFCURVE",
"92.262 450.703 CURVE SMOOTH",
"98.822 456.756 OFFCURVE",
"100.206 464.475 OFFCURVE",
"100.782 472.875 CURVE SMOOTH",
"101.412 482.063 OFFCURVE",
"102.938 491.189 OFFCURVE",
"104.059 500.343 CURVE SMOOTH",
"104.127 500.901 OFFCURVE",
"104.293 501.617 OFFCURVE",
"104.037 502.021 CURVE SMOOTH",
"96.192 514.409 OFFCURVE",
"108.237 513.52 OFFCURVE",
"113.886 516.312 CURVE SMOOTH",
"123.07 520.85 OFFCURVE",
"132.521 524.876 OFFCURVE",
"141.998 528.781 CURVE SMOOTH",
"144.696 529.893 OFFCURVE",
"147.874 529.841 OFFCURVE",
"149.777 530.151 CURVE",
"154.905 519.884 OFFCURVE",
"158.96 510.347 OFFCURVE",
"164.477 501.747 CURVE SMOOTH",
"165.8 499.683 OFFCURVE",
"171.988 500.377 OFFCURVE",
"175.92 500.48 CURVE SMOOTH",
"178.535 500.549 OFFCURVE",
"181.075 502.128 OFFCURVE",
"183.723 502.508 CURVE SMOOTH",
"199.908 504.826 OFFCURVE",
"216.065 507.566 OFFCURVE",
"232.333 509.008 CURVE SMOOTH",
"242.827 509.937 OFFCURVE",
"253.511 509.18 OFFCURVE",
"264.082 508.631 CURVE SMOOTH",
"271.438 508.249 OFFCURVE",
"278.749 506.966 OFFCURVE",
"286.073 506.035 CURVE SMOOTH",
"294.583 504.952 OFFCURVE",
"303.086 503.816 OFFCURVE",
"311.532 502.093 CURVE",
"313.751 499.583 OFFCURVE",
"309.977 490.26 OFFCURVE",
"318.291 495.857 CURVE SMOOTH",
"318.823 496.215 OFFCURVE",
"319.951 496.026 OFFCURVE",
"320.654 495.735 CURVE SMOOTH",
"325.435 493.754 OFFCURVE",
"332.128 476.277 OFFCURVE",
"330.26 471.391 CURVE SMOOTH",
"329.375 469.076 OFFCURVE",
"329.369 466.433 OFFCURVE",
"328.564 464.076 CURVE SMOOTH",
"327.874 462.051 OFFCURVE",
"327.097 459.294 OFFCURVE",
"325.518 458.47 CURVE SMOOTH",
"319.844 455.51 OFFCURVE",
"313.708 453.449 OFFCURVE",
"307.938 450.653 CURVE SMOOTH",
"292.638 443.242 OFFCURVE",
"277.467 435.565 OFFCURVE",
"262.163 428.163 CURVE SMOOTH",
"260.229 427.227 OFFCURVE",
"257.821 427.076 OFFCURVE",
"255.61 426.945 CURVE SMOOTH",
"235.647 425.753 OFFCURVE",
"215.637 425.706 OFFCURVE",
"196.008 420.506 CURVE SMOOTH",
"189.306 418.731 OFFCURVE",
"181.745 420.393 OFFCURVE",
"174.596 420.069 CURVE SMOOTH",
"160.732 419.44 OFFCURVE",
"153.11 411.521 OFFCURVE",
"152.266 397.591 CURVE SMOOTH",
"152.116 395.126 OFFCURVE",
"151.088 392.717 OFFCURVE",
"150.479 390.279 CURVE SMOOTH",
"147.316 377.617 OFFCURVE",
"144.158 364.953 OFFCURVE",
"140.374 349.785 CURVE"
);
}
);
width = 350;
}
);
unicode = 0045;
},
{
glyphname = F;
lastChange = "2020-11-21 14:55:35 +0000";
layers = (
{
layerId = "35B18FD4-EE95-4CAF-9F6E-40BA2ACEDFAA";
paths = (
{
closed = 1;
nodes = (
"363.777 621.966 OFFCURVE",
"365.651 619.896 OFFCURVE",
"367.515 619.906 CURVE",
"383.941 619.988 OFFCURVE",
"393.923 606.894 OFFCURVE",
"407.303 600.833 CURVE",
"408.864 590.052 OFFCURVE",
"424.634 586.387 OFFCURVE",
"421.018 572.627 CURVE",
"419.862 568.227 OFFCURVE",
"423.85 560.895 OFFCURVE",
"421.652 558.642 CURVE",
"414.746 551.561 OFFCURVE",
"406.669 544.929 OFFCURVE",
"397.833 540.592 CURVE",
"386.007 534.788 OFFCURVE",
"373.331 529.513 OFFCURVE",
"360.469 527.457 CURVE",
"352.348 526.159 OFFCURVE",
"346.602 518.539 OFFCURVE",
"336.975 521.057 CURVE",
"332.821 522.144 OFFCURVE",
"325.692 518.134 OFFCURVE",
"322.227 514.332 CURVE",
"313.84 505.132 OFFCURVE",
"304.341 508.815 OFFCURVE",
"295.496 510.979 CURVE",
"288.584 512.671 OFFCURVE",
"282.592 516.579 OFFCURVE",
"278.223 507.457 CURVE",
"277.739 506.446 OFFCURVE",
"275.25 506.107 OFFCURVE",
"273.646 505.967 CURVE",
"262.372 504.983 OFFCURVE",
"251.098 503.858 OFFCURVE",
"239.799 503.399 CURVE",
"236.102 503.249 OFFCURVE",
"232.285 505.785 OFFCURVE",
"228.6 505.594 CURVE",
"223.136 505.312 OFFCURVE",
"217.778 503.178 OFFCURVE",
"212.307 502.794 CURVE",
"207.054 502.426 OFFCURVE",
"200.914 501.709 OFFCURVE",
"196.578 503.92 CURVE",
"186.901 508.855 OFFCURVE",
"178.957 503.272 OFFCURVE",
"170.365 501.67 CURVE",
"167.482 501.132 OFFCURVE",
"164.759 499.673 OFFCURVE",
"161.998 498.547 CURVE",
"154.092 495.323 OFFCURVE",
"148.236 492.308 OFFCURVE",
"147.378 481.099 CURVE",
"146.248 466.324 OFFCURVE",
"140.546 451.895 OFFCURVE",
"136.75 437.333 CURVE",
"136.481 436.299 OFFCURVE",
"135.135 435.279 OFFCURVE",
"135.292 434.439 CURVE",
"138.733 415.978 OFFCURVE",
"132.593 398.787 OFFCURVE",
"128.81 381.209 CURVE",
"127.764 376.353 OFFCURVE",
"129.698 370.912 OFFCURVE",
"129.818 365.729 CURVE",
"129.919 361.365 OFFCURVE",
"129.382 356.985 OFFCURVE",
"129.109 352.613 CURVE",
"128.905 349.339 OFFCURVE",
"128.673 346.067 OFFCURVE",
"128.454 342.795 CURVE",
"130.935 343.095 OFFCURVE",
"133.446 343.244 OFFCURVE",
"135.893 343.719 CURVE",
"147.817 346.037 OFFCURVE",
"159.668 348.784 OFFCURVE",
"171.65 350.731 CURVE",
"187.858 353.365 OFFCURVE",
"204.138 355.603 OFFCURVE",
"220.432 357.649 CURVE",
"234.703 359.44 OFFCURVE",
"249.037 360.731 OFFCURVE",
"264.038 362.317 CURVE",
"262.927 353.749 OFFCURVE",
"267.465 351.869 OFFCURVE",
"272.541 352.467 CURVE",
"278.934 353.22 OFFCURVE",
"282.054 351.63 OFFCURVE",
"283.316 344.954 CURVE",
"283.76 342.605 OFFCURVE",
"287.752 340.928 OFFCURVE",
"291.002 338.209 CURVE",
"290.817 334.573 OFFCURVE",
"286.172 329.404 OFFCURVE",
"294.43 324.881 CURVE",
"299.637 322.029 OFFCURVE",
"292.389 319.174 OFFCURVE",
"289.991 316.723 CURVE",
"278.574 305.048 OFFCURVE",
"262.376 302.131 OFFCURVE",
"248.881 294.268 CURVE",
"237.034 287.365 OFFCURVE",
"225.568 279.711 OFFCURVE",
"213.314 273.641 CURVE",
"205.124 269.583 OFFCURVE",
"194.68 269.437 OFFCURVE",
"187.343 264.452 CURVE",
"177.329 257.647 OFFCURVE",
"167.34 257.604 OFFCURVE",
"156.351 257.904 CURVE",
"152.519 258.009 OFFCURVE",
"148.742 253.992 OFFCURVE",
"144.666 253.082 CURVE",
"141.12 252.289 OFFCURVE",
"136.574 252.037 OFFCURVE",
"133.542 253.611 CURVE",
"124.09 258.52 OFFCURVE",
"122.832 257.007 OFFCURVE",
"120.275 246.674 CURVE",
"115.915 229.058 OFFCURVE",
"118.431 211.344 OFFCURVE",
"116.924 193.77 CURVE",
"115.738 179.935 OFFCURVE",
"112.101 166.321 OFFCURVE",
"110.611 152.495 CURVE",
"109.573 142.862 OFFCURVE",
"110.654 133.02 OFFCURVE",
"110.183 123.302 CURVE",
"109.764 114.665 OFFCURVE",
"107.483 106.024 OFFCURVE",
"107.845 97.462 CURVE",
"108.562 80.463 OFFCURVE",
"104.839 63.54 OFFCURVE",
"106.995 46.651 CURVE",
"108.384 35.774 OFFCURVE",
"102.358 30.048 OFFCURVE",
"94.776 24.714 CURVE",
"85.23 17.998 OFFCURVE",
"75.745 11.413 OFFCURVE",
"63.728 9.324 CURVE",
"60.719 8.801 OFFCURVE",
"58.454 4.492 OFFCURVE",
"55.629 2.19 CURVE",
"54.264 1.077 OFFCURVE",
"52.119 -0.324 OFFCURVE",
"50.832 0.067 CURVE",
"49.563 0.452 OFFCURVE",
"48.006 3.045 OFFCURVE",
"48.175 4.481 CURVE",
"49.058 11.969 OFFCURVE",
"44.834 17.075 OFFCURVE",
"41.305 22.971 CURVE",
"37.021 30.132 OFFCURVE",
"34.246 38.232 OFFCURVE",
"31.141 46.054 CURVE",
"27.06 56.333 OFFCURVE",
"23.337 66.754 OFFCURVE",
"19.315 77.058 CURVE",
"18.984 77.905 OFFCURVE",
"17.546 78.321 OFFCURVE",
"16.018 79.34 CURVE",
"14.607 77.149 OFFCURVE",
"13.351 75.198 OFFCURVE",
"10.608 70.94 CURVE",
"8.744 77.971 OFFCURVE",
"5.254 83.712 OFFCURVE",
"6.516 88.081 CURVE",
"8.505 94.962 OFFCURVE",
"4.136 102.757 OFFCURVE",
"9.993 108.961 CURVE",
"10.616 109.621 OFFCURVE",
"8.851 114.016 OFFCURVE",
"7.178 115.078 CURVE",
"2.565 118.007 OFFCURVE",
"2.333 120.566 OFFCURVE",
"5.814 124.597 CURVE",
"10.59 130.124 OFFCURVE",
"12.435 136.363 OFFCURVE",
"10.766 143.979 CURVE",
"9.907 147.901 OFFCURVE",
"11.913 152.372 OFFCURVE",
"12.058 156.614 CURVE",
"12.216 161.234 OFFCURVE",
"11.712 165.875 OFFCURVE",
"11.51 170.508 CURVE",
"11.438 172.183 OFFCURVE",
"10.662 174.624 OFFCURVE",
"11.473 175.41 CURVE",
"16.937 180.704 OFFCURVE",
"13.382 187.642 OFFCURVE",
"14.945 192.851 CURVE",
"18.244 203.851 OFFCURVE",
"12.951 213.472 OFFCURVE",
"13.558 223.737 CURVE",
"13.689 225.972 OFFCURVE",
"11.824 228.325 OFFCURVE",
"10.879 230.624 CURVE",
"8.971 228.971 OFFCURVE",
"7.063 227.318 OFFCURVE",
"4.868 225.416 CURVE",
"-0.808 228.536 OFFCURVE",
"-0.593 228.437 OFFCURVE",
"2.09 234.323 CURVE",
"3.2 236.76 OFFCURVE",
"3.021 239.755 OFFCURVE",
"3.709 242.424 CURVE",
"4.159 244.167 OFFCURVE",
"4.753 246.886 OFFCURVE",
"5.904 247.261 CURVE",
"11.023 248.93 OFFCURVE",
"14.998 251.234 OFFCURVE",
"14.099 257.381 CURVE",
"13.481 261.603 OFFCURVE",
"12.274 265.739 OFFCURVE",
"11.13 270.796 CURVE",
"16.859 276.86 OFFCURVE",
"14.966 285.168 OFFCURVE",
"12.676 293.03 CURVE",
"10.311 301.148 OFFCURVE",
"9.73 307.12 OFFCURVE",
"17.82 313.423 CURVE",
"21.342 316.168 OFFCURVE",
"20.844 325.314 OFFCURVE",
"20.529 331.468 CURVE",
"19.972 342.325 OFFCURVE",
"18.148 353.116 OFFCURVE",
"16.871 363.936 CURVE",
"16.538 366.757 OFFCURVE",
"16.261 369.584 OFFCURVE",
"14.024 373.164 CURVE",
"12.53 369.274 OFFCURVE",
"11.037 365.383 OFFCURVE",
"9.543 361.493 CURVE",
"8.975 361.537 OFFCURVE",
"8.407 361.582 OFFCURVE",
"7.839 361.626 CURVE",
"7.606 366.485 OFFCURVE",
"7.379 371.345 OFFCURVE",
"7.138 376.204 CURVE",
"6.819 382.653 OFFCURVE",
"13.017 382.715 OFFCURVE",
"15.977 385.845 CURVE",
"19.786 389.873 OFFCURVE",
"22.824 394.829 OFFCURVE",
"22.645 402.217 CURVE",
"22.433 411.003 OFFCURVE",
"20.322 420.44 OFFCURVE",
"25.615 429.466 CURVE",
"29.004 435.244 OFFCURVE",
"29.464 442.963 OFFCURVE",
"30.372 449.924 CURVE",
"32.084 463.058 OFFCURVE",
"33.821 476.249 OFFCURVE",
"34.327 489.463 CURVE",
"34.787 501.483 OFFCURVE",
"37.647 512.497 OFFCURVE",
"42.959 523.163 CURVE",
"44.419 526.096 OFFCURVE",
"44.364 529.783 OFFCURVE",
"44.276 533.971 CURVE",
"40.469 528.702 OFFCURVE",
"37.02 524.231 OFFCURVE",
"30.625 532.67 CURVE",
"45.813 548.145 OFFCURVE",
"60.929 564.136 OFFCURVE",
"76.856 579.274 CURVE",
"80.025 582.286 OFFCURVE",
"86.511 581.514 OFFCURVE",
"91.095 583.394 CURVE",
"100.569 587.28 OFFCURVE",
"109.66 592.109 OFFCURVE",
"119.165 595.908 CURVE",
"125.725 598.53 OFFCURVE",
"132.596 600.832 OFFCURVE",
"139.542 601.932 CURVE",
"150.893 603.728 OFFCURVE",
"162.486 603.987 OFFCURVE",
"173.85 605.722 CURVE",
"183.922 607.26 OFFCURVE",
"193.801 610.026 OFFCURVE",
"203.81 612.025 CURVE",
"206.582 612.58 OFFCURVE",
"209.514 612.338 OFFCURVE",
"212.373 612.454 CURVE",
"241.031 613.612 OFFCURVE",
"269.91 613.052 OFFCURVE",
"298.248 616.698 CURVE",
"311.199 618.364 OFFCURVE",
"323.993 618.136 OFFCURVE",
"336.787 619.488 CURVE",
"339.518 619.777 OFFCURVE",
"342.062 621.831 OFFCURVE",
"344.693 623.072 CURVE",
"350.431 623.072 OFFCURVE",
"356.17 623.072 OFFCURVE",
"361.908 623.072 CURVE"
);
},
{
closed = 1;
nodes = (
"14.041 289.491 OFFCURVE",
"4.133 282.356 OFFCURVE",
"8.107 274.892 CURVE",
"0.343 279.047 OFFCURVE",
"0.343 279.047 OFFCURVE",
"4.963 297.233 CURVE"
);
}
);
width = 350;
}
);
unicode = 0046;
},
{
glyphname = G;
lastChange = "2020-11-21 14:55:41 +0000";
layers = (
{
layerId = "35B18FD4-EE95-4CAF-9F6E-40BA2ACEDFAA";
paths = (
{
closed = 1;
nodes = (
"376.101 287.188 OFFCURVE",
"373.958 285.801 OFFCURVE",
"373.601 284.049 CURVE SMOOTH",
"369.274 262.838 OFFCURVE",
"359.562 243.738 OFFCURVE",
"349.129 225.241 CURVE SMOOTH",
"341.35 211.448 OFFCURVE",
"334.667 197.064 OFFCURVE",
"323.796 184.72 CURVE SMOOTH",
"308.644 167.514 OFFCURVE",
"297.127 147.113 OFFCURVE",
"282.033 129.847 CURVE SMOOTH",
"260.557 105.282 OFFCURVE",
"238.276 81.191 OFFCURVE",
"214.21 59.232 CURVE SMOOTH",
"204.577 50.442 OFFCURVE",
"193.457 42.065 OFFCURVE",
"181.772 34.753 CURVE SMOOTH",
"168.849 26.667 OFFCURVE",
"157.654 15.064 OFFCURVE",
"143.347 8.431 CURVE SMOOTH",
"136.089 5.065 OFFCURVE",
"128.449 1.432 OFFCURVE",
"120.699 0.621 CURVE SMOOTH",
"115.979 0.127 OFFCURVE",
"110.833 5.08 OFFCURVE",
"105.664 7.014 CURVE SMOOTH",
"101.787 8.465 OFFCURVE",
"97.569 9.004 OFFCURVE",
"91.996 10.299 CURVE",
"93.519 5.585 OFFCURVE",
"94.267 3.271 OFFCURVE",
"95.324 0 CURVE",
"91.804 0 OFFCURVE",
"88.951 0 OFFCURVE",
"85.699 0 CURVE",
"85.475 1.135 OFFCURVE",
"84.822 2.351 OFFCURVE",
"85.126 3.239 CURVE SMOOTH",
"87.859 11.231 OFFCURVE",
"86.066 15.772 OFFCURVE",
"77.65 15.532 CURVE SMOOTH",
"64.9 15.167 OFFCURVE",
"59.808 24.509 OFFCURVE",
"54 32.138 CURVE SMOOTH",
"44.526 44.583 OFFCURVE",
"36.153 57.935 OFFCURVE",
"28.142 71.396 CURVE SMOOTH",
"24.191 78.035 OFFCURVE",
"21.633 85.629 OFFCURVE",
"19.278 93.056 CURVE SMOOTH",
"16.886 100.598 OFFCURVE",
"17.292 109.233 OFFCURVE",
"8.963 113.953 CURVE SMOOTH",
"7.557 114.75 OFFCURVE",
"6.469 117.495 OFFCURVE",
"6.55 119.28 CURVE SMOOTH",
"6.873 126.366 OFFCURVE",
"7.564 133.447 OFFCURVE",
"8.405 140.496 CURVE SMOOTH",
"9.583 150.361 OFFCURVE",
"12 160.186 OFFCURVE",
"12.101 170.047 CURVE SMOOTH",
"12.237 183.405 OFFCURVE",
"8.568 197.096 OFFCURVE",
"10.503 210.052 CURVE SMOOTH",
"12.117 220.857 OFFCURVE",
"8.847 229.322 OFFCURVE",
"6.013 238.185 CURVE",
"8.352 241.429 OFFCURVE",
"10.563 244.496 OFFCURVE",
"12.774 247.562 CURVE",
"12.309 247.903 OFFCURVE",
"11.844 248.243 OFFCURVE",
"11.378 248.583 CURVE",
"7.567 246.579 OFFCURVE",
"3.755 244.574 OFFCURVE",
"0.169 242.687 CURVE",
"0.725 249.765 OFFCURVE",
"1.487 255.586 OFFCURVE",
"1.58 261.418 CURVE SMOOTH",
"1.841 277.664 OFFCURVE",
"2.032 293.743 OFFCURVE",
"10.88 308.436 CURVE SMOOTH",
"13.688 313.1 OFFCURVE",
"14.168 319.135 OFFCURVE",
"15.923 324.474 CURVE SMOOTH",
"17.01 327.782 OFFCURVE",
"18.491 330.96 OFFCURVE",
"20.101 334.958 CURVE",
"22.705 331.339 OFFCURVE",
"24.559 328.762 OFFCURVE",
"27.469 324.719 CURVE",
"30.785 332.827 OFFCURVE",
"35.314 339.227 OFFCURVE",
"35.524 345.766 CURVE SMOOTH",
"35.723 351.96 OFFCURVE",
"31.393 358.3 OFFCURVE",
"28.136 367.044 CURVE",
"32.543 364.023 OFFCURVE",
"34.669 362.565 OFFCURVE",
"36.731 361.152 CURVE",
"49.212 372.142 OFFCURVE",
"43.895 384.56 OFFCURVE",
"40.183 396.686 CURVE",
"43.292 397.434 OFFCURVE",
"47.813 397.328 OFFCURVE",
"48.614 399.002 CURVE SMOOTH",
"49.743 401.361 OFFCURVE",
"48.118 405.039 OFFCURVE",
"47.663 408.199 CURVE",
"60.011 411.021 OFFCURVE",
"64.248 420.836 OFFCURVE",
"57.822 432.671 CURVE SMOOTH",
"53.156 441.264 OFFCURVE",
"59.132 454.216 OFFCURVE",
"68.171 455.708 CURVE SMOOTH",
"69.127 455.866 OFFCURVE",
"70.246 458.88 OFFCURVE",
"70.145 460.498 CURVE SMOOTH",
"70.048 462.052 OFFCURVE",
"68.462 463.512 OFFCURVE",
"66.271 467.046 CURVE",
"70.272 465.676 OFFCURVE",
"71.948 464.773 OFFCURVE",
"73.698 464.593 CURVE SMOOTH",
"75.577 464.4 OFFCURVE",
"79.022 464.469 OFFCURVE",
"79.209 465.14 CURVE SMOOTH",
"80.798 470.848 OFFCURVE",
"84.191 477.599 OFFCURVE",
"82.446 482.348 CURVE SMOOTH",
"79.436 490.533 OFFCURVE",
"84.242 493.843 OFFCURVE",
"88.337 498.138 CURVE SMOOTH",
"90.159 500.049 OFFCURVE",
"92.748 501.228 OFFCURVE",
"96.005 503.424 CURVE",
"91.853 506.339 OFFCURVE",
"88.788 508.491 OFFCURVE",
"85.46 510.828 CURVE",
"85.91 523.151 OFFCURVE",
"97.093 535.294 OFFCURVE",
"110.366 533.3 CURVE",
"113.404 540.879 OFFCURVE",
"115.451 549.137 OFFCURVE",
"119.832 555.878 CURVE SMOOTH",
"123.087 560.886 OFFCURVE",
"129.412 563.874 OFFCURVE",
"134.279 567.873 CURVE SMOOTH",
"135.994 569.282 OFFCURVE",
"138.418 570.791 OFFCURVE",
"138.852 572.644 CURVE SMOOTH",
"142.513 588.285 OFFCURVE",
"157.447 591.036 OFFCURVE",
"168.149 598.445 CURVE SMOOTH",
"177.08 604.627 OFFCURVE",
"186.71 609.792 OFFCURVE",
"195.971 615.503 CURVE SMOOTH",
"211.624 625.157 OFFCURVE",
"226.54 636.344 OFFCURVE",
"243.057 644.157 CURVE SMOOTH",
"258.229 651.333 OFFCURVE",
"273.423 660.354 OFFCURVE",
"291.116 660.345 CURVE SMOOTH",
"314.905 660.333 OFFCURVE",
"334.638 651.945 OFFCURVE",
"347.561 630.913 CURVE SMOOTH",
"353.815 620.733 OFFCURVE",
"360.08 610.545 OFFCURVE",
"365.801 600.065 CURVE SMOOTH",
"367.329 597.267 OFFCURVE",
"367.472 593.337 OFFCURVE",
"367.216 590.006 CURVE SMOOTH",
"366.09 575.373 OFFCURVE",
"364.838 560.737 OFFCURVE",
"363.051 546.174 CURVE SMOOTH",
"362.571 542.259 OFFCURVE",
"360.099 538.572 OFFCURVE",
"358.446 534.822 CURVE SMOOTH",
"354.223 525.244 OFFCURVE",
"350.838 515.145 OFFCURVE",
"345.425 506.289 CURVE SMOOTH",
"340.666 498.503 OFFCURVE",
"334.064 491.643 OFFCURVE",
"327.379 485.322 CURVE SMOOTH",
"324.115 482.235 OFFCURVE",
"319.15 480.546 OFFCURVE",
"314.729 485.876 CURVE SMOOTH",
"312.351 488.744 OFFCURVE",
"308.248 490.181 OFFCURVE",
"304.689 492.41 CURVE",
"306.098 494.867 OFFCURVE",
"307.304 496.972 OFFCURVE",
"309.323 500.495 CURVE",
"304.634 502.345 OFFCURVE",
"300.382 503.977 OFFCURVE",
"296.169 505.702 CURVE SMOOTH",
"293.535 506.78 OFFCURVE",
"289.145 507.596 OFFCURVE",
"288.775 509.251 CURVE SMOOTH",
"288.199 511.828 OFFCURVE",
"290.207 515.092 OFFCURVE",
"291.445 517.921 CURVE SMOOTH",
"292.172 519.581 OFFCURVE",
"294.294 520.873 OFFCURVE",
"294.484 522.483 CURVE SMOOTH",
"295.976 535.19 OFFCURVE",
"297.306 547.921 OFFCURVE",
"298.364 560.672 CURVE SMOOTH",
"298.882 566.916 OFFCURVE",
"296.955 569.866 OFFCURVE",
"290.58 565.202 CURVE SMOOTH",
"289.129 564.14 OFFCURVE",
"286.062 563.171 OFFCURVE",
"285.08 563.919 CURVE SMOOTH",
"276.429 570.513 OFFCURVE",
"269.605 562.853 OFFCURVE",
"264.686 559.359 CURVE SMOOTH",
"243.102 544.031 OFFCURVE",
"221.794 528.064 OFFCURVE",
"202.14 510.379 CURVE SMOOTH",
"192.973 502.131 OFFCURVE",
"187.647 489.544 OFFCURVE",
"180.846 478.755 CURVE SMOOTH",
"171.98 464.688 OFFCURVE",
"163.272 450.517 OFFCURVE",
"154.754 436.237 CURVE SMOOTH",
"153.094 433.455 OFFCURVE",
"152.594 429.975 OFFCURVE",
"151.597 426.805 CURVE SMOOTH",
"148.71 417.632 OFFCURVE",
"146.083 408.368 OFFCURVE",
"142.867 399.313 CURVE SMOOTH",
"141.229 394.701 OFFCURVE",
"138.073 390.625 OFFCURVE",
"136.446 386.011 CURVE SMOOTH",
"134.081 379.302 OFFCURVE",
"132.661 372.267 OFFCURVE",
"130.508 365.475 CURVE SMOOTH",
"126.34 352.332 OFFCURVE",
"120.206 339.539 OFFCURVE",
"118.066 326.095 CURVE SMOOTH",
"115.173 307.926 OFFCURVE",
"107.239 291.18 OFFCURVE",
"105.268 272.848 CURVE SMOOTH",
"103.537 256.747 OFFCURVE",
"101.958 240.425 OFFCURVE",
"97.885 224.836 CURVE SMOOTH",
"93.1 206.524 OFFCURVE",
"95.194 188.25 OFFCURVE",
"95.07 170.006 CURVE SMOOTH",
"94.963 154.344 OFFCURVE",
"96.966 138.636 OFFCURVE",
"98.625 123.011 CURVE SMOOTH",
"99.196 117.637 OFFCURVE",
"101.547 112.451 OFFCURVE",
"103.791 104.759 CURVE",
"108.766 107.006 OFFCURVE",
"114.431 108.704 OFFCURVE",
"119.071 111.893 CURVE SMOOTH",
"124.083 115.339 OFFCURVE",
"127.775 119.872 OFFCURVE",
"134.908 120.411 CURVE SMOOTH",
"138.818 120.706 OFFCURVE",
"142.667 125.429 OFFCURVE",
"146.019 128.694 CURVE SMOOTH",
"151.361 133.898 OFFCURVE",
"155.297 141.62 OFFCURVE",
"161.57 144.557 CURVE SMOOTH",
"172.359 149.611 OFFCURVE",
"175.194 159.883 OFFCURVE",
"180.593 168.246 CURVE SMOOTH",
"185.411 175.709 OFFCURVE",
"189.664 181.742 OFFCURVE",
"199.493 182.103 CURVE SMOOTH",
"208.254 182.425 OFFCURVE",
"212.26 190.201 OFFCURVE",
"213.901 199.993 CURVE SMOOTH",
"214.738 204.984 OFFCURVE",
"221.457 208.953 OFFCURVE",
"225.424 213.465 CURVE SMOOTH",
"228.956 217.482 OFFCURVE",
"233.019 221.238 OFFCURVE",
"235.617 225.809 CURVE SMOOTH",
"237.766 229.591 OFFCURVE",
"238.546 234.34 OFFCURVE",
"239.104 238.766 CURVE SMOOTH",
"239.427 241.328 OFFCURVE",
"238.832 245.79 OFFCURVE",
"237.376 246.411 CURVE SMOOTH",
"234.576 247.605 OFFCURVE",
"229.593 248.071 OFFCURVE",
"227.76 246.391 CURVE SMOOTH",
"219.287 238.626 OFFCURVE",
"209.239 240.361 OFFCURVE",
"199.4 240.225 CURVE SMOOTH",
"192.714 240.133 OFFCURVE",
"187.427 242.197 OFFCURVE",
"183.937 248.491 CURVE SMOOTH",
"183.063 250.066 OFFCURVE",
"178.715 251.7 OFFCURVE",
"177.884 251.006 CURVE SMOOTH",
"169.681 244.159 OFFCURVE",
"161.602 250.442 OFFCURVE",
"154.758 252.54 CURVE SMOOTH",
"149.688 254.094 OFFCURVE",
"146.512 262.278 OFFCURVE",
"142.82 267.73 CURVE SMOOTH",
"139.585 272.507 OFFCURVE",
"135.664 277.274 OFFCURVE",
"134.169 282.637 CURVE SMOOTH",
"132.865 287.313 OFFCURVE",
"132.781 294.018 OFFCURVE",
"135.296 297.66 CURVE SMOOTH",
"138.74 302.649 OFFCURVE",
"145.23 305.49 OFFCURVE",
"150.27 309.436 CURVE SMOOTH",
"155.99 313.913 OFFCURVE",
"162.445 317.847 OFFCURVE",
"167.012 323.324 CURVE SMOOTH",
"180.645 339.676 OFFCURVE",
"199.236 345.75 OFFCURVE",
"218.781 350.554 CURVE SMOOTH",
"226.014 352.332 OFFCURVE",
"233.037 354.995 OFFCURVE",
"240.106 357.4 CURVE SMOOTH",
"249.681 360.661 OFFCURVE",
"259.007 364.937 OFFCURVE",
"268.805 367.194 CURVE SMOOTH",
"282.928 370.448 OFFCURVE",
"297.312 373.617 OFFCURVE",
"311.709 374.335 CURVE SMOOTH",
"325.429 375.019 OFFCURVE",
"338.66 372.076 OFFCURVE",
"346.953 358.143 CURVE SMOOTH",
"351.8 350 OFFCURVE",
"359.779 343.751 OFFCURVE",
"364.864 335.711 CURVE SMOOTH",
"369.071 329.059 OFFCURVE",
"371.019 320.995 OFFCURVE",
"374.183 313.648 CURVE SMOOTH",
"374.657 312.547 OFFCURVE",
"376.307 311.953 OFFCURVE",
"377.414 311.125 CURVE",
"377.414 303.665 OFFCURVE",
"377.414 296.205 OFFCURVE",
"377.414 288.745 CURVE"
);
}
);
width = 380;
}
);
unicode = 0047;
},
{
glyphname = H;
lastChange = "2020-11-21 14:55:46 +0000";
layers = (
{
layerId = "35B18FD4-EE95-4CAF-9F6E-40BA2ACEDFAA";
paths = (
{
closed = 1;
nodes = (
"121.794 293.032 OFFCURVE",
"134.294 297.138 OFFCURVE",
"146.955 300.66 CURVE SMOOTH",
"157.297 303.536 OFFCURVE",
"167.731 306.362 OFFCURVE",
"178.31 308.032 CURVE SMOOTH",
"190.139 309.899 OFFCURVE",
"202.193 310.316 OFFCURVE",
"214.111 311.689 CURVE SMOOTH",
"215.884 311.893 OFFCURVE",
"218.643 313.659 OFFCURVE",
"218.906 315.079 CURVE SMOOTH",
"219.994 320.969 OFFCURVE",
"220.162 327.02 OFFCURVE",
"220.918 332.981 CURVE SMOOTH",
"223.182 350.825 OFFCURVE",
"225.588 368.65 OFFCURVE",
"227.865 386.492 CURVE SMOOTH",
"228.154 388.757 OFFCURVE",
"227.952 391.081 OFFCURVE",
"228.071 393.373 CURVE SMOOTH",
"229.202 415.222 OFFCURVE",
"229.899 437.107 OFFCURVE",
"231.708 458.9 CURVE SMOOTH",
"232.511 468.576 OFFCURVE",
"235.662 478.046 OFFCURVE",
"237.538 487.651 CURVE SMOOTH",
"237.952 489.769 OFFCURVE",
"237.799 492.128 OFFCURVE",
"237.353 494.259 CURVE SMOOTH",
"235.458 503.301 OFFCURVE",
"230.137 512.532 OFFCURVE",
"240.759 520.182 CURVE SMOOTH",
"243.613 522.238 OFFCURVE",
"243.421 546.69 OFFCURVE",
"240.703 548.6 CURVE SMOOTH",
"238.506 550.144 OFFCURVE",
"235.129 550.008 OFFCURVE",
"232.174 550.638 CURVE",
"231.054 560.182 OFFCURVE",
"235.096 567.483 OFFCURVE",
"242.78 572.415 CURVE SMOOTH",
"245.461 574.137 OFFCURVE",
"246.491 578.43 OFFCURVE",
"248.275 581.548 CURVE",
"245.578 582.644 OFFCURVE",
"242.881 583.741 OFFCURVE",
"238.558 585.499 CURVE",
"236.83 589.53 OFFCURVE",
"239.145 593.687 OFFCURVE",
"244.044 597.259 CURVE SMOOTH",
"246.998 599.414 OFFCURVE",
"249.186 602.982 OFFCURVE",
"252.387 604.35 CURVE SMOOTH",
"257.382 606.483 OFFCURVE",
"262.876 607.829 OFFCURVE",
"268.284 608.503 CURVE SMOOTH",
"273.773 609.188 OFFCURVE",
"279.414 608.654 OFFCURVE",
"286.817 608.654 CURVE",
"290.907 602.735 OFFCURVE",
"297.436 595.592 OFFCURVE",
"301.165 587.204 CURVE SMOOTH",
"304.464 579.78 OFFCURVE",
"304.824 570.999 OFFCURVE",
"306.131 562.761 CURVE SMOOTH",
"306.789 558.613 OFFCURVE",
"307.055 554.317 OFFCURVE",
"306.805 550.13 CURVE SMOOTH",
"306.45 544.172 OFFCURVE",
"305.18 538.269 OFFCURVE",
"304.8 532.311 CURVE SMOOTH",
"304.246 523.632 OFFCURVE",
"304.681 514.864 OFFCURVE",
"303.711 506.245 CURVE SMOOTH",
"302.177 492.62 OFFCURVE",
"299.259 479.139 OFFCURVE",
"297.993 465.498 CURVE SMOOTH",
"296.887 453.582 OFFCURVE",
"297.332 441.528 OFFCURVE",
"296.95 429.539 CURVE SMOOTH",
"295.901 396.599 OFFCURVE",
"294.762 363.661 OFFCURVE",
"293.689 330.722 CURVE SMOOTH",
"293.187 315.324 OFFCURVE",
"292.72 299.925 OFFCURVE",
"292.296 284.526 CURVE SMOOTH",
"291.522 256.457 OFFCURVE",
"291.512 228.339 OFFCURVE",
"289.593 200.351 CURVE SMOOTH",
"289.036 192.238 OFFCURVE",
"290.423 184.494 OFFCURVE",
"290.025 176.603 CURVE SMOOTH",
"289.005 156.37 OFFCURVE",
"288.718 136.028 OFFCURVE",
"286.266 115.959 CURVE SMOOTH",
"284.134 98.517 OFFCURVE",
"281.659 80.533 OFFCURVE",
"269.334 66.448 CURVE SMOOTH",
"266.586 63.309 OFFCURVE",
"262.327 61.334 OFFCURVE",
"258.501 59.323 CURVE SMOOTH",
"241.558 50.417 OFFCURVE",
"221.799 57.682 OFFCURVE",
"214.455 75.111 CURVE SMOOTH",
"213.379 77.666 OFFCURVE",
"210.866 79.599 OFFCURVE",
"209.101 81.883 CURVE SMOOTH",
"207.285 84.233 OFFCURVE",
"205.498 86.613 OFFCURVE",
"203.84 89.075 CURVE SMOOTH",
"202.742 90.706 OFFCURVE",
"202.327 93.33 OFFCURVE",
"200.864 94.1 CURVE SMOOTH",
"189.566 100.05 OFFCURVE",
"189.781 109.97 OFFCURVE",
"191.064 117.544 CURVE",
"195.291 123.305 OFFCURVE",
"197.953 127.094 OFFCURVE",
"200.788 130.749 CURVE SMOOTH",
"203.144 133.787 OFFCURVE",
"205.761 136.621 OFFCURVE",
"208.143 139.639 CURVE SMOOTH",
"209.12 140.877 OFFCURVE",
"210.538 142.401 OFFCURVE",
"210.469 143.728 CURVE SMOOTH",
"209.937 153.921 OFFCURVE",
"209.159 164.103 OFFCURVE",
"208.309 174.276 CURVE SMOOTH",
"207.861 179.644 OFFCURVE",
"207.115 184.986 OFFCURVE",
"206.478 190.572 CURVE",
"203.623 190.966 OFFCURVE",
"201.142 191.308 OFFCURVE",
"198.716 191.643 CURVE",
"197.824 200.64 OFFCURVE",
"197.922 200.254 OFFCURVE",
"206.478 200.396 CURVE SMOOTH",
"208.99 200.438 OFFCURVE",
"212.872 203.598 OFFCURVE",
"213.67 206.109 CURVE SMOOTH",
"216.809 215.993 OFFCURVE",
"215.009 225.597 OFFCURVE",
"210.49 234.273 CURVE",
"199.17 231.443 OFFCURVE",
"188.634 228.518 OFFCURVE",
"177.949 226.311 CURVE SMOOTH",
"174.613 225.622 OFFCURVE",
"170.716 227.704 OFFCURVE",
"167.355 227.059 CURVE SMOOTH",
"161.226 225.882 OFFCURVE",
"155.364 223.383 OFFCURVE",
"149.282 221.872 CURVE SMOOTH",
"143.635 220.469 OFFCURVE",
"137.887 219.232 OFFCURVE",
"132.11 218.646 CURVE SMOOTH",
"123.362 217.758 OFFCURVE",
"116.455 214.665 OFFCURVE",
"113.349 206.174 CURVE",
"110.934 207.93 OFFCURVE",
"108.458 209.73 OFFCURVE",
"105.983 211.531 CURVE",
"104.195 208.041 OFFCURVE",
"101.433 204.721 OFFCURVE",
"100.788 201.031 CURVE SMOOTH",
"98.177 186.075 OFFCURVE",
"96.145 171.014 OFFCURVE",
"94.07 155.968 CURVE SMOOTH",
"93.603 152.582 OFFCURVE",
"94.188 149.043 OFFCURVE",
"93.659 145.673 CURVE SMOOTH",
"91.767 133.639 OFFCURVE",
"89.618 121.645 OFFCURVE",
"87.538 109.641 CURVE SMOOTH",
"86.24 102.151 OFFCURVE",
"85.556 94.475 OFFCURVE",
"83.429 87.224 CURVE SMOOTH",
"79.042 72.269 OFFCURVE",
"74.297 57.387 OFFCURVE",
"68.884 42.776 CURVE SMOOTH",
"64.954 32.167 OFFCURVE",
"61.101 21.036 OFFCURVE",
"54.576 12.054 CURVE SMOOTH",
"50.148 5.96 OFFCURVE",
"41.009 -0.266 OFFCURVE",
"34.238 0.009 CURVE SMOOTH",
"28.69 0.234 OFFCURVE",
"21.492 9.097 OFFCURVE",
"18.673 15.69 CURVE SMOOTH",
"14.521 25.403 OFFCURVE",
"12.176 36.427 OFFCURVE",
"11.625 47.026 CURVE SMOOTH",
"10.514 68.436 OFFCURVE",
"10.866 89.939 OFFCURVE",
"11.175 111.396 CURVE SMOOTH",
"11.28 118.628 OFFCURVE",
"13.677 125.821 OFFCURVE",
"13.862 133.062 CURVE SMOOTH",
"13.962 136.955 OFFCURVE",
"12.217 141.316 OFFCURVE",
"10.045 144.642 CURVE SMOOTH",
"9.136 146.034 OFFCURVE",
"4.955 145.289 OFFCURVE",
"1.102 145.613 CURVE",
"-1.622 159.573 OFFCURVE",
"2.128 173.687 OFFCURVE",
"12.788 190.892 CURVE",
"14.273 188.213 OFFCURVE",
"15.759 185.535 OFFCURVE",
"17.354 182.659 CURVE",
"25.206 186.539 OFFCURVE",
"25.361 194.87 OFFCURVE",
"24.91 203.726 CURVE SMOOTH",
"24.493 211.929 OFFCURVE",
"25.465 220.309 OFFCURVE",
"16.153 224.99 CURVE SMOOTH",
"14.84 225.65 OFFCURVE",
"15.047 229.331 OFFCURVE",
"14.551 231.613 CURVE",
"15.804 232.595 OFFCURVE",
"17.058 233.576 OFFCURVE",
"18.312 234.558 CURVE",
"20.548 232.033 OFFCURVE",
"22.784 229.508 OFFCURVE",
"25.479 226.466 CURVE",
"31.141 229.507 OFFCURVE",
"34.037 239.679 OFFCURVE",
"30.513 248.697 CURVE SMOOTH",
"29.621 250.978 OFFCURVE",
"30.235 254.117 OFFCURVE",
"30.889 256.676 CURVE SMOOTH",
"32.011 261.071 OFFCURVE",
"34.335 265.219 OFFCURVE",
"35.051 269.648 CURVE SMOOTH",
"37.606 285.463 OFFCURVE",
"39.862 301.332 OFFCURVE",
"41.868 317.227 CURVE SMOOTH",
"42.51 322.315 OFFCURVE",
"42.29 327.56 OFFCURVE",
"42.01 332.709 CURVE SMOOTH",
"41.07 349.952 OFFCURVE",
"44.982 366.086 OFFCURVE",
"51.731 381.873 CURVE SMOOTH",
"53.392 385.759 OFFCURVE",
"51.586 390.987 OFFCURVE",
"52.214 395.48 CURVE SMOOTH",
"54.115 409.073 OFFCURVE",
"56.452 422.605 OFFCURVE",
"58.56 436.171 CURVE SMOOTH",
"58.908 438.416 OFFCURVE",
"59.367 440.76 OFFCURVE",
"59.081 442.968 CURVE SMOOTH",
"57.615 454.307 OFFCURVE",
"59.283 464.789 OFFCURVE",
"65.225 474.857 CURVE SMOOTH",
"67.031 477.919 OFFCURVE",
"66.13 482.693 OFFCURVE",
"66.137 486.683 CURVE SMOOTH",
"66.162 501.772 OFFCURVE",
"71.286 508.917 OFFCURVE",
"85.511 513.814 CURVE SMOOTH",
"90.308 515.466 OFFCURVE",
"95.663 516.656 OFFCURVE",
"99.499 519.667 CURVE SMOOTH",
"104.906 523.911 OFFCURVE",
"107.039 519.779 OFFCURVE",
"110.075 517.189 CURVE SMOOTH",
"112.994 514.7 OFFCURVE",
"115.815 512.094 OFFCURVE",
"120.271 508.12 CURVE",
"123.663 501.592 OFFCURVE",
"128.473 492.939 OFFCURVE",
"132.647 483.989 CURVE SMOOTH",
"134.199 480.66 OFFCURVE",
"135.586 476.315 OFFCURVE",
"134.78 472.982 CURVE SMOOTH",
"130.777 456.432 OFFCURVE",
"126.014 440.065 OFFCURVE",
"121.534 423.63 CURVE SMOOTH",
"121.384 423.082 OFFCURVE",
"121.375 422.494 OFFCURVE",
"121.327 421.923 CURVE SMOOTH",
"120.062 406.991 OFFCURVE",
"118.693 392.067 OFFCURVE",
"117.566 377.125 CURVE SMOOTH",
"116.354 361.06 OFFCURVE",
"115.755 344.939 OFFCURVE",
"114.163 328.915 CURVE SMOOTH",
"112.885 316.045 OFFCURVE",
"110.522 303.284 OFFCURVE",
"108.414 288.93 CURVE"
);
}
);
width = 300;
}
);
unicode = 0048;
},
{
glyphname = I;
lastChange = "2020-11-21 14:55:49 +0000";
layers = (
{
layerId = "35B18FD4-EE95-4CAF-9F6E-40BA2ACEDFAA";
paths = (
{
closed = 1;
nodes = (
"157.274 490.499 OFFCURVE",
"155.077 488.624 OFFCURVE",
"154.969 486.636 CURVE",
"153.581 461.083 OFFCURVE",
"152.667 435.503 OFFCURVE",
"151.258 409.952 CURVE",
"150.457 395.424 OFFCURVE",
"150.468 380.601 OFFCURVE",
"147.338 366.528 CURVE",
"144.623 354.317 OFFCURVE",
"144.478 342.446 OFFCURVE",
"144.055 330.21 CURVE",
"143.678 319.299 OFFCURVE",
"140.141 308.5 OFFCURVE",
"138.022 297.647 CURVE",
"137.804 296.528 OFFCURVE",
"137.713 295.381 OFFCURVE",
"137.627 294.242 CURVE",
"136.429 278.42 OFFCURVE",
"135.799 262.53 OFFCURVE",
"133.876 246.797 CURVE",
"132.353 234.339 OFFCURVE",
"129 222.116 OFFCURVE",
"126.909 209.712 CURVE",
"124.469 195.244 OFFCURVE",
"122.87 180.629 OFFCURVE",
"120.251 166.197 CURVE",
"117.771 152.528 OFFCURVE",
"114.313 139.039 OFFCURVE",
"111.565 125.415 CURVE",
"110.654 120.901 OFFCURVE",
"110.857 116.172 OFFCURVE",
"110.125 111.61 CURVE",
"108.016 98.454 OFFCURVE",
"106.115 85.24 OFFCURVE",
"103.313 72.226 CURVE",
"101.082 61.865 OFFCURVE",
"97.724 51.74 OFFCURVE",
"94.711 41.556 CURVE",
"93.086 36.063 OFFCURVE",
"91.838 30.282 OFFCURVE",
"89.141 25.328 CURVE",
"86.24 20.001 OFFCURVE",
"82.074 15.286 OFFCURVE",
"78.046 10.666 CURVE",
"69.712 1.105 OFFCURVE",
"58.499 -0.725 OFFCURVE",
"46.673 0.222 CURVE",
"44.229 0.418 OFFCURVE",
"41.042 2.198 OFFCURVE",
"39.762 4.232 CURVE",
"33.909 13.537 OFFCURVE",
"28.096 22.938 OFFCURVE",
"23.277 32.797 CURVE",
"19.284 40.966 OFFCURVE",
"16.126 49.664 OFFCURVE",
"13.677 58.428 CURVE",
"11.79 65.182 OFFCURVE",
"9.602 70.286 OFFCURVE",
"1.445 69.253 CURVE",
"-3.182 78.88 OFFCURVE",
"1.822 87.237 OFFCURVE",
"4.331 95.709 CURVE",
"4.678 96.879 OFFCURVE",
"8.381 97.302 OFFCURVE",
"10.595 97.612 CURVE",
"13.585 98.031 OFFCURVE",
"18.453 96.932 OFFCURVE",
"19.311 98.382 CURVE",
"21.559 102.177 OFFCURVE",
"23.004 107.009 OFFCURVE",
"22.975 111.415 CURVE",
"22.951 114.969 OFFCURVE",
"20.311 118.506 OFFCURVE",
"18.78 122.175 CURVE",
"11.972 118.916 OFFCURVE",
"9.311 122.042 OFFCURVE",
"10.756 128.791 CURVE",
"12.183 135.461 OFFCURVE",
"14.783 141.875 OFFCURVE",
"16.682 148.455 CURVE",
"17.215 150.298 OFFCURVE",
"17.415 152.364 OFFCURVE",
"17.219 154.271 CURVE",
"15.769 168.421 OFFCURVE",
"18.616 181.878 OFFCURVE",
"24.216 194.715 CURVE",
"25.209 196.992 OFFCURVE",
"28.913 199.514 OFFCURVE",
"31.335 199.484 CURVE",
"39.971 199.375 OFFCURVE",
"43.937 202.827 OFFCURVE",
"44.618 212.143 CURVE",
"45.568 225.152 OFFCURVE",
"45.245 238.502 OFFCURVE",
"48.237 251.045 CURVE",
"51.114 263.103 OFFCURVE",
"55.568 274.689 OFFCURVE",
"55.547 287.366 CURVE",
"55.535 294.654 OFFCURVE",
"56.214 301.951 OFFCURVE",
"56.783 309.228 CURVE",
"56.92 310.992 OFFCURVE",
"57.772 312.725 OFFCURVE",
"58.434 314.417 CURVE",
"59.469 317.059 OFFCURVE",
"61.439 319.606 OFFCURVE",
"61.598 322.277 CURVE",
"63.14 348.113 OFFCURVE",
"71.795 373.251 OFFCURVE",
"68.932 399.546 CURVE",
"68.233 405.964 OFFCURVE",
"67.988 411.512 OFFCURVE",
"58.109 409.225 CURVE",
"58.053 410.19 OFFCURVE",
"57.997 411.156 OFFCURVE",
"57.942 412.122 CURVE",
"59.753 413.468 OFFCURVE",
"61.556 415.954 OFFCURVE",
"63.377 415.968 CURVE",
"72.431 416.036 OFFCURVE",
"74.272 422.518 OFFCURVE",
"75.63 429.186 CURVE",
"76.953 435.683 OFFCURVE",
"77.642 442.314 OFFCURVE",
"78.518 448.898 CURVE",
"79.898 459.262 OFFCURVE",
"80.196 469.896 OFFCURVE",
"82.789 479.94 CURVE",
"86.044 492.546 OFFCURVE",
"86.431 504.902 OFFCURVE",
"84.39 517.552 CURVE",
"84.306 518.075 OFFCURVE",
"84.5 518.712 OFFCURVE",
"84.745 519.207 CURVE",
"89.996 529.832 OFFCURVE",
"91.564 544.072 OFFCURVE",
"101.681 549.933 CURVE",
"109.899 554.693 OFFCURVE",
"122 553.175 OFFCURVE",
"132.394 553.335 CURVE",
"134.099 553.361 OFFCURVE",
"135.603 547.45 OFFCURVE",
"137.721 544.683 CURVE",
"140.005 541.698 OFFCURVE",
"142.997 539.265 OFFCURVE",
"145.488 536.423 CURVE",
"146.52 535.245 OFFCURVE",
"147.848 533.529 OFFCURVE",
"147.684 532.23 CURVE",
"146.562 523.369 OFFCURVE",
"152.625 519.189 OFFCURVE",
"158.501 514.806 CURVE",
"158.501 507.346 OFFCURVE",
"158.501 499.886 OFFCURVE",
"158.501 492.426 CURVE"
);
},
{
closed = 1;
nodes = (
"18.901 158.429 OFFCURVE",
"20.153 151.734 OFFCURVE",
"22.041 144.907 CURVE",
"26.882 150.324 OFFCURVE",
"30.991 155.896 OFFCURVE",
"26.079 164.094 CURVE"
);
}
);
width = 200;
}
);
unicode = 0049;
},
{
glyphname = J;
lastChange = "2020-11-21 14:55:57 +0000";
layers = (
{
layerId = "35B18FD4-EE95-4CAF-9F6E-40BA2ACEDFAA";
paths = (
{
closed = 1;
nodes = (
"369.77 536.715 OFFCURVE",
"365.969 534.04 OFFCURVE",
"365.319 530.743 CURVE SMOOTH",
"362.391 515.89 OFFCURVE",
"360.403 500.853 OFFCURVE",
"357.987 485.896 CURVE SMOOTH",
"355.219 468.758 OFFCURVE",
"351.922 451.691 OFFCURVE",
"349.749 434.479 CURVE SMOOTH",
"348.868 427.505 OFFCURVE",
"350.856 420.215 OFFCURVE",
"350.593 413.103 CURVE SMOOTH",
"350.384 407.443 OFFCURVE",
"348.319 401.873 OFFCURVE",
"347.8 396.197 CURVE SMOOTH",
"345.322 369.118 OFFCURVE",
"343.179 342.009 OFFCURVE",
"340.722 314.929 CURVE SMOOTH",
"339.915 306.025 OFFCURVE",
"340.102 296.584 OFFCURVE",
"337.055 288.427 CURVE SMOOTH",
"331.487 273.521 OFFCURVE",
"338.119 256.574 OFFCURVE",
"328.141 242.488 CURVE SMOOTH",
"326.038 239.519 OFFCURVE",
"327.668 234.084 OFFCURVE",
"327.003 229.875 CURVE SMOOTH",
"325.97 223.336 OFFCURVE",
"324.7 216.809 OFFCURVE",
"323.058 210.398 CURVE SMOOTH",
"321.296 203.514 OFFCURVE",
"318.995 196.769 OFFCURVE",
"316.914 189.967 CURVE SMOOTH",
"315.221 184.432 OFFCURVE",
"313.696 178.835 OFFCURVE",
"311.752 173.388 CURVE SMOOTH",
"309.056 165.835 OFFCURVE",
"306.106 158.369 OFFCURVE",
"303.139 150.915 CURVE SMOOTH",
"299.342 141.38 OFFCURVE",
"296.575 131.191 OFFCURVE",
"291.307 122.536 CURVE SMOOTH",
"281.006 105.608 OFFCURVE",
"270.651 88.352 OFFCURVE",
"257.705 73.51 CURVE SMOOTH",
"247.452 61.755 OFFCURVE",
"233.338 53.351 OFFCURVE",
"220.862 43.555 CURVE SMOOTH",
"213.362 37.667 OFFCURVE",
"204.894 32.758 OFFCURVE",
"198.348 25.974 CURVE SMOOTH",
"190.461 17.798 OFFCURVE",
"181.5 15.453 OFFCURVE",
"171.054 16.97 CURVE SMOOTH",
"166.042 17.698 OFFCURVE",
"163.543 16.409 OFFCURVE",
"161.035 11.774 CURVE SMOOTH",
"159.332 8.627 OFFCURVE",
"155.027 5.97 OFFCURVE",
"151.371 4.963 CURVE SMOOTH",
"138.36 1.379 OFFCURVE",
"124.915 -2.604 OFFCURVE",
"111.641 2.252 CURVE SMOOTH",
"105.863 4.365 OFFCURVE",
"101.266 9.855 OFFCURVE",
"96.528 14.238 CURVE SMOOTH",
"96.293 14.455 OFFCURVE",
"99.847 18.767 OFFCURVE",
"102.849 22.802 CURVE",
"97.31 24.51 OFFCURVE",
"90.397 25.693 OFFCURVE",
"84.428 28.731 CURVE SMOOTH",
"77.561 32.226 OFFCURVE",
"71.356 37.135 OFFCURVE",
"65.17 41.834 CURVE SMOOTH",
"54.224 50.148 OFFCURVE",
"47.028 61.292 OFFCURVE",
"41.032 73.565 CURVE SMOOTH",
"35.471 84.948 OFFCURVE",
"26.409 95.126 OFFCURVE",
"23.142 107.005 CURVE SMOOTH",
"18.381 124.319 OFFCURVE",
"5.153 138.459 OFFCURVE",
"6.102 158.062 CURVE SMOOTH",
"6.493 166.133 OFFCURVE",
"2.352 174.455 OFFCURVE",
"5.889 182.971 CURVE SMOOTH",
"6.402 184.206 OFFCURVE",
"5.04 186.737 OFFCURVE",
"3.865 188.069 CURVE SMOOTH",
"-1.743 194.427 OFFCURVE",
"-0.174 200.244 OFFCURVE",
"2.929 207.523 CURVE SMOOTH",
"6.647 216.243 OFFCURVE",
"13.541 221.886 OFFCURVE",
"19.184 228.724 CURVE SMOOTH",
"20.808 230.693 OFFCURVE",
"24.209 231.194 OFFCURVE",
"26.795 232.368 CURVE",
"27.767 229.504 OFFCURVE",
"28.934 226.688 OFFCURVE",
"29.673 223.765 CURVE SMOOTH",
"31.356 217.109 OFFCURVE",
"31.662 209.819 OFFCURVE",
"34.635 203.835 CURVE SMOOTH",
"40.675 191.677 OFFCURVE",
"47.525 179.817 OFFCURVE",
"55.124 168.565 CURVE SMOOTH",
"63.956 155.487 OFFCURVE",
"71.24 140.996 OFFCURVE",
"88.28 135.219 CURVE SMOOTH",
"95.134 132.896 OFFCURVE",
"99.812 124.735 OFFCURVE",
"106.537 121.297 CURVE SMOOTH",
"114.177 117.391 OFFCURVE",
"122.991 115.71 OFFCURVE",
"131.767 119.007 CURVE SMOOTH",
"132.289 119.203 OFFCURVE",
"132.918 119.364 OFFCURVE",
"133.444 119.264 CURVE SMOOTH",
"148.693 116.367 OFFCURVE",
"152.464 128.668 OFFCURVE",
"158.968 137.943 CURVE SMOOTH",
"163.74 144.748 OFFCURVE",
"169.767 150.69 OFFCURVE",
"175.396 156.87 CURVE SMOOTH",
"178.284 160.041 OFFCURVE",
"181.525 162.891 OFFCURVE",
"183.843 165.143 CURVE",
"188.67 175.567 OFFCURVE",
"193.119 185.238 OFFCURVE",
"197.623 194.883 CURVE SMOOTH",
"202.771 205.909 OFFCURVE",
"208.781 216.619 OFFCURVE",
"212.9 228.014 CURVE SMOOTH",
"216.473 237.901 OFFCURVE",
"217.849 248.572 OFFCURVE",
"220.382 258.851 CURVE SMOOTH",
"220.955 261.174 OFFCURVE",
"222.08 263.442 OFFCURVE",
"223.345 265.492 CURVE SMOOTH",
"224.66 267.623 OFFCURVE",
"226.453 269.46 OFFCURVE",
"228.037 271.425 CURVE",
"229.406 269.283 OFFCURVE",
"230.776 267.141 OFFCURVE",
"233.218 263.323 CURVE",
"235.044 269.461 OFFCURVE",
"236.607 274.713 OFFCURVE",
"238.935 282.538 CURVE",
"233.539 280.674 OFFCURVE",
"230.67 279.683 OFFCURVE",
"225.964 278.058 CURVE",
"227.868 286.436 OFFCURVE",
"229.547 293.82 OFFCURVE",
"231.321 301.626 CURVE",
"241.733 302.41 OFFCURVE",
"234.319 295.778 OFFCURVE",
"234.841 292.67 CURVE",
"235.594 292.445 OFFCURVE",
"236.347 292.221 OFFCURVE",
"237.099 291.997 CURVE",
"239.15 297.112 OFFCURVE",
"241.2 302.228 OFFCURVE",
"243.367 307.633 CURVE",
"228.934 310.423 OFFCURVE",
"229.235 310.854 OFFCURVE",
"233.119 324.518 CURVE SMOOTH",
"234.94 330.923 OFFCURVE",
"234.389 338.177 OFFCURVE",
"233.984 344.991 CURVE SMOOTH",
"233.569 351.993 OFFCURVE",
"236.615 355.995 OFFCURVE",
"242.465 359.059 CURVE SMOOTH",
"251.877 363.989 OFFCURVE",
"255.119 381.101 OFFCURVE",
"248.101 389.088 CURVE SMOOTH",
"246.812 390.555 OFFCURVE",
"243.89 390.589 OFFCURVE",
"241.512 391.352 CURVE",
"240.629 397.027 OFFCURVE",
"240.211 401.748 OFFCURVE",
"248.663 402.403 CURVE SMOOTH",
"254.177 402.832 OFFCURVE",
"257.141 417.639 OFFCURVE",
"254.181 424.44 CURVE SMOOTH",
"252.813 427.582 OFFCURVE",
"252.834 431.329 OFFCURVE",
"252.012 436.025 CURVE",
"251.475 436.025 OFFCURVE",
"248.569 436.025 OFFCURVE",
"245.75 436.025 CURVE",
"242.725 444.456 OFFCURVE",
"244.047 446.734 OFFCURVE",
"251.597 448.91 CURVE SMOOTH",
"254.159 449.649 OFFCURVE",
"257.9 452.1 OFFCURVE",
"258.104 454.078 CURVE SMOOTH",
"258.612 458.999 OFFCURVE",
"257.395 464.098 OFFCURVE",
"256.87 469.125 CURVE",
"255.011 468.263 OFFCURVE",
"252.359 467.873 OFFCURVE",
"251.495 466.42 CURVE SMOOTH",
"250.441 464.646 OFFCURVE",
"251.159 461.906 OFFCURVE",
"250.568 459.732 CURVE SMOOTH",
"250.292 458.72 OFFCURVE",
"248.742 457.424 OFFCURVE",
"247.759 457.416 CURVE SMOOTH",
"246.816 457.407 OFFCURVE",
"245.009 458.935 OFFCURVE",
"245.043 459.723 CURVE SMOOTH",
"245.36 466.944 OFFCURVE",
"244.818 474.505 OFFCURVE",
"246.848 481.269 CURVE SMOOTH",
"249.186 489.054 OFFCURVE",
"246.647 501.293 OFFCURVE",
"239.61 504.305 CURVE SMOOTH",
"238.185 504.915 OFFCURVE",
"235.655 503.468 OFFCURVE",
"233.843 502.555 CURVE SMOOTH",
"225.868 498.536 OFFCURVE",
"218.347 493.046 OFFCURVE",
"209.933 490.644 CURVE SMOOTH",
"202.464 488.513 OFFCURVE",
"193.859 490.701 OFFCURVE",
"186.071 489.267 CURVE SMOOTH",
"175.64 487.345 OFFCURVE",
"162.955 489.032 OFFCURVE",
"157.836 475.443 CURVE SMOOTH",
"157.389 474.255 OFFCURVE",
"153.837 474.016 OFFCURVE",
"151.675 473.733 CURVE SMOOTH",
"143.027 472.604 OFFCURVE",
"134.318 471.871 OFFCURVE",
"125.722 470.45 CURVE SMOOTH",
"123.224 470.037 OFFCURVE",
"119.838 468.378 OFFCURVE",
"118.877 466.339 CURVE SMOOTH",
"111.645 450.998 OFFCURVE",
"96.882 447.317 OFFCURVE",
"82.833 444.12 CURVE SMOOTH",
"71.903 441.632 OFFCURVE",
"64.498 450.578 OFFCURVE",
"58.873 458.528 CURVE SMOOTH",
"53.972 465.456 OFFCURVE",
"52.387 474.829 OFFCURVE",
"47.169 481.399 CURVE SMOOTH",
"43.132 486.481 OFFCURVE",
"38.885 490.719 OFFCURVE",
"41.843 496.949 CURVE SMOOTH",
"45.992 505.69 OFFCURVE",
"41.042 517.916 OFFCURVE",
"52.484 523.803 CURVE SMOOTH",
"68.831 532.214 OFFCURVE",
"84.665 541.745 OFFCURVE",
"101.44 549.168 CURVE SMOOTH",
"117.192 556.139 OFFCURVE",
"133.537 562.446 OFFCURVE",
"150.249 566.383 CURVE SMOOTH",
"168.109 570.591 OFFCURVE",
"184.845 577.182 OFFCURVE",
"201.847 583.619 CURVE SMOOTH",
"214.566 588.435 OFFCURVE",
"228.281 590.55 OFFCURVE",
"241.299 594.672 CURVE SMOOTH",
"253.221 598.447 OFFCURVE",
"264.708 603.581 OFFCURVE",
"276.573 607.562 CURVE SMOOTH",
"282.553 609.568 OFFCURVE",
"288.907 610.579 OFFCURVE",
"295.161 611.621 CURVE SMOOTH",
"303.758 613.054 OFFCURVE",
"312.441 613.978 OFFCURVE",
"321.033 615.434 CURVE SMOOTH",
"322.156 615.624 OFFCURVE",
"322.964 617.676 OFFCURVE",
"323.917 618.866 CURVE",
"326.213 618.866 OFFCURVE",
"328.508 618.866 OFFCURVE",
"330.803 618.866 CURVE",
"333.839 615.101 OFFCURVE",
"336.37 610.74 OFFCURVE",
"339.998 607.675 CURVE SMOOTH",
"354.96 595.032 OFFCURVE",
"361.21 578.061 OFFCURVE",
"365.439 559.744 CURVE SMOOTH",
"366.766 553.994 OFFCURVE",
"369.843 548.65 OFFCURVE",
"372.12 543.119 CURVE",
"372.12 541.972 OFFCURVE",
"372.12 540.824 OFFCURVE",
"372.12 539.676 CURVE"
);
}
);
width = 350;
}
);
unicode = 004A;
},
{
glyphname = K;
lastChange = "2020-11-21 14:56:04 +0000";
layers = (
{
layerId = "35B18FD4-EE95-4CAF-9F6E-40BA2ACEDFAA";
paths = (
{
closed = 1;
nodes = (
"99.442 176.998 OFFCURVE",
"99.1 168.033 OFFCURVE",
"97.968 159.169 CURVE SMOOTH",
"96.926 151.008 OFFCURVE",
"94.985 142.966 OFFCURVE",
"93.543 134.853 CURVE SMOOTH",
"93.049 132.068 OFFCURVE",
"93.104 129.175 OFFCURVE",
"92.497 126.423 CURVE SMOOTH",
"90.645 118.027 OFFCURVE",
"88.559 109.683 OFFCURVE",
"86.644 101.301 CURVE SMOOTH",
"86.143 99.109 OFFCURVE",
"85.973 96.843 OFFCURVE",
"85.577 94.625 CURVE SMOOTH",
"83.613 83.631 OFFCURVE",
"79.945 72.617 OFFCURVE",
"80.098 61.656 CURVE SMOOTH",
"80.266 49.669 OFFCURVE",
"74.611 40.082 OFFCURVE",
"71.687 29.384 CURVE SMOOTH",
"69.01 19.593 OFFCURVE",
"54.711 6.167 OFFCURVE",
"44.667 4.774 CURVE SMOOTH",
"41.932 4.395 OFFCURVE",
"39.175 3.308 OFFCURVE",
"36.709 2.01 CURVE SMOOTH",
"26.874 -3.17 OFFCURVE",
"16.696 2.061 OFFCURVE",
"13.176 13.119 CURVE SMOOTH",
"10.344 22.016 OFFCURVE",
"5.248 30.198 OFFCURVE",
"2.484 39.11 CURVE SMOOTH",
"0.441 45.695 OFFCURVE",
"0.16 52.923 OFFCURVE",
"-0.228 59.903 CURVE SMOOTH",
"-0.673 67.908 OFFCURVE",
"-0.404 75.955 OFFCURVE",
"-0.366 83.983 CURVE SMOOTH",
"-0.358 85.69 OFFCURVE",
"-0.646 87.947 OFFCURVE",
"0.281 89.017 CURVE SMOOTH",
"9.525 99.681 OFFCURVE",
"6.906 114.209 OFFCURVE",
"12.502 126.059 CURVE SMOOTH",
"13.642 128.474 OFFCURVE",
"13.118 131.702 OFFCURVE",
"13.247 134.56 CURVE SMOOTH",
"13.543 141.135 OFFCURVE",
"8.476 146.877 OFFCURVE",
"14.825 154.766 CURVE SMOOTH",
"18.462 159.285 OFFCURVE",
"13.621 170.627 OFFCURVE",
"12.47 179.921 CURVE",
"9.902 174.867 OFFCURVE",
"7.866 170.859 OFFCURVE",
"5.829 166.851 CURVE",
"4.637 167.203 OFFCURVE",
"3.446 167.555 OFFCURVE",
"2.254 167.906 CURVE",
"3.509 173.242 OFFCURVE",
"4.411 178.701 OFFCURVE",
"6.218 183.843 CURVE SMOOTH",
"6.815 185.54 OFFCURVE",
"10.096 187.8 OFFCURVE",
"11.553 187.433 CURVE SMOOTH",
"18.667 185.645 OFFCURVE",
"20.755 189.95 OFFCURVE",
"22.313 195.24 CURVE SMOOTH",
"29.787 220.616 OFFCURVE",
"32.9 246.488 OFFCURVE",
"30.408 272.867 CURVE SMOOTH",
"29.914 278.102 OFFCURVE",
"27.817 283.181 OFFCURVE",
"26.513 288.345 CURVE SMOOTH",
"26.235 289.448 OFFCURVE",
"25.776 290.747 OFFCURVE",
"26.099 291.725 CURVE SMOOTH",
"29.361 301.594 OFFCURVE",
"29.012 311.269 OFFCURVE",
"27.991 321.66 CURVE SMOOTH",
"27.484 326.822 OFFCURVE",
"35.615 333.703 OFFCURVE",
"41.102 338.296 CURVE SMOOTH",
"45.101 341.643 OFFCURVE",
"47.995 344.388 OFFCURVE",
"47.92 349.767 CURVE SMOOTH",
"47.822 356.644 OFFCURVE",
"48.501 363.556 OFFCURVE",
"48.024 370.396 CURVE SMOOTH",
"47.261 381.365 OFFCURVE",
"48.602 391.315 OFFCURVE",
"53.921 401.505 CURVE SMOOTH",
"58.293 409.88 OFFCURVE",
"59.835 419.994 OFFCURVE",
"61.333 429.541 CURVE SMOOTH",
"63.226 441.608 OFFCURVE",
"63.346 453.947 OFFCURVE",
"65.099 466.044 CURVE SMOOTH",
"66.381 474.886 OFFCURVE",
"69.368 483.47 OFFCURVE",
"71.003 492.278 CURVE SMOOTH",
"71.933 497.291 OFFCURVE",
"71.392 502.559 OFFCURVE",
"72.031 507.647 CURVE SMOOTH",
"72.655 512.607 OFFCURVE",
"73.774 517.524 OFFCURVE",
"74.966 522.389 CURVE SMOOTH",
"77.285 531.849 OFFCURVE",
"80.022 541.21 OFFCURVE",
"82.189 550.702 CURVE SMOOTH",
"84.782 562.056 OFFCURVE",
"86.159 573.766 OFFCURVE",
"89.752 584.77 CURVE SMOOTH",
"91.007 588.614 OFFCURVE",
"96.881 592.069 OFFCURVE",
"101.349 593.495 CURVE SMOOTH",
"109.072 595.96 OFFCURVE",
"117.536 596.062 OFFCURVE",
"125.322 598.387 CURVE SMOOTH",
"130.628 599.972 OFFCURVE",
"131.783 597.208 OFFCURVE",
"133.5 593.813 CURVE SMOOTH",
"135.184 590.481 OFFCURVE",
"137.494 587.394 OFFCURVE",
"138.723 583.915 CURVE SMOOTH",
"143.422 570.611 OFFCURVE",
"156.213 559.689 OFFCURVE",
"148.446 542.684 CURVE SMOOTH",
"144.861 534.834 OFFCURVE",
"145.664 525.029 OFFCURVE",
"144.162 516.165 CURVE SMOOTH",
"142.167 504.384 OFFCURVE",
"139.864 492.656 OFFCURVE",
"137.692 480.906 CURVE SMOOTH",
"137.64 480.625 OFFCURVE",
"137.542 480.349 OFFCURVE",
"137.515 480.067 CURVE SMOOTH",
"136.239 466.677 OFFCURVE",
"135 453.285 OFFCURVE",
"133.667 439.901 CURVE SMOOTH",
"133.446 437.673 OFFCURVE",
"133.325 435.216 OFFCURVE",
"132.305 433.325 CURVE SMOOTH",
"126.356 422.285 OFFCURVE",
"126.912 410.479 OFFCURVE",
"127.152 395.76 CURVE",
"131.613 400.718 OFFCURVE",
"134.113 404.25 OFFCURVE",
"137.331 406.917 CURVE SMOOTH",
"143.68 412.177 OFFCURVE",
"150.568 416.784 OFFCURVE",
"156.955 422.002 CURVE SMOOTH",
"160.966 425.278 OFFCURVE",
"164.918 428.823 OFFCURVE",
"168.102 432.873 CURVE SMOOTH",
"173.39 439.599 OFFCURVE",
"176.989 448.053 OFFCURVE",
"183.294 453.45 CURVE SMOOTH",
"188.216 457.664 OFFCURVE",
"196.165 458.343 OFFCURVE",
"202.278 460.427 CURVE",
"207.343 465.997 OFFCURVE",
"205.43 477.319 OFFCURVE",
"217.272 476.686 CURVE SMOOTH",
"217.92 476.651 OFFCURVE",
"219.085 477.466 OFFCURVE",
"219.227 478.069 CURVE SMOOTH",
"222.573 492.376 OFFCURVE",
"235.726 494.715 OFFCURVE",
"246.082 500.777 CURVE SMOOTH",
"251.794 504.121 OFFCURVE",
"256.575 509.236 OFFCURVE",
"261.311 514.013 CURVE SMOOTH",
"265.58 518.318 OFFCURVE",
"269.443 523.082 OFFCURVE",
"273.043 527.968 CURVE SMOOTH",
"275.038 530.676 OFFCURVE",
"276.087 534.072 OFFCURVE",
"277.646 537.115 CURVE SMOOTH",
"278.393 538.573 OFFCURVE",
"279.013 540.714 OFFCURVE",
"280.235 541.215 CURVE SMOOTH",
"292.074 546.073 OFFCURVE",
"299.242 555.853 OFFCURVE",
"306.822 565.366 CURVE SMOOTH",
"308.519 567.496 OFFCURVE",
"311.735 568.906 OFFCURVE",
"314.511 569.592 CURVE SMOOTH",
"322.544 571.577 OFFCURVE",
"330.71 573.025 OFFCURVE",
"339.87 574.897 CURVE",
"340.045 571.974 OFFCURVE",
"339.76 569.126 OFFCURVE",
"340.508 566.582 CURVE SMOOTH",
"341.15 564.397 OFFCURVE",
"342.67 561.171 OFFCURVE",
"344.328 560.808 CURVE SMOOTH",
"351.378 559.264 OFFCURVE",
"352.547 553.757 OFFCURVE",
"354.113 548.282 CURVE SMOOTH",
"354.58 546.649 OFFCURVE",
"354.729 544.714 OFFCURVE",
"355.72 543.474 CURVE SMOOTH",
"364.542 532.432 OFFCURVE",
"360.196 521.678 OFFCURVE",
"355.699 510.56 CURVE SMOOTH",
"348.511 492.787 OFFCURVE",
"335.894 478.876 OFFCURVE",
"323.375 465.093 CURVE SMOOTH",
"303.281 442.972 OFFCURVE",
"282.866 421.083 OFFCURVE",
"261.546 400.156 CURVE SMOOTH",
"247.735 386.599 OFFCURVE",
"231.941 375.082 OFFCURVE",
"217.271 362.379 CURVE SMOOTH",
"197.461 345.222 OFFCURVE",
"177.877 327.805 OFFCURVE",
"158.197 310.498 CURVE SMOOTH",
"149.243 302.624 OFFCURVE",
"140.044 295.007 OFFCURVE",
"131.409 286.798 CURVE SMOOTH",
"122.068 277.919 OFFCURVE",
"124.218 269.881 OFFCURVE",
"135.81 263.181 CURVE SMOOTH",
"146.015 257.283 OFFCURVE",
"155.778 250.468 OFFCURVE",
"165.101 243.239 CURVE SMOOTH",
"174.777 235.736 OFFCURVE",
"182.795 225.775 OFFCURVE",
"193.127 219.506 CURVE SMOOTH",
"213.498 207.145 OFFCURVE",
"227.271 188.687 OFFCURVE",
"241.383 170.645 CURVE SMOOTH",
"250.436 159.07 OFFCURVE",
"257.272 145.724 OFFCURVE",
"264.741 132.961 CURVE SMOOTH",
"269.505 124.819 OFFCURVE",
"274.311 116.57 OFFCURVE",
"277.772 107.844 CURVE SMOOTH",
"280.213 101.69 OFFCURVE",
"279.596 95.211 OFFCURVE",
"273.206 90.274 CURVE SMOOTH",
"262.257 81.814 OFFCURVE",
"249.945 82.709 OFFCURVE",
"239.457 88.381 CURVE SMOOTH",
"227.487 94.853 OFFCURVE",
"214.372 99.193 OFFCURVE",
"201.855 104.687 CURVE SMOOTH",
"199.685 105.639 OFFCURVE",
"197.673 107.452 OFFCURVE",
"196.168 109.332 CURVE SMOOTH",
"189.408 117.774 OFFCURVE",
"180.764 121.821 OFFCURVE",
"169.953 122.212 CURVE SMOOTH",
"167.184 122.313 OFFCURVE",
"163.647 124.149 OFFCURVE",
"161.933 126.338 CURVE SMOOTH",
"155.675 134.329 OFFCURVE",
"150.982 143.769 OFFCURVE",
"143.844 150.771 CURVE SMOOTH",
"138.899 155.622 OFFCURVE",
"131.098 157.899 OFFCURVE",
"124.225 160.352 CURVE SMOOTH",
"116.85 162.985 OFFCURVE",
"110.227 165.979 OFFCURVE",
"107.08 173.753 CURVE SMOOTH",
"105.412 177.875 OFFCURVE",
"103.739 181.995 OFFCURVE",
"102.069 186.117 CURVE",
"101.422 186.051 OFFCURVE",
"100.776 185.986 OFFCURVE",
"100.129 185.92 CURVE"
);
}
);
width = 300;
}
);
unicode = 004B;
},
{
glyphname = L;
lastChange = "2020-11-21 14:56:09 +0000";
layers = (
{
layerId = "35B18FD4-EE95-4CAF-9F6E-40BA2ACEDFAA";
paths = (
{
closed = 1;
nodes = (
"242.338 112.025 OFFCURVE",
"239.643 107.956 OFFCURVE",
"234.526 104.987 CURVE",
"239.613 92.306 OFFCURVE",
"235.783 78.389 OFFCURVE",
"226.718 69.84 CURVE SMOOTH",
"209.776 53.863 OFFCURVE",
"189.586 42.753 OFFCURVE",
"170.071 30.597 CURVE SMOOTH",
"160.242 24.473 OFFCURVE",
"150.344 18.459 OFFCURVE",
"140.407 12.511 CURVE SMOOTH",
"138.538 11.393 OFFCURVE",
"136.17 9.843 OFFCURVE",
"134.322 10.163 CURVE SMOOTH",
"121.95 12.306 OFFCURVE",
"111.821 5.652 OFFCURVE",
"100.992 2.002 CURVE SMOOTH",
"88.762 -2.119 OFFCURVE",
"80.971 -0.185 OFFCURVE",
"75.249 10.679 CURVE SMOOTH",
"71.959 16.927 OFFCURVE",
"67.587 19.108 OFFCURVE",
"60.895 20.471 CURVE SMOOTH",
"52.457 22.19 OFFCURVE",
"45.632 27.252 OFFCURVE",
"41.8 35.841 CURVE SMOOTH",
"37.987 44.389 OFFCURVE",
"32.773 52.327 OFFCURVE",
"29.161 60.946 CURVE SMOOTH",
"25.37 69.991 OFFCURVE",
"22.611 79.483 OFFCURVE",
"19.667 88.863 CURVE SMOOTH",
"17.161 96.844 OFFCURVE",
"15.16 104.984 OFFCURVE",
"12.706 112.982 CURVE SMOOTH",
"9.245 124.262 OFFCURVE",
"9.156 135.797 OFFCURVE",
"9.312 147.43 CURVE SMOOTH",
"9.345 149.877 OFFCURVE",
"7.544 152.347 OFFCURVE",
"6.588 154.806 CURVE",
"4.515 153.789 OFFCURVE",
"2.442 152.771 OFFCURVE",
"0.42 151.777 CURVE",
"-2.045 159.706 OFFCURVE",
"1.501 168.202 OFFCURVE",
"8.74 171.99 CURVE SMOOTH",
"14.324 174.912 OFFCURVE",
"17.883 180.237 OFFCURVE",
"15.97 186.058 CURVE SMOOTH",
"12.483 196.667 OFFCURVE",
"19.16 204.442 OFFCURVE",
"21.623 213.397 CURVE SMOOTH",
"22.051 214.952 OFFCURVE",
"22.506 216.536 OFFCURVE",
"22.638 218.131 CURVE SMOOTH",
"23.845 232.756 OFFCURVE",
"24.734 247.413 OFFCURVE",
"26.311 261.996 CURVE SMOOTH",
"26.73 265.867 OFFCURVE",
"29.292 269.483 OFFCURVE",
"30.704 273.277 CURVE SMOOTH",
"31.766 276.13 OFFCURVE",
"32.861 279.025 OFFCURVE",
"33.415 282 CURVE SMOOTH",
"34.502 287.838 OFFCURVE",
"36.153 293.782 OFFCURVE",
"35.925 299.617 CURVE SMOOTH",
"35.175 318.792 OFFCURVE",
"51.173 333.951 OFFCURVE",
"48.033 354.015 CURVE SMOOTH",
"47.089 360.044 OFFCURVE",
"52.402 367.002 OFFCURVE",
"54.66 373.599 CURVE SMOOTH",
"56.871 380.057 OFFCURVE",
"59.166 386.515 OFFCURVE",
"60.844 393.12 CURVE SMOOTH",
"63.455 403.399 OFFCURVE",
"64.126 414.442 OFFCURVE",
"68.322 423.973 CURVE SMOOTH",
"72.353 433.13 OFFCURVE",
"67.221 440.322 OFFCURVE",
"67.606 449.883 CURVE",
"64.2 447.501 OFFCURVE",
"61.854 445.859 OFFCURVE",
"59.507 444.217 CURVE",
"58.694 444.428 OFFCURVE",
"57.882 444.64 OFFCURVE",
"57.07 444.851 CURVE",
"59.519 452.804 OFFCURVE",
"61.968 460.756 OFFCURVE",
"64.417 468.709 CURVE",
"65.24 469.122 OFFCURVE",
"66.063 469.535 OFFCURVE",
"66.886 469.948 CURVE",
"67.779 468.408 OFFCURVE",
"68.672 466.868 OFFCURVE",
"70.032 464.522 CURVE",
"79.346 473.789 OFFCURVE",
"86.636 482.945 OFFCURVE",
"83.18 497.891 CURVE SMOOTH",
"81.869 503.561 OFFCURVE",
"83.664 512.106 OFFCURVE",
"87.426 516.327 CURVE SMOOTH",
"94.543 524.311 OFFCURVE",
"95.685 533.367 OFFCURVE",
"96.515 542.754 CURVE SMOOTH",
"97.626 555.329 OFFCURVE",
"96.464 567.974 OFFCURVE",
"101.898 580.166 CURVE SMOOTH",
"106.336 590.123 OFFCURVE",
"116.283 596.431 OFFCURVE",
"126.298 599.824 CURVE SMOOTH",
"136.964 603.438 OFFCURVE",
"144.599 598.915 OFFCURVE",
"149.839 593.213 CURVE SMOOTH",
"155.476 587.08 OFFCURVE",
"159.536 578.923 OFFCURVE",
"161.667 569.543 CURVE SMOOTH",
"163.962 559.439 OFFCURVE",
"165.786 549.736 OFFCURVE",
"164.332 539.673 CURVE SMOOTH",
"163.134 531.387 OFFCURVE",
"160.701 523.278 OFFCURVE",
"158.789 515.098 CURVE SMOOTH",
"158.465 513.712 OFFCURVE",
"157.795 512.382 OFFCURVE",
"157.643 510.987 CURVE SMOOTH",
"156.392 499.531 OFFCURVE",
"157.027 487.483 OFFCURVE",
"153.567 476.752 CURVE SMOOTH",
"149.454 463.993 OFFCURVE",
"152.061 450.417 OFFCURVE",
"145.335 437.781 CURVE SMOOTH",
"139.946 427.657 OFFCURVE",
"139.472 414.928 OFFCURVE",
"136.747 403.371 CURVE SMOOTH",
"134.663 394.528 OFFCURVE",
"132.333 385.741 OFFCURVE",
"130.362 376.874 CURVE SMOOTH",
"127.989 366.197 OFFCURVE",
"125.949 355.445 OFFCURVE",
"123.642 344.753 CURVE SMOOTH",
"120.172 328.67 OFFCURVE",
"116.368 312.657 OFFCURVE",
"113.132 296.528 CURVE SMOOTH",
"110.381 282.814 OFFCURVE",
"108.305 268.965 OFFCURVE",
"105.794 255.201 CURVE SMOOTH",
"103.683 243.634 OFFCURVE",
"99.463 232.047 OFFCURVE",
"99.795 220.575 CURVE SMOOTH",
"100.038 212.223 OFFCURVE",
"97.588 205.432 OFFCURVE",
"96.367 197.932 CURVE SMOOTH",
"95.051 189.844 OFFCURVE",
"90.522 180.752 OFFCURVE",
"95.378 171.973 CURVE SMOOTH",
"95.982 170.882 OFFCURVE",
"95.928 168.893 OFFCURVE",
"95.338 167.756 CURVE SMOOTH",
"85.732 149.249 OFFCURVE",
"94.221 129.757 OFFCURVE",
"92.306 110.817 CURVE SMOOTH",
"91.646 104.299 OFFCURVE",
"102.665 100.589 OFFCURVE",
"110.863 103.779 CURVE SMOOTH",
"113.661 104.868 OFFCURVE",
"116.597 105.7 OFFCURVE",
"119.542 106.295 CURVE SMOOTH",
"130.628 108.537 OFFCURVE",
"141.736 110.668 OFFCURVE",
"152.849 112.77 CURVE SMOOTH",
"160.037 114.128 OFFCURVE",
"167.28 115.211 OFFCURVE",
"174.443 116.685 CURVE SMOOTH",
"188.09 119.493 OFFCURVE",
"201.692 122.517 OFFCURVE",
"215.325 125.394 CURVE SMOOTH",
"218.276 126.016 OFFCURVE",
"221.277 126.395 OFFCURVE",
"223.851 126.819 CURVE",
"221.542 122.469 OFFCURVE",
"218.054 118.567 OFFCURVE",
"217.902 114.54 CURVE SMOOTH",
"217.82 112.358 OFFCURVE",
"223.893 107.669 OFFCURVE",
"226.358 108.173 CURVE SMOOTH",
"230.531 109.028 OFFCURVE",
"234.045 113.102 OFFCURVE",
"238.79 116.507 CURVE"
);
}
);
width = 250;
}
);
unicode = 004C;
},
{
glyphname = M;
lastChange = "2020-11-21 14:56:18 +0000";
layers = (
{
layerId = "35B18FD4-EE95-4CAF-9F6E-40BA2ACEDFAA";
paths = (
{
closed = 1;
nodes = (
"651 447 OFFCURVE",
"650 447 OFFCURVE",
"650 446 CURVE SMOOTH",
"649 437 OFFCURVE",
"648 427 OFFCURVE",
"647 418 CURVE SMOOTH",
"646 410 OFFCURVE",
"645 403 OFFCURVE",
"644 396 CURVE SMOOTH",
"643 394 OFFCURVE",
"641 391 OFFCURVE",
"642 391 CURVE SMOOTH",
"649 379 OFFCURVE",
"641 368 OFFCURVE",
"641 357 CURVE SMOOTH",
"641 343 OFFCURVE",
"637 329 OFFCURVE",
"635 315 CURVE SMOOTH",
"635 312 OFFCURVE",
"635 309 OFFCURVE",
"635 306 CURVE SMOOTH",
"633 286 OFFCURVE",
"619 105 OFFCURVE",
"617 85 CURVE SMOOTH",
"616 78 OFFCURVE",
"612 71 OFFCURVE",
"609 64 CURVE SMOOTH",
"604 52 OFFCURVE",
"599 40 OFFCURVE",
"594 28 CURVE SMOOTH",
"593 26 OFFCURVE",
"593 25 OFFCURVE",
"593 23 CURVE SMOOTH",
"594 11 OFFCURVE",
"586 4 OFFCURVE",
"577 -2 CURVE SMOOTH",
"573 -5 OFFCURVE",
"567 -9 OFFCURVE",
"565 -8 CURVE SMOOTH",
"561 -7 OFFCURVE",
"559 -1 OFFCURVE",
"557 3 CURVE SMOOTH",
"551 14 OFFCURVE",
"544 24 OFFCURVE",
"546 36 CURVE SMOOTH",
"546 38 OFFCURVE",
"545 40 OFFCURVE",
"544 41 CURVE SMOOTH",
"538 48 OFFCURVE",
"536 56 OFFCURVE",
"538 65 CURVE SMOOTH",
"540 77 OFFCURVE",
"532 85 OFFCURVE",
"530 96 CURVE SMOOTH",
"529 104 OFFCURVE",
"541 273 OFFCURVE",
"542 281 CURVE SMOOTH",
"544 290 OFFCURVE",
"541 299 OFFCURVE",
"538 307 CURVE SMOOTH",
"537 308 OFFCURVE",
"532 308 OFFCURVE",
"527 309 CURVE",
"528 316 OFFCURVE",
"530 326 OFFCURVE",
"531 336 CURVE",
"532 336 OFFCURVE",
"533 336 OFFCURVE",
"534 336 CURVE",
"535 334 OFFCURVE",
"536 332 OFFCURVE",
"537 330 CURVE",
"544 331 OFFCURVE",
"546 350 OFFCURVE",
"541 358 CURVE",
"538 358 OFFCURVE",
"535 359 OFFCURVE",
"532 359 CURVE",
"533 361 OFFCURVE",
"533 364 OFFCURVE",
"534 367 CURVE SMOOTH",
"534 370 OFFCURVE",
"535 374 OFFCURVE",
"536 377 CURVE",
"539 377 OFFCURVE",
"542 376 OFFCURVE",
"544 377 CURVE SMOOTH",
"545 377 OFFCURVE",
"545 381 OFFCURVE",
"545 384 CURVE",
"542 384 OFFCURVE",
"539 383 OFFCURVE",
"537 383 CURVE",
"535 392 OFFCURVE",
"537 394 OFFCURVE",
"546 392 CURVE",
"553 399 OFFCURVE",
"555 407 OFFCURVE",
"556 417 CURVE SMOOTH",
"556 430 OFFCURVE",
"560 443 OFFCURVE",
"562 457 CURVE SMOOTH",
"563 463 OFFCURVE",
"562 470 OFFCURVE",
"562 477 CURVE",
"555 479 OFFCURVE",
"551 478 OFFCURVE",
"548 471 CURVE SMOOTH",
"547 466 OFFCURVE",
"542 463 OFFCURVE",
"540 458 CURVE SMOOTH",
"536 451 OFFCURVE",
"532 444 OFFCURVE",
"530 436 CURVE SMOOTH",
"528 428 OFFCURVE",
"520 421 OFFCURVE",
"514 414 CURVE SMOOTH",
"510 410 OFFCURVE",
"506 406 OFFCURVE",
"507 399 CURVE SMOOTH",
"507 397 OFFCURVE",
"505 394 OFFCURVE",
"503 392 CURVE SMOOTH",
"495 386 OFFCURVE",
"492 378 OFFCURVE",
"490 368 CURVE SMOOTH",
"489 364 OFFCURVE",
"487 360 OFFCURVE",
"484 357 CURVE SMOOTH",
"477 350 OFFCURVE",
"472 341 OFFCURVE",
"469 332 CURVE SMOOTH",
"468 328 OFFCURVE",
"465 326 OFFCURVE",
"463 323 CURVE SMOOTH",
"461 322 OFFCURVE",
"459 320 OFFCURVE",
"459 319 CURVE SMOOTH",
"460 309 OFFCURVE",
"455 303 OFFCURVE",
"449 296 CURVE SMOOTH",
"447 293 OFFCURVE",
"446 288 OFFCURVE",
"445 283 CURVE SMOOTH",
"445 282 OFFCURVE",
"445 280 OFFCURVE",
"444 279 CURVE SMOOTH",
"435 265 OFFCURVE",
"427 251 OFFCURVE",
"418 237 CURVE SMOOTH",
"408 221 OFFCURVE",
"398 205 OFFCURVE",
"388 190 CURVE SMOOTH",
"387 187 OFFCURVE",
"385 183 OFFCURVE",
"384 180 CURVE SMOOTH",
"379 167 OFFCURVE",
"369 159 OFFCURVE",
"360 149 CURVE SMOOTH",
"351 139 OFFCURVE",
"341 129 OFFCURVE",
"329 122 CURVE SMOOTH",
"323 118 OFFCURVE",
"317 113 OFFCURVE",
"311 111 CURVE SMOOTH",
"307 110 OFFCURVE",
"300 111 OFFCURVE",
"297 114 CURVE SMOOTH",
"291 118 OFFCURVE",
"284 116 OFFCURVE",
"278 116 CURVE SMOOTH",
"271 117 OFFCURVE",
"271 116 OFFCURVE",
"272 124 CURVE SMOOTH",
"272 125 OFFCURVE",
"271 126 OFFCURVE",
"270 127 CURVE SMOOTH",
"263 140 OFFCURVE",
"256 152 OFFCURVE",
"249 164 CURVE SMOOTH",
"246 168 OFFCURVE",
"242 171 OFFCURVE",
"238 174 CURVE",
"237 173 OFFCURVE",
"236 173 OFFCURVE",
"236 172 CURVE",
"234 181 OFFCURVE",
"234 190 OFFCURVE",
"231 199 CURVE SMOOTH",
"229 207 OFFCURVE",
"225 214 OFFCURVE",
"223 222 CURVE SMOOTH",
"221 226 OFFCURVE",
"222 230 OFFCURVE",
"222 234 CURVE SMOOTH",
"218 251 OFFCURVE",
"215 268 OFFCURVE",
"212 285 CURVE SMOOTH",
"212 285 OFFCURVE",
"212 285 OFFCURVE",
"212 285 CURVE SMOOTH",
"219 296 OFFCURVE",
"207 304 OFFCURVE",
"208 314 CURVE SMOOTH",
"208 316 OFFCURVE",
"207 318 OFFCURVE",
"208 319 CURVE SMOOTH",
"214 326 OFFCURVE",
"208 333 OFFCURVE",
"206 340 CURVE SMOOTH",
"205 343 OFFCURVE",
"205 346 OFFCURVE",
"204 350 CURVE SMOOTH",
"202 359 OFFCURVE",
"200 368 OFFCURVE",
"199 378 CURVE SMOOTH",
"198 380 OFFCURVE",
"198 383 OFFCURVE",
"197 386 CURVE SMOOTH",
"196 390 OFFCURVE",
"194 394 OFFCURVE",
"192 398 CURVE SMOOTH",
"188 405 OFFCURVE",
"184 411 OFFCURVE",
"179 419 CURVE",
"183 419 OFFCURVE",
"186 420 OFFCURVE",
"191 421 CURVE",
"189 423 OFFCURVE",
"188 425 OFFCURVE",
"186 426 CURVE SMOOTH",
"183 427 OFFCURVE",
"180 427 OFFCURVE",
"178 428 CURVE SMOOTH",
"165 434 OFFCURVE",
"162 434 OFFCURVE",
"154 422 CURVE SMOOTH",
"149 415 OFFCURVE",
"145 407 OFFCURVE",
"142 399 CURVE SMOOTH",
"138 389 OFFCURVE",
"135 379 OFFCURVE",
"132 369 CURVE SMOOTH",
"128 356 OFFCURVE",
"125 344 OFFCURVE",
"122 331 CURVE SMOOTH",
"122 330 OFFCURVE",
"122 329 OFFCURVE",
"121 329 CURVE SMOOTH",
"120 318 OFFCURVE",
"121 306 OFFCURVE",
"117 296 CURVE SMOOTH",
"113 285 OFFCURVE",
"117 271 OFFCURVE",
"109 261 CURVE SMOOTH",
"107 260 OFFCURVE",
"108 257 OFFCURVE",
"108 254 CURVE SMOOTH",
"106 241 OFFCURVE",
"103 227 OFFCURVE",
"101 214 CURVE SMOOTH",
"100 207 OFFCURVE",
"99 199 OFFCURVE",
"98 192 CURVE SMOOTH",
"97 180 OFFCURVE",
"96 167 OFFCURVE",
"94 155 CURVE SMOOTH",
"91 140 OFFCURVE",
"87 125 OFFCURVE",
"84 110 CURVE SMOOTH",
"82 102 OFFCURVE",
"81 94 OFFCURVE",
"80 86 CURVE SMOOTH",
"78 70 OFFCURVE",
"76 55 OFFCURVE",
"73 40 CURVE SMOOTH",
"72 36 OFFCURVE",
"69 32 OFFCURVE",
"72 27 CURVE SMOOTH",
"72 26 OFFCURVE",
"70 21 OFFCURVE",
"67 20 CURVE SMOOTH",
"60 13 OFFCURVE",
"51 6 OFFCURVE",
"43 0 CURVE SMOOTH",
"43 0 OFFCURVE",
"43 -1 OFFCURVE",
"42 -1 CURVE SMOOTH",
"34 -5 OFFCURVE",
"9 5 OFFCURVE",
"5 13 CURVE SMOOTH",
"3 17 OFFCURVE",
"-1 20 OFFCURVE",
"-2 25 CURVE SMOOTH",
"-5 33 OFFCURVE",
"-7 41 OFFCURVE",
"-10 50 CURVE SMOOTH",
"-12 57 OFFCURVE",
"-17 64 OFFCURVE",
"-21 72 CURVE",
"-24 68 OFFCURVE",
"-26 65 OFFCURVE",
"-29 61 CURVE",
"-31 73 OFFCURVE",
"-32 83 OFFCURVE",
"-28 93 CURVE SMOOTH",
"-26 99 OFFCURVE",
"-25 105 OFFCURVE",
"-23 112 CURVE SMOOTH",
"-23 114 OFFCURVE",
"-23 117 OFFCURVE",
"-22 118 CURVE SMOOTH",
"-9 131 OFFCURVE",
"-12 149 OFFCURVE",
"-9 164 CURVE SMOOTH",
"-7 177 OFFCURVE",
"-6 189 OFFCURVE",
"-2 201 CURVE SMOOTH",
"1 209 OFFCURVE",
"-2 212 OFFCURVE",
"-9 213 CURVE",
"-10 225 OFFCURVE",
"-10 235 OFFCURVE",
"-4 245 CURVE SMOOTH",
"-3 247 OFFCURVE",
"-2 249 OFFCURVE",
"-1 249 CURVE SMOOTH",
"11 250 OFFCURVE",
"9 260 OFFCURVE",
"12 266 CURVE SMOOTH",
"12 267 OFFCURVE",
"12 269 OFFCURVE",
"12 270 CURVE SMOOTH",
"12 274 OFFCURVE",
"13 277 OFFCURVE",
"13 281 CURVE",
"9 280 OFFCURVE",
"6 280 OFFCURVE",
"2 280 CURVE",
"-1 288 OFFCURVE",
"2 297 OFFCURVE",
"5 305 CURVE SMOOTH",
"6 308 OFFCURVE",
"8 310 OFFCURVE",
"8 313 CURVE SMOOTH",
"8 317 OFFCURVE",
"9 320 OFFCURVE",
"15 320 CURVE SMOOTH",
"17 320 OFFCURVE",
"21 323 OFFCURVE",
"21 325 CURVE SMOOTH",
"23 332 OFFCURVE",
"24 339 OFFCURVE",
"25 346 CURVE",
"24 346 OFFCURVE",
"23 347 OFFCURVE",
"22 347 CURVE",
"20 345 OFFCURVE",
"19 342 OFFCURVE",
"16 338 CURVE",
"14 351 OFFCURVE",
"14 361 OFFCURVE",
"19 371 CURVE SMOOTH",
"22 379 OFFCURVE",
"27 385 OFFCURVE",
"33 391 CURVE SMOOTH",
"36 394 OFFCURVE",
"37 399 OFFCURVE",
"38 404 CURVE",
"37 404 OFFCURVE",
"36 405 OFFCURVE",
"35 405 CURVE",
"34 402 OFFCURVE",
"32 399 OFFCURVE",
"31 397 CURVE",
"30 397 OFFCURVE",
"29 397 OFFCURVE",
"29 396 CURVE",
"29 401 OFFCURVE",
"28 405 OFFCURVE",
"29 409 CURVE SMOOTH",
"31 420 OFFCURVE",
"33 430 OFFCURVE",
"36 440 CURVE SMOOTH",
"37 447 OFFCURVE",
"47 454 OFFCURVE",
"54 453 CURVE SMOOTH",
"61 452 OFFCURVE",
"64 457 OFFCURVE",
"66 462 CURVE SMOOTH",
"69 467 OFFCURVE",
"64 479 OFFCURVE",
"57 483 CURVE",
"67 496 OFFCURVE",
"77 509 OFFCURVE",
"88 520 CURVE SMOOTH",
"92 525 OFFCURVE",
"99 527 OFFCURVE",
"104 529 CURVE SMOOTH",
"107 531 OFFCURVE",
"110 532 OFFCURVE",
"113 533 CURVE SMOOTH",
"116 534 OFFCURVE",
"119 535 OFFCURVE",
"122 536 CURVE SMOOTH",
"130 538 OFFCURVE",
"139 540 OFFCURVE",
"147 542 CURVE SMOOTH",
"149 543 OFFCURVE",
"151 543 OFFCURVE",
"153 543 CURVE SMOOTH",
"169 543 OFFCURVE",
"185 545 OFFCURVE",
"201 540 CURVE SMOOTH",
"203 539 OFFCURVE",
"206 538 OFFCURVE",
"208 536 CURVE SMOOTH",
"226 524 OFFCURVE",
"243 510 OFFCURVE",
"254 491 CURVE SMOOTH",
"261 480 OFFCURVE",
"264 466 OFFCURVE",
"270 454 CURVE SMOOTH",
"277 441 OFFCURVE",
"278 427 OFFCURVE",
"284 413 CURVE SMOOTH",
"288 402 OFFCURVE",
"283 389 OFFCURVE",
"293 379 CURVE SMOOTH",
"294 378 OFFCURVE",
"293 376 OFFCURVE",
"294 375 CURVE SMOOTH",
"295 359 OFFCURVE",
"297 342 OFFCURVE",
"299 326 CURVE SMOOTH",
"300 313 OFFCURVE",
"302 300 OFFCURVE",
"304 287 CURVE SMOOTH",
"304 285 OFFCURVE",
"306 284 OFFCURVE",
"307 282 CURVE",
"308 283 OFFCURVE",
"310 284 OFFCURVE",
"312 285 CURVE SMOOTH",
"320 292 OFFCURVE",
"323 302 OFFCURVE",
"328 311 CURVE SMOOTH",
"338 328 OFFCURVE",
"348 345 OFFCURVE",
"357 362 CURVE SMOOTH",
"360 368 OFFCURVE",
"360 375 OFFCURVE",
"366 379 CURVE SMOOTH",
"373 384 OFFCURVE",
"376 385 OFFCURVE",
"382 378 CURVE",
"384 382 OFFCURVE",
"389 384 OFFCURVE",
"384 390 CURVE SMOOTH",
"384 390 OFFCURVE",
"387 394 OFFCURVE",
"389 396 CURVE SMOOTH",
"400 404 OFFCURVE",
"399 409 OFFCURVE",
"390 418 CURVE SMOOTH",
"388 421 OFFCURVE",
"387 427 OFFCURVE",
"389 429 CURVE SMOOTH",
"393 438 OFFCURVE",
"399 446 OFFCURVE",
"405 455 CURVE",
"407 448 OFFCURVE",
"408 442 OFFCURVE",
"410 436 CURVE",
"422 444 OFFCURVE",
"414 455 OFFCURVE",
"418 461 CURVE",
"424 464 OFFCURVE",
"429 465 OFFCURVE",
"432 468 CURVE SMOOTH",
"435 472 OFFCURVE",
"437 476 OFFCURVE",
"431 479 CURVE SMOOTH",
"430 479 OFFCURVE",
"429 481 OFFCURVE",
"429 483 CURVE SMOOTH",
"431 500 OFFCURVE",
"434 517 OFFCURVE",
"451 526 CURVE SMOOTH",
"460 531 OFFCURVE",
"464 540 OFFCURVE",
"466 550 CURVE SMOOTH",
"467 560 OFFCURVE",
"474 565 OFFCURVE",
"484 562 CURVE SMOOTH",
"485 562 OFFCURVE",
"487 562 OFFCURVE",
"488 562 CURVE SMOOTH",
"493 568 OFFCURVE",
"502 570 OFFCURVE",
"500 581 CURVE SMOOTH",
"499 589 OFFCURVE",
"510 600 OFFCURVE",
"518 602 CURVE SMOOTH",
"526 603 OFFCURVE",
"535 604 OFFCURVE",
"543 605 CURVE SMOOTH",
"552 606 OFFCURVE",
"561 607 OFFCURVE",
"569 609 CURVE SMOOTH",
"570 609 OFFCURVE",
"572 611 OFFCURVE",
"573 612 CURVE",
"580 612 OFFCURVE",
"587 612 OFFCURVE",
"594 612 CURVE",
"595 610 OFFCURVE",
"597 607 OFFCURVE",
"599 606 CURVE SMOOTH",
"603 602 OFFCURVE",
"607 600 OFFCURVE",
"611 596 CURVE SMOOTH",
"613 594 OFFCURVE",
"614 590 OFFCURVE",
"617 587 CURVE SMOOTH",
"630 572 OFFCURVE",
"639 556 OFFCURVE",
"642 536 CURVE SMOOTH",
"643 529 OFFCURVE",
"649 523 OFFCURVE",
"652 516 CURVE",
"652 493 OFFCURVE",
"652 470 OFFCURVE",
"652 447 CURVE"
);
}
);
width = 650;
}
);
unicode = 004D;
},
{
glyphname = N;
lastChange = "2020-11-21 14:56:24 +0000";
layers = (
{
layerId = "35B18FD4-EE95-4CAF-9F6E-40BA2ACEDFAA";
paths = (
{
closed = 1;
nodes = (
"425 623 OFFCURVE",
"427 623 OFFCURVE",
"430 623 CURVE",
"442 612 OFFCURVE",
"454 602 OFFCURVE",
"466 591 CURVE SMOOTH",
"470 587 OFFCURVE",
"471 581 OFFCURVE",
"474 575 CURVE SMOOTH",
"478 568 OFFCURVE",
"481 561 OFFCURVE",
"485 554 CURVE",
"485 553 OFFCURVE",
"485 552 OFFCURVE",
"485 550 CURVE",
"483 549 OFFCURVE",
"481 547 OFFCURVE",
"481 545 CURVE SMOOTH",
"482 538 OFFCURVE",
"479 533 OFFCURVE",
"474 529 CURVE SMOOTH",
"469 526 OFFCURVE",
"465 522 OFFCURVE",
"461 518 CURVE SMOOTH",
"457 515 OFFCURVE",
"452 512 OFFCURVE",
"450 508 CURVE SMOOTH",
"447 497 OFFCURVE",
"445 485 OFFCURVE",
"443 473 CURVE SMOOTH",
"443 472 OFFCURVE",
"443 470 OFFCURVE",
"442 469 CURVE SMOOTH",
"430 456 OFFCURVE",
"433 439 OFFCURVE",
"429 425 CURVE SMOOTH",
"427 418 OFFCURVE",
"428 410 OFFCURVE",
"425 405 CURVE SMOOTH",
"421 398 OFFCURVE",
"418 393 OFFCURVE",
"420 385 CURVE SMOOTH",
"420 382 OFFCURVE",
"420 377 OFFCURVE",
"418 375 CURVE SMOOTH",
"410 369 OFFCURVE",
"408 362 OFFCURVE",
"412 352 CURVE SMOOTH",
"414 347 OFFCURVE",
"408 344 OFFCURVE",
"406 340 CURVE SMOOTH",
"403 334 OFFCURVE",
"403 326 OFFCURVE",
"402 319 CURVE SMOOTH",
"400 314 OFFCURVE",
"398 309 OFFCURVE",
"395 305 CURVE SMOOTH",
"391 299 OFFCURVE",
"390 293 OFFCURVE",
"393 288 CURVE SMOOTH",
"396 282 OFFCURVE",
"394 278 OFFCURVE",
"390 275 CURVE SMOOTH",
"385 271 OFFCURVE",
"384 266 OFFCURVE",
"384 260 CURVE SMOOTH",
"384 256 OFFCURVE",
"382 251 OFFCURVE",
"380 246 CURVE SMOOTH",
"380 244 OFFCURVE",
"378 242 OFFCURVE",
"378 240 CURVE SMOOTH",
"379 229 OFFCURVE",
"375 221 OFFCURVE",
"370 212 CURVE SMOOTH",
"369 211 OFFCURVE",
"368 210 OFFCURVE",
"368 209 CURVE SMOOTH",
"364 197 OFFCURVE",
"361 185 OFFCURVE",
"358 174 CURVE SMOOTH",
"356 168 OFFCURVE",
"352 161 OFFCURVE",
"354 156 CURVE SMOOTH",
"357 150 OFFCURVE",
"354 148 OFFCURVE",
"352 144 CURVE SMOOTH",
"347 137 OFFCURVE",
"342 131 OFFCURVE",
"343 122 CURVE SMOOTH",
"343 118 OFFCURVE",
"341 114 OFFCURVE",
"339 110 CURVE SMOOTH",
"334 102 OFFCURVE",
"326 95 OFFCURVE",
"325 87 CURVE SMOOTH",
"322 72 OFFCURVE",
"312 61 OFFCURVE",
"305 50 CURVE SMOOTH",
"293 29 OFFCURVE",
"270 18 OFFCURVE",
"254 1 CURVE SMOOTH",
"253 0 OFFCURVE",
"252 0 OFFCURVE",
"251 0 CURVE SMOOTH",
"238 1 OFFCURVE",
"226 2 OFFCURVE",
"214 3 CURVE",
"215 6 OFFCURVE",
"216 9 OFFCURVE",
"216 11 CURVE SMOOTH",
"209 20 OFFCURVE",
"202 28 OFFCURVE",
"196 37 CURVE SMOOTH",
"193 40 OFFCURVE",
"189 43 OFFCURVE",
"187 46 CURVE SMOOTH",
"185 50 OFFCURVE",
"184 54 OFFCURVE",
"182 58 CURVE SMOOTH",
"179 65 OFFCURVE",
"174 71 OFFCURVE",
"170 79 CURVE SMOOTH",
"168 83 OFFCURVE",
"169 89 OFFCURVE",
"166 92 CURVE SMOOTH",
"159 99 OFFCURVE",
"156 107 OFFCURVE",
"158 117 CURVE SMOOTH",
"158 124 OFFCURVE",
"155 128 OFFCURVE",
"147 127 CURVE SMOOTH",
"143 126 OFFCURVE",
"141 128 OFFCURVE",
"140 132 CURVE SMOOTH",
"136 144 OFFCURVE",
"131 155 OFFCURVE",
"126 169 CURVE",
"125 164 OFFCURVE",
"124 161 OFFCURVE",
"123 157 CURVE SMOOTH",
"122 144 OFFCURVE",
"121 132 OFFCURVE",
"119 119 CURVE SMOOTH",
"117 108 OFFCURVE",
"115 97 OFFCURVE",
"113 86 CURVE SMOOTH",
"110 74 OFFCURVE",
"108 62 OFFCURVE",
"105 50 CURVE SMOOTH",
"104 44 OFFCURVE",
"103 38 OFFCURVE",
"100 34 CURVE SMOOTH",
"95 26 OFFCURVE",
"88 19 OFFCURVE",
"81 11 CURVE SMOOTH",
"80 11 OFFCURVE",
"79 10 OFFCURVE",
"78 10 CURVE SMOOTH",
"71 7 OFFCURVE",
"65 5 OFFCURVE",
"58 3 CURVE SMOOTH",
"52 2 OFFCURVE",
"46 2 OFFCURVE",
"43 10 CURVE SMOOTH",
"43 12 OFFCURVE",
"42 13 OFFCURVE",
"41 14 CURVE SMOOTH",
"36 24 OFFCURVE",
"31 33 OFFCURVE",
"26 43 CURVE SMOOTH",
"25 45 OFFCURVE",
"24 46 OFFCURVE",
"23 48 CURVE SMOOTH",
"19 52 OFFCURVE",
"16 56 OFFCURVE",
"13 61 CURVE SMOOTH",
"10 66 OFFCURVE",
"8 70 OFFCURVE",
"1 68 CURVE SMOOTH",
"0 67 OFFCURVE",
"-2 68 OFFCURVE",
"-5 68 CURVE",
"-4 73 OFFCURVE",
"-3 77 OFFCURVE",
"-2 81 CURVE SMOOTH",
"-1 88 OFFCURVE",
"0 96 OFFCURVE",
"3 102 CURVE SMOOTH",
"6 109 OFFCURVE",
"9 116 OFFCURVE",
"7 125 CURVE SMOOTH",
"6 125 OFFCURVE",
"7 126 OFFCURVE",
"7 127 CURVE SMOOTH",
"11 142 OFFCURVE",
"16 157 OFFCURVE",
"19 172 CURVE SMOOTH",
"22 184 OFFCURVE",
"24 196 OFFCURVE",
"25 208 CURVE SMOOTH",
"26 212 OFFCURVE",
"24 216 OFFCURVE",
"23 221 CURVE",
"22 221 OFFCURVE",
"21 220 OFFCURVE",
"20 220 CURVE",
"20 216 OFFCURVE",
"19 211 OFFCURVE",
"19 207 CURVE",
"17 216 OFFCURVE",
"17 226 OFFCURVE",
"17 235 CURVE SMOOTH",
"17 237 OFFCURVE",
"20 239 OFFCURVE",
"22 240 CURVE SMOOTH",
"24 242 OFFCURVE",
"29 243 OFFCURVE",
"29 245 CURVE SMOOTH",
"30 251 OFFCURVE",
"30 258 OFFCURVE",
"30 266 CURVE",
"27 264 OFFCURVE",
"25 263 OFFCURVE",
"24 262 CURVE",
"20 272 OFFCURVE",
"28 270 OFFCURVE",
"34 273 CURVE",
"33 278 OFFCURVE",
"32 283 OFFCURVE",
"30 288 CURVE SMOOTH",
"27 295 OFFCURVE",
"27 299 OFFCURVE",
"35 303 CURVE SMOOTH",
"43 307 OFFCURVE",
"40 317 OFFCURVE",
"40 325 CURVE SMOOTH",
"40 328 OFFCURVE",
"37 330 OFFCURVE",
"34 334 CURVE",
"34 334 OFFCURVE",
"34 335 OFFCURVE",
"35 335 CURVE SMOOTH",
"42 339 OFFCURVE",
"41 345 OFFCURVE",
"37 349 CURVE SMOOTH",
"33 355 OFFCURVE",
"33 361 OFFCURVE",
"35 367 CURVE SMOOTH",
"38 377 OFFCURVE",
"41 387 OFFCURVE",
"44 396 CURVE SMOOTH",
"46 410 OFFCURVE",
"48 423 OFFCURVE",
"51 437 CURVE SMOOTH",
"53 450 OFFCURVE",
"55 463 OFFCURVE",
"58 476 CURVE SMOOTH",
"60 484 OFFCURVE",
"62 492 OFFCURVE",
"64 500 CURVE SMOOTH",
"66 504 OFFCURVE",
"70 507 OFFCURVE",
"72 511 CURVE SMOOTH",
"76 522 OFFCURVE",
"82 532 OFFCURVE",
"94 537 CURVE SMOOTH",
"103 541 OFFCURVE",
"112 546 OFFCURVE",
"122 550 CURVE SMOOTH",
"131 554 OFFCURVE",
"141 557 OFFCURVE",
"151 559 CURVE SMOOTH",
"155 560 OFFCURVE",
"161 561 OFFCURVE",
"163 559 CURVE SMOOTH",
"171 550 OFFCURVE",
"177 539 OFFCURVE",
"185 531 CURVE SMOOTH",
"195 522 OFFCURVE",
"200 510 OFFCURVE",
"201 498 CURVE SMOOTH",
"204 480 OFFCURVE",
"205 462 OFFCURVE",
"205 443 CURVE SMOOTH",
"205 432 OFFCURVE",
"203 421 OFFCURVE",
"202 410 CURVE SMOOTH",
"202 409 OFFCURVE",
"202 408 OFFCURVE",
"202 407 CURVE SMOOTH",
"203 402 OFFCURVE",
"205 396 OFFCURVE",
"205 390 CURVE SMOOTH",
"206 381 OFFCURVE",
"205 372 OFFCURVE",
"206 364 CURVE SMOOTH",
"208 348 OFFCURVE",
"210 332 OFFCURVE",
"212 316 CURVE SMOOTH",
"214 306 OFFCURVE",
"214 297 OFFCURVE",
"216 288 CURVE SMOOTH",
"218 278 OFFCURVE",
"221 269 OFFCURVE",
"222 259 CURVE SMOOTH",
"224 246 OFFCURVE",
"225 233 OFFCURVE",
"226 219 CURVE SMOOTH",
"226 218 OFFCURVE",
"226 218 OFFCURVE",
"227 217 CURVE SMOOTH",
"229 208 OFFCURVE",
"231 200 OFFCURVE",
"233 192 CURVE SMOOTH",
"234 188 OFFCURVE",
"236 185 OFFCURVE",
"238 181 CURVE",
"241 194 OFFCURVE",
"244 204 OFFCURVE",
"247 215 CURVE",
"251 217 OFFCURVE",
"254 219 OFFCURVE",
"256 222 CURVE SMOOTH",
"257 223 OFFCURVE",
"256 226 OFFCURVE",
"257 228 CURVE SMOOTH",
"259 236 OFFCURVE",
"262 245 OFFCURVE",
"264 253 CURVE SMOOTH",
"267 263 OFFCURVE",
"268 274 OFFCURVE",
"272 283 CURVE SMOOTH",
"273 286 OFFCURVE",
"276 290 OFFCURVE",
"281 286 CURVE SMOOTH",
"283 285 OFFCURVE",
"285 285 OFFCURVE",
"287 284 CURVE",
"288 284 OFFCURVE",
"288 285 OFFCURVE",
"289 285 CURVE",
"282 293 OFFCURVE",
"278 302 OFFCURVE",
"283 313 CURVE",
"287 313 OFFCURVE",
"291 313 OFFCURVE",
"294 313 CURVE",
"296 328 OFFCURVE",
"286 316 OFFCURVE",
"283 318 CURVE",
"281 326 OFFCURVE",
"286 341 OFFCURVE",
"291 343 CURVE SMOOTH",
"295 344 OFFCURVE",
"300 342 OFFCURVE",
"305 341 CURVE",
"310 349 OFFCURVE",
"307 362 OFFCURVE",
"297 366 CURVE",
"301 372 OFFCURVE",
"305 378 OFFCURVE",
"309 384 CURVE",
"308 384 OFFCURVE",
"308 384 OFFCURVE",
"307 385 CURVE",
"305 382 OFFCURVE",
"303 380 OFFCURVE",
"300 378 CURVE",
"300 378 OFFCURVE",
"299 379 OFFCURVE",
"299 379 CURVE",
"302 389 OFFCURVE",
"306 400 OFFCURVE",
"309 411 CURVE",
"314 409 OFFCURVE",
"318 407 OFFCURVE",
"321 406 CURVE",
"324 418 OFFCURVE",
"322 422 OFFCURVE",
"311 425 CURVE",
"313 428 OFFCURVE",
"314 431 OFFCURVE",
"315 434 CURVE SMOOTH",
"316 438 OFFCURVE",
"319 442 OFFCURVE",
"319 446 CURVE SMOOTH",
"321 458 OFFCURVE",
"321 470 OFFCURVE",
"323 481 CURVE SMOOTH",
"324 487 OFFCURVE",
"324 493 OFFCURVE",
"328 497 CURVE SMOOTH",
"334 504 OFFCURVE",
"333 511 OFFCURVE",
"333 518 CURVE SMOOTH",
"333 521 OFFCURVE",
"333 524 OFFCURVE",
"334 526 CURVE SMOOTH",
"341 538 OFFCURVE",
"346 550 OFFCURVE",
"347 565 CURVE SMOOTH",
"348 573 OFFCURVE",
"353 582 OFFCURVE",
"359 588 CURVE SMOOTH",
"365 594 OFFCURVE",
"373 599 OFFCURVE",
"380 603 CURVE SMOOTH",
"390 608 OFFCURVE",
"399 612 OFFCURVE",
"409 616 CURVE SMOOTH",
"413 618 OFFCURVE",
"418 620 OFFCURVE",
"423 623 CURVE"
);
}
);
width = 400;
}
);
unicode = 004E;
},
{
glyphname = O;
lastChange = "2020-11-21 14:56:28 +0000";
layers = (
{
layerId = "35B18FD4-EE95-4CAF-9F6E-40BA2ACEDFAA";
paths = (
{
closed = 1;
nodes = (
"279 550 OFFCURVE",
"284 550 OFFCURVE",
"288 550 CURVE",
"290 549 OFFCURVE",
"291 546 OFFCURVE",
"293 546 CURVE",
"303 548 OFFCURVE",
"310 543 OFFCURVE",
"318 539 CURVE",
"322 537 OFFCURVE",
"326 536 OFFCURVE",
"329 534 CURVE",
"340 527 OFFCURVE",
"350 520 OFFCURVE",
"355 507 CURVE",
"356 505 OFFCURVE",
"359 504 OFFCURVE",
"360 502 CURVE",
"365 498 OFFCURVE",
"370 495 OFFCURVE",
"373 490 CURVE",
"378 483 OFFCURVE",
"383 475 OFFCURVE",
"386 467 CURVE",
"393 452 OFFCURVE",
"400 438 OFFCURVE",
"405 423 CURVE",
"409 412 OFFCURVE",
"410 400 OFFCURVE",
"412 388 CURVE",
"413 387 OFFCURVE",
"415 386 OFFCURVE",
"416 385 CURVE",
"416 372 OFFCURVE",
"416 359 OFFCURVE",
"416 347 CURVE",
"415 345 OFFCURVE",
"413 343 OFFCURVE",
"413 341 CURVE",
"411 325 OFFCURVE",
"410 310 OFFCURVE",
"408 294 CURVE",
"408 292 OFFCURVE",
"408 290 OFFCURVE",
"407 288 CURVE",
"404 282 OFFCURVE",
"401 275 OFFCURVE",
"399 268 CURVE",
"395 259 OFFCURVE",
"395 248 OFFCURVE",
"390 240 CURVE",
"382 223 OFFCURVE",
"373 207 OFFCURVE",
"362 192 CURVE",
"349 174 OFFCURVE",
"334 158 OFFCURVE",
"319 142 CURVE",
"308 130 OFFCURVE",
"296 118 OFFCURVE",
"283 107 CURVE",
"277 101 OFFCURVE",
"269 97 OFFCURVE",
"262 92 CURVE",
"252 85 OFFCURVE",
"241 78 OFFCURVE",
"231 72 CURVE",
"229 71 OFFCURVE",
"227 71 OFFCURVE",
"225 71 CURVE",
"221 69 OFFCURVE",
"216 68 OFFCURVE",
"213 65 CURVE",
"206 61 OFFCURVE",
"201 54 OFFCURVE",
"194 51 CURVE",
"181 46 OFFCURVE",
"165 49 OFFCURVE",
"153 40 CURVE",
"151 39 OFFCURVE",
"149 39 OFFCURVE",
"147 38 CURVE",
"140 36 OFFCURVE",
"134 36 OFFCURVE",
"128 40 CURVE",
"121 45 OFFCURVE",
"114 49 OFFCURVE",
"106 50 CURVE",
"95 51 OFFCURVE",
"84 51 OFFCURVE",
"75 59 CURVE",
"75 60 OFFCURVE",
"74 60 OFFCURVE",
"73 60 CURVE",
"52 66 OFFCURVE",
"37 79 OFFCURVE",
"25 97 CURVE",
"20 105 OFFCURVE",
"13 111 OFFCURVE",
"11 121 CURVE",
"8 133 OFFCURVE",
"-4 143 OFFCURVE",
"-2 156 CURVE",
"0 167 OFFCURVE",
"-7 175 OFFCURVE",
"-9 185 CURVE",
"-11 192 OFFCURVE",
"-13 200 OFFCURVE",
"-9 204 CURVE",
"0 215 OFFCURVE",
"-7 223 OFFCURVE",
"-9 234 CURVE",
"-13 229 OFFCURVE",
"-15 226 OFFCURVE",
"-17 224 CURVE",
"-21 232 OFFCURVE",
"-17 251 OFFCURVE",
"-9 259 CURVE",
"-7 258 OFFCURVE",
"-6 256 OFFCURVE",
"-4 255 CURVE",
"-3 253 OFFCURVE",
"-3 251 OFFCURVE",
"-2 250 CURVE",
"0 251 OFFCURVE",
"4 252 OFFCURVE",
"4 254 CURVE",
"5 261 OFFCURVE",
"5 268 OFFCURVE",
"6 276 CURVE",
"1 274 OFFCURVE",
"-1 273 OFFCURVE",
"-5 271 CURVE",
"-4 277 OFFCURVE",
"-4 283 OFFCURVE",
"-2 287 CURVE",
"1 296 OFFCURVE",
"5 304 OFFCURVE",
"9 313 CURVE",
"12 319 OFFCURVE",
"15 326 OFFCURVE",
"19 333 CURVE",
"19 334 OFFCURVE",
"24 334 OFFCURVE",
"26 335 CURVE",
"28 335 OFFCURVE",
"32 334 OFFCURVE",
"33 335 CURVE",
"41 345 OFFCURVE",
"50 355 OFFCURVE",
"47 370 CURVE",
"46 372 OFFCURVE",
"47 374 OFFCURVE",
"47 376 CURVE",
"57 377 OFFCURVE",
"58 378 OFFCURVE",
"61 388 CURVE",
"61 389 OFFCURVE",
"62 390 OFFCURVE",
"63 391 CURVE",
"67 396 OFFCURVE",
"71 400 OFFCURVE",
"75 405 CURVE",
"76 407 OFFCURVE",
"78 411 OFFCURVE",
"77 412 CURVE",
"73 419 OFFCURVE",
"78 423 OFFCURVE",
"82 427 CURVE",
"88 434 OFFCURVE",
"95 442 OFFCURVE",
"103 449 CURVE",
"105 451 OFFCURVE",
"110 450 OFFCURVE",
"113 452 CURVE",
"124 458 OFFCURVE",
"132 467 OFFCURVE",
"138 478 CURVE",
"141 484 OFFCURVE",
"148 489 OFFCURVE",
"154 492 CURVE",
"165 498 OFFCURVE",
"175 503 OFFCURVE",
"183 512 CURVE",
"189 518 OFFCURVE",
"196 522 OFFCURVE",
"203 526 CURVE",
"213 531 OFFCURVE",
"225 535 OFFCURVE",
"236 538 CURVE",
"247 541 OFFCURVE",
"257 548 OFFCURVE",
"269 546 CURVE",
"270 546 OFFCURVE",
"273 549 OFFCURVE",
"275 550 CURVE"
);
},
{
closed = 1;
nodes = (
"315 351 OFFCURVE",
"313 351 OFFCURVE",
"312 351 CURVE",
"312 366 OFFCURVE",
"313 380 OFFCURVE",
"312 394 CURVE SMOOTH",
"311 405 OFFCURVE",
"307 415 OFFCURVE",
"304 425 CURVE SMOOTH",
"304 426 OFFCURVE",
"302 427 OFFCURVE",
"301 428 CURVE SMOOTH",
"288 436 OFFCURVE",
"273 441 OFFCURVE",
"257 443 CURVE SMOOTH",
"254 443 OFFCURVE",
"250 444 OFFCURVE",
"247 444 CURVE SMOOTH",
"244 444 OFFCURVE",
"241 445 OFFCURVE",
"238 444 CURVE SMOOTH",
"227 437 OFFCURVE",
"216 430 OFFCURVE",
"205 423 CURVE SMOOTH",
"200 420 OFFCURVE",
"194 416 OFFCURVE",
"189 411 CURVE SMOOTH",
"176 395 OFFCURVE",
"165 377 OFFCURVE",
"150 363 CURVE SMOOTH",
"135 348 OFFCURVE",
"126 329 OFFCURVE",
"116 311 CURVE SMOOTH",
"110 300 OFFCURVE",
"105 287 OFFCURVE",
"99 276 CURVE SMOOTH",
"95 265 OFFCURVE",
"90 255 OFFCURVE",
"85 245 CURVE SMOOTH",
"84 242 OFFCURVE",
"84 239 OFFCURVE",
"84 236 CURVE SMOOTH",
"83 233 OFFCURVE",
"83 230 OFFCURVE",
"82 227 CURVE SMOOTH",
"81 221 OFFCURVE",
"79 216 OFFCURVE",
"78 210 CURVE SMOOTH",
"77 207 OFFCURVE",
"78 204 OFFCURVE",
"77 201 CURVE SMOOTH",
"73 185 OFFCURVE",
"71 168 OFFCURVE",
"81 153 CURVE SMOOTH",
"87 144 OFFCURVE",
"104 135 OFFCURVE",
"112 136 CURVE SMOOTH",
"119 138 OFFCURVE",
"126 138 OFFCURVE",
"133 140 CURVE SMOOTH",
"140 142 OFFCURVE",
"148 143 OFFCURVE",
"155 146 CURVE SMOOTH",
"169 153 OFFCURVE",
"184 159 OFFCURVE",
"197 170 CURVE SMOOTH",
"204 176 OFFCURVE",
"214 180 OFFCURVE",
"221 188 CURVE SMOOTH",
"223 190 OFFCURVE",
"225 191 OFFCURVE",
"228 192 CURVE SMOOTH",
"231 194 OFFCURVE",
"235 196 OFFCURVE",
"236 198 CURVE SMOOTH",
"243 213 OFFCURVE",
"256 219 OFFCURVE",
"270 224 CURVE",
"270 225 OFFCURVE",
"271 227 OFFCURVE",
"271 228 CURVE SMOOTH",
"269 241 OFFCURVE",
"273 253 OFFCURVE",
"281 263 CURVE SMOOTH",
"283 266 OFFCURVE",
"287 268 OFFCURVE",
"288 271 CURVE SMOOTH",
"291 277 OFFCURVE",
"293 284 OFFCURVE",
"295 291 CURVE SMOOTH",
"298 299 OFFCURVE",
"301 306 OFFCURVE",
"311 307 CURVE",
"312 305 OFFCURVE",
"313 302 OFFCURVE",
"314 299 CURVE",
"317 303 OFFCURVE",
"320 306 OFFCURVE",
"321 310 CURVE SMOOTH",
"323 315 OFFCURVE",
"325 322 OFFCURVE",
"325 328 CURVE SMOOTH",
"325 338 OFFCURVE",
"325 349 OFFCURVE",
"324 359 CURVE SMOOTH",
"324 361 OFFCURVE",
"323 363 OFFCURVE",
"322 366 CURVE",
"319 359 OFFCURVE",
"318 355 OFFCURVE",
"316 350 CURVE"
);
}
);
width = 400;
}
);
unicode = 004F;
},
{
glyphname = P;
lastChange = "2020-11-21 14:56:44 +0000";
layers = (
{
layerId = "35B18FD4-EE95-4CAF-9F6E-40BA2ACEDFAA";
paths = (
{
closed = 1;
nodes = (
"400 381 OFFCURVE",
"397 378 OFFCURVE",
"396 376 CURVE",
"389 359 OFFCURVE",
"380 344 OFFCURVE",
"369 330 CURVE",
"357 315 OFFCURVE",
"345 303 OFFCURVE",
"331 292 CURVE",
"317 282 OFFCURVE",
"305 270 OFFCURVE",
"291 261 CURVE",
"278 253 OFFCURVE",
"262 249 OFFCURVE",
"249 240 CURVE",
"236 232 OFFCURVE",
"219 231 OFFCURVE",
"208 219 CURVE",
"206 216 OFFCURVE",
"200 217 OFFCURVE",
"196 218 CURVE",
"188 218 OFFCURVE",
"182 216 OFFCURVE",
"175 213 CURVE",
"169 210 OFFCURVE",
"160 212 OFFCURVE",
"153 212 CURVE",
"151 212 OFFCURVE",
"150 214 OFFCURVE",
"148 214 CURVE",
"140 214 OFFCURVE",
"125 197 OFFCURVE",
"123 189 CURVE",
"121 180 OFFCURVE",
"123 169 OFFCURVE",
"114 162 CURVE",
"113 161 OFFCURVE",
"113 159 OFFCURVE",
"113 157 CURVE",
"113 136 OFFCURVE",
"104 118 OFFCURVE",
"98 98 CURVE",
"96 92 OFFCURVE",
"94 85 OFFCURVE",
"93 78 CURVE",
"92 77 OFFCURVE",
"92 76 OFFCURVE",
"92 75 CURVE",
"89 67 OFFCURVE",
"84 60 OFFCURVE",
"83 51 CURVE",
"79 31 OFFCURVE",
"62 23 OFFCURVE",
"49 11 CURVE",
"44 8 OFFCURVE",
"39 5 OFFCURVE",
"34 2 CURVE",
"29 -2 OFFCURVE",
"23 1 OFFCURVE",
"20 7 CURVE",
"16 16 OFFCURVE",
"11 24 OFFCURVE",
"6 33 CURVE",
"1 43 OFFCURVE",
"-3 53 OFFCURVE",
"-7 63 CURVE",
"-9 67 OFFCURVE",
"-11 71 OFFCURVE",
"-13 72 CURVE",
"-21 77 OFFCURVE",
"-24 81 OFFCURVE",
"-21 90 CURVE",
"-16 103 OFFCURVE",
"-11 117 OFFCURVE",
"-8 130 CURVE",
"-6 140 OFFCURVE",
"-5 151 OFFCURVE",
"-4 161 CURVE",
"-4 171 OFFCURVE",
"2 178 OFFCURVE",
"6 187 CURVE",
"10 195 OFFCURVE",
"14 204 OFFCURVE",
"17 213 CURVE",
"19 219 OFFCURVE",
"19 227 OFFCURVE",
"21 234 CURVE",
"22 240 OFFCURVE",
"26 245 OFFCURVE",
"28 251 CURVE",
"30 259 OFFCURVE",
"32 269 OFFCURVE",
"34 278 CURVE",
"36 288 OFFCURVE",
"38 299 OFFCURVE",
"40 310 CURVE",
"42 318 OFFCURVE",
"41 327 OFFCURVE",
"44 334 CURVE",
"49 348 OFFCURVE",
"52 362 OFFCURVE",
"52 377 CURVE",
"51 382 OFFCURVE",
"54 387 OFFCURVE",
"55 392 CURVE",
"57 402 OFFCURVE",
"60 411 OFFCURVE",
"61 421 CURVE",
"63 431 OFFCURVE",
"64 442 OFFCURVE",
"66 453 CURVE",
"66 455 OFFCURVE",
"68 457 OFFCURVE",
"69 459 CURVE",
"70 460 OFFCURVE",
"71 463 OFFCURVE",
"71 464 CURVE",
"65 470 OFFCURVE",
"70 476 OFFCURVE",
"72 482 CURVE",
"74 490 OFFCURVE",
"75 498 OFFCURVE",
"75 506 CURVE",
"75 515 OFFCURVE",
"78 524 OFFCURVE",
"83 529 CURVE",
"91 538 OFFCURVE",
"95 547 OFFCURVE",
"98 558 CURVE",
"100 566 OFFCURVE",
"107 569 OFFCURVE",
"113 572 CURVE",
"122 577 OFFCURVE",
"131 581 OFFCURVE",
"141 585 CURVE",
"150 588 OFFCURVE",
"159 590 OFFCURVE",
"168 593 CURVE",
"178 595 OFFCURVE",
"189 598 OFFCURVE",
"199 600 CURVE",
"203 600 OFFCURVE",
"206 600 OFFCURVE",
"210 600 CURVE",
"214 595 OFFCURVE",
"219 590 OFFCURVE",
"226 596 CURVE",
"227 597 OFFCURVE",
"230 597 OFFCURVE",
"231 596 CURVE",
"237 594 OFFCURVE",
"242 590 OFFCURVE",
"248 590 CURVE",
"261 590 OFFCURVE",
"271 583 OFFCURVE",
"282 576 CURVE",
"295 569 OFFCURVE",
"309 564 OFFCURVE",
"320 553 CURVE",
"327 546 OFFCURVE",
"335 540 OFFCURVE",
"342 534 CURVE",
"348 528 OFFCURVE",
"352 522 OFFCURVE",
"357 517 CURVE",
"359 513 OFFCURVE",
"362 510 OFFCURVE",
"364 506 CURVE",
"371 495 OFFCURVE",
"378 483 OFFCURVE",
"384 472 CURVE",
"387 467 OFFCURVE",
"390 462 OFFCURVE",
"392 457 CURVE",
"395 447 OFFCURVE",
"396 437 OFFCURVE",
"399 428 CURVE",
"399 426 OFFCURVE",
"401 424 OFFCURVE",
"403 423 CURVE",
"403 410 OFFCURVE",
"403 396 OFFCURVE",
"403 383 CURVE"
);
},
{
closed = 1;
nodes = (
"214 495 OFFCURVE",
"213 491 OFFCURVE",
"211 490 CURVE SMOOTH",
"208 488 OFFCURVE",
"204 487 OFFCURVE",
"200 486 CURVE SMOOTH",
"186 484 OFFCURVE",
"183 482 OFFCURVE",
"182 468 CURVE SMOOTH",
"182 467 OFFCURVE",
"182 465 OFFCURVE",
"181 464 CURVE SMOOTH",
"177 455 OFFCURVE",
"175 446 OFFCURVE",
"175 435 CURVE SMOOTH",
"175 428 OFFCURVE",
"172 420 OFFCURVE",
"171 412 CURVE SMOOTH",
"170 409 OFFCURVE",
"169 405 OFFCURVE",
"168 402 CURVE SMOOTH",
"167 389 OFFCURVE",
"166 377 OFFCURVE",
"165 364 CURVE SMOOTH",
"165 363 OFFCURVE",
"163 361 OFFCURVE",
"163 360 CURVE SMOOTH",
"160 347 OFFCURVE",
"157 335 OFFCURVE",
"155 323 CURVE SMOOTH",
"154 321 OFFCURVE",
"157 317 OFFCURVE",
"159 317 CURVE SMOOTH",
"162 316 OFFCURVE",
"167 316 OFFCURVE",
"170 318 CURVE SMOOTH",
"187 327 OFFCURVE",
"204 336 OFFCURVE",
"221 344 CURVE SMOOTH",
"225 346 OFFCURVE",
"228 347 OFFCURVE",
"232 348 CURVE SMOOTH",
"236 350 OFFCURVE",
"241 351 OFFCURVE",
"244 354 CURVE SMOOTH",
"252 363 OFFCURVE",
"260 374 OFFCURVE",
"272 378 CURVE SMOOTH",
"282 381 OFFCURVE",
"288 387 OFFCURVE",
"294 394 CURVE SMOOTH",
"296 396 OFFCURVE",
"296 398 OFFCURVE",
"301 398 CURVE SMOOTH",
"308 397 OFFCURVE",
"313 407 OFFCURVE",
"310 414 CURVE SMOOTH",
"304 428 OFFCURVE",
"298 441 OFFCURVE",
"291 455 CURVE SMOOTH",
"289 458 OFFCURVE",
"284 462 OFFCURVE",
"283 461 CURVE SMOOTH",
"278 457 OFFCURVE",
"277 463 OFFCURVE",
"275 464 CURVE SMOOTH",
"271 466 OFFCURVE",
"268 467 OFFCURVE",
"264 469 CURVE SMOOTH",
"258 471 OFFCURVE",
"251 472 OFFCURVE",
"250 483 CURVE",
"254 482 OFFCURVE",
"258 481 OFFCURVE",
"262 480 CURVE",
"259 489 OFFCURVE",
"252 490 OFFCURVE",
"245 491 CURVE SMOOTH",
"234 493 OFFCURVE",
"226 504 OFFCURVE",
"215 498 CURVE"
);
}
);
width = 360;
}
);
unicode = 0050;
},
{
glyphname = Q;
lastChange = "2020-11-21 14:56:41 +0000";
layers = (
{
layerId = "35B18FD4-EE95-4CAF-9F6E-40BA2ACEDFAA";
paths = (
{
closed = 1;
nodes = (
"364 368 OFFCURVE",
"362 366 OFFCURVE",
"362 363 CURVE",
"363 345 OFFCURVE",
"357 328 OFFCURVE",
"353 311 CURVE",
"350 294 OFFCURVE",
"343 280 OFFCURVE",
"336 266 CURVE",
"329 251 OFFCURVE",
"319 238 OFFCURVE",
"309 225 CURVE",
"294 206 OFFCURVE",
"279 189 OFFCURVE",
"262 173 CURVE",
"256 167 OFFCURVE",
"248 162 OFFCURVE",
"241 157 CURVE",
"233 153 OFFCURVE",
"232 147 OFFCURVE",
"235 139 CURVE",
"240 126 OFFCURVE",
"244 112 OFFCURVE",
"248 98 CURVE",
"252 86 OFFCURVE",
"259 74 OFFCURVE",
"260 62 CURVE",
"262 50 OFFCURVE",
"266 40 OFFCURVE",
"269 30 CURVE",
"271 24 OFFCURVE",
"274 18 OFFCURVE",
"277 12 CURVE",
"278 10 OFFCURVE",
"279 8 OFFCURVE",
"279 5 CURVE",
"277 -7 OFFCURVE",
"283 -17 OFFCURVE",
"289 -27 CURVE",
"291 -32 OFFCURVE",
"292 -37 OFFCURVE",
"293 -43 CURVE",
"293 -52 OFFCURVE",
"293 -62 OFFCURVE",
"293 -71 CURVE",
"292 -83 OFFCURVE",
"285 -93 OFFCURVE",
"276 -100 CURVE",
"271 -104 OFFCURVE",
"253 -101 OFFCURVE",
"247 -95 CURVE",
"239 -85 OFFCURVE",
"232 -75 OFFCURVE",
"224 -65 CURVE",
"222 -62 OFFCURVE",
"219 -59 OFFCURVE",
"215 -55 CURVE",
"222 -43 OFFCURVE",
"209 -36 OFFCURVE",
"205 -26 CURVE",
"203 -21 OFFCURVE",
"200 -17 OFFCURVE",
"200 -12 CURVE",
"199 3 OFFCURVE",
"194 16 OFFCURVE",
"186 28 CURVE",
"185 30 OFFCURVE",
"183 32 OFFCURVE",
"183 33 CURVE",
"183 45 OFFCURVE",
"181 56 OFFCURVE",
"176 68 CURVE",
"171 79 OFFCURVE",
"169 92 OFFCURVE",
"166 104 CURVE",
"164 110 OFFCURVE",
"157 112 OFFCURVE",
"151 109 CURVE",
"146 106 OFFCURVE",
"139 101 OFFCURVE",
"134 102 CURVE",
"126 105 OFFCURVE",
"121 100 OFFCURVE",
"114 99 CURVE",
"108 97 OFFCURVE",
"102 99 OFFCURVE",
"99 106 CURVE",
"98 108 OFFCURVE",
"97 109 OFFCURVE",
"95 111 CURVE",
"87 99 OFFCURVE",
"82 99 OFFCURVE",
"69 112 CURVE",
"66 115 OFFCURVE",
"64 119 OFFCURVE",
"60 121 CURVE",
"54 126 OFFCURVE",
"47 129 OFFCURVE",
"42 134 CURVE",
"34 141 OFFCURVE",
"27 149 OFFCURVE",
"22 157 CURVE",
"16 167 OFFCURVE",
"11 177 OFFCURVE",
"6 187 CURVE",
"2 195 OFFCURVE",
"0 203 OFFCURVE",
"0 212 CURVE",
"0 223 OFFCURVE",
"-4 234 OFFCURVE",
"-4 244 CURVE",
"-4 257 OFFCURVE",
"-1 271 OFFCURVE",
"0 284 CURVE",
"0 292 OFFCURVE",
"0 300 OFFCURVE",
"1 309 CURVE",
"1 311 OFFCURVE",
"2 314 OFFCURVE",
"4 317 CURVE",
"6 321 OFFCURVE",
"11 325 OFFCURVE",
"5 330 CURVE",
"3 332 OFFCURVE",
"6 338 OFFCURVE",
"6 341 CURVE",
"7 341 OFFCURVE",
"8 341 OFFCURVE",
"9 341 CURVE",
"10 340 OFFCURVE",
"11 338 OFFCURVE",
"12 336 CURVE",
"23 344 OFFCURVE",
"26 351 OFFCURVE",
"23 360 CURVE",
"26 365 OFFCURVE",
"29 369 OFFCURVE",
"32 373 CURVE",
"32 373 OFFCURVE",
"32 374 OFFCURVE",
"32 375 CURVE",
"44 382 OFFCURVE",
"44 396 OFFCURVE",
"53 406 CURVE",
"62 415 OFFCURVE",
"70 425 OFFCURVE",
"77 436 CURVE",
"84 445 OFFCURVE",
"90 456 OFFCURVE",
"96 466 CURVE",
"99 471 OFFCURVE",
"103 476 OFFCURVE",
"108 478 CURVE",
"115 483 OFFCURVE",
"119 491 OFFCURVE",
"128 492 CURVE",
"133 493 OFFCURVE",
"136 501 OFFCURVE",
"140 505 CURVE",
"144 509 OFFCURVE",
"148 514 OFFCURVE",
"153 517 CURVE",
"177 529 OFFCURVE",
"202 540 OFFCURVE",
"226 551 CURVE",
"233 554 OFFCURVE",
"242 555 OFFCURVE",
"249 556 CURVE",
"252 556 OFFCURVE",
"256 552 OFFCURVE",
"259 551 CURVE",
"262 550 OFFCURVE",
"265 550 OFFCURVE",
"268 549 CURVE",
"271 548 OFFCURVE",
"275 548 OFFCURVE",
"277 545 CURVE",
"283 539 OFFCURVE",
"287 532 OFFCURVE",
"292 526 CURVE",
"303 511 OFFCURVE",
"316 497 OFFCURVE",
"327 482 CURVE",
"334 473 OFFCURVE",
"338 462 OFFCURVE",
"345 452 CURVE",
"354 440 OFFCURVE",
"354 426 OFFCURVE",
"358 412 CURVE",
"360 405 OFFCURVE",
"360 396 OFFCURVE",
"362 389 CURVE",
"362 386 OFFCURVE",
"364 383 OFFCURVE",
"365 381 CURVE",
"365 377 OFFCURVE",
"365 374 OFFCURVE",
"365 370 CURVE"
);
},
{
closed = 1;
nodes = (
"265 380 OFFCURVE",
"265 386 OFFCURVE",
"265 392 CURVE SMOOTH",
"265 398 OFFCURVE",
"266 406 OFFCURVE",
"263 412 CURVE SMOOTH",
"254 428 OFFCURVE",
"236 431 OFFCURVE",
"220 435 CURVE SMOOTH",
"213 437 OFFCURVE",
"206 436 OFFCURVE",
"206 445 CURVE",
"202 443 OFFCURVE",
"199 441 OFFCURVE",
"196 439 CURVE SMOOTH",
"191 436 OFFCURVE",
"186 434 OFFCURVE",
"182 430 CURVE SMOOTH",
"177 426 OFFCURVE",
"173 421 OFFCURVE",
"169 417 CURVE SMOOTH",
"155 402 OFFCURVE",
"142 388 OFFCURVE",
"129 373 CURVE SMOOTH",
"125 369 OFFCURVE",
"121 364 OFFCURVE",
"118 359 CURVE SMOOTH",
"108 343 OFFCURVE",
"99 326 OFFCURVE",
"90 310 CURVE SMOOTH",
"84 297 OFFCURVE",
"79 284 OFFCURVE",
"73 271 CURVE SMOOTH",
"73 270 OFFCURVE",
"73 269 OFFCURVE",
"73 268 CURVE SMOOTH",
"73 259 OFFCURVE",
"75 249 OFFCURVE",
"72 242 CURVE SMOOTH",
"68 233 OFFCURVE",
"74 227 OFFCURVE",
"74 219 CURVE SMOOTH",
"74 215 OFFCURVE",
"77 208 OFFCURVE",
"80 206 CURVE SMOOTH",
"88 202 OFFCURVE",
"98 198 OFFCURVE",
"107 198 CURVE SMOOTH",
"118 199 OFFCURVE",
"130 202 OFFCURVE",
"141 206 CURVE SMOOTH",
"151 209 OFFCURVE",
"160 214 OFFCURVE",
"169 221 CURVE SMOOTH",
"179 229 OFFCURVE",
"187 238 OFFCURVE",
"196 247 CURVE SMOOTH",
"200 251 OFFCURVE",
"203 256 OFFCURVE",
"207 260 CURVE SMOOTH",
"212 264 OFFCURVE",
"218 269 OFFCURVE",
"223 268 CURVE SMOOTH",
"230 267 OFFCURVE",
"231 269 OFFCURVE",
"231 275 CURVE SMOOTH",
"232 292 OFFCURVE",
"238 308 OFFCURVE",
"249 321 CURVE SMOOTH",
"252 325 OFFCURVE",
"254 330 OFFCURVE",
"258 336 CURVE",
"260 335 OFFCURVE",
"264 333 OFFCURVE",
"268 331 CURVE",
"275 336 OFFCURVE",
"274 341 OFFCURVE",
"267 350 CURVE",
"265 348 OFFCURVE",
"263 345 OFFCURVE",
"261 342 CURVE",
"259 345 OFFCURVE",
"259 348 OFFCURVE",
"260 350 CURVE SMOOTH",
"263 366 OFFCURVE",
"263 366 OFFCURVE",
"275 368 CURVE",
"275 370 OFFCURVE",
"275 372 OFFCURVE",
"274 375 CURVE",
"271 374 OFFCURVE",
"269 374 OFFCURVE",
"265 373 CURVE"
);
}
);
width = 350;
}
);
unicode = 0051;
},
{
glyphname = R;
lastChange = "2020-11-21 14:57:19 +0000";
layers = (
{
layerId = "35B18FD4-EE95-4CAF-9F6E-40BA2ACEDFAA";
paths = (
{
closed = 1;
nodes = (
"477 -7 OFFCURVE",
"368 -34 OFFCURVE",
"353 -24 CURVE",
"345 -19 OFFCURVE",
"339 -11 OFFCURVE",
"332 -6 CURVE",
"331 -5 OFFCURVE",
"331 -2 OFFCURVE",
"331 -1 CURVE",
"338 -3 OFFCURVE",
"341 -12 OFFCURVE",
"350 -9 CURVE",
"342 2 OFFCURVE",
"335 12 OFFCURVE",
"327 21 CURVE",
"316 36 OFFCURVE",
"303 50 OFFCURVE",
"292 64 CURVE",
"291 65 OFFCURVE",
"290 67 OFFCURVE",
"290 68 CURVE",
"292 78 OFFCURVE",
"284 84 OFFCURVE",
"280 92 CURVE",
"279 93 OFFCURVE",
"277 93 OFFCURVE",
"277 94 CURVE",
"279 110 OFFCURVE",
"261 118 OFFCURVE",
"261 132 CURVE",
"261 138 OFFCURVE",
"258 144 OFFCURVE",
"258 150 CURVE",
"257 150 OFFCURVE",
"256 150 OFFCURVE",
"255 150 CURVE",
"257 152 OFFCURVE",
"258 155 OFFCURVE",
"260 158 CURVE",
"256 159 OFFCURVE",
"253 159 OFFCURVE",
"249 161 CURVE",
"249 162 OFFCURVE",
"249 164 OFFCURVE",
"249 165 CURVE",
"244 172 OFFCURVE",
"243 180 OFFCURVE",
"247 187 CURVE",
"249 191 OFFCURVE",
"249 196 OFFCURVE",
"243 200 CURVE",
"239 202 OFFCURVE",
"234 208 OFFCURVE",
"240 215 CURVE",
"232 216 OFFCURVE",
"229 220 OFFCURVE",
"227 228 CURVE",
"226 234 OFFCURVE",
"222 239 OFFCURVE",
"219 245 CURVE",
"217 249 OFFCURVE",
"216 253 OFFCURVE",
"215 257 CURVE",
"213 259 OFFCURVE",
"212 261 OFFCURVE",
"209 265 CURVE",
"214 275 OFFCURVE",
"206 289 OFFCURVE",
"184 294 CURVE",
"182 294 OFFCURVE",
"180 294 OFFCURVE",
"178 293 CURVE",
"172 287 OFFCURVE",
"164 286 OFFCURVE",
"157 288 CURVE",
"150 288 OFFCURVE",
"147 285 OFFCURVE",
"146 279 CURVE",
"144 267 OFFCURVE",
"143 255 OFFCURVE",
"141 243 CURVE",
"141 239 OFFCURVE",
"140 235 OFFCURVE",
"139 231 CURVE",
"138 230 OFFCURVE",
"138 229 OFFCURVE",
"138 228 CURVE",
"143 221 OFFCURVE",
"138 214 OFFCURVE",
"138 207 CURVE",
"138 194 OFFCURVE",
"134 181 OFFCURVE",
"131 168 CURVE",
"130 161 OFFCURVE",
"131 153 OFFCURVE",
"131 146 CURVE",
"130 143 OFFCURVE",
"130 139 OFFCURVE",
"129 137 CURVE",
"125 132 OFFCURVE",
"123 128 OFFCURVE",
"126 121 CURVE",
"128 117 OFFCURVE",
"124 111 OFFCURVE",
"123 106 CURVE",
"122 102 OFFCURVE",
"121 99 OFFCURVE",
"120 95 CURVE",
"119 86 OFFCURVE",
"118 77 OFFCURVE",
"116 68 CURVE",
"116 63 OFFCURVE",
"115 57 OFFCURVE",
"114 52 CURVE",
"112 47 OFFCURVE",
"111 42 OFFCURVE",
"110 37 CURVE",
"106 26 OFFCURVE",
"103 16 OFFCURVE",
"100 5 CURVE",
"99 2 OFFCURVE",
"98 -2 OFFCURVE",
"96 -5 CURVE",
"89 -12 OFFCURVE",
"82 -20 OFFCURVE",
"74 -27 CURVE",
"71 -29 OFFCURVE",
"65 -29 OFFCURVE",
"61 -28 CURVE",
"45 -23 OFFCURVE",
"29 -16 OFFCURVE",
"26 4 CURVE",
"26 9 OFFCURVE",
"21 14 OFFCURVE",
"18 19 CURVE",
"17 22 OFFCURVE",
"16 25 OFFCURVE",
"14 29 CURVE",
"13 31 OFFCURVE",
"12 33 OFFCURVE",
"10 37 CURVE",
"7 34 OFFCURVE",
"4 32 OFFCURVE",
"0 29 CURVE",
"-1 43 OFFCURVE",
"-2 55 OFFCURVE",
"8 67 CURVE",
"12 72 OFFCURVE",
"13 80 OFFCURVE",
"16 86 CURVE",
"20 84 OFFCURVE",
"13 74 OFFCURVE",
"24 74 CURVE",
"24 81 OFFCURVE",
"24 87 OFFCURVE",
"24 94 CURVE",
"20 93 OFFCURVE",
"18 92 OFFCURVE",
"12 90 CURVE",
"17 107 OFFCURVE",
"21 121 OFFCURVE",
"25 136 CURVE",
"28 136 OFFCURVE",
"30 136 OFFCURVE",
"36 136 CURVE",
"33 140 OFFCURVE",
"31 143 OFFCURVE",
"30 145 CURVE",
"29 145 OFFCURVE",
"29 144 OFFCURVE",
"28 144 CURVE",
"28 147 OFFCURVE",
"28 150 OFFCURVE",
"28 153 CURVE",
"31 151 OFFCURVE",
"34 149 OFFCURVE",
"37 147 CURVE",
"37 153 OFFCURVE",
"42 159 OFFCURVE",
"32 161 CURVE",
"31 161 OFFCURVE",
"29 165 OFFCURVE",
"29 168 CURVE",
"29 173 OFFCURVE",
"30 178 OFFCURVE",
"31 184 CURVE",
"32 200 OFFCURVE",
"33 215 OFFCURVE",
"35 231 CURVE",
"36 235 OFFCURVE",
"40 238 OFFCURVE",
"43 241 CURVE",
"40 243 OFFCURVE",
"37 243 OFFCURVE",
"35 245 CURVE",
"34 247 OFFCURVE",
"35 250 OFFCURVE",
"35 255 CURVE",
"39 253 OFFCURVE",
"41 251 OFFCURVE",
"44 249 CURVE",
"46 253 OFFCURVE",
"48 258 OFFCURVE",
"47 261 CURVE",
"47 263 OFFCURVE",
"42 264 OFFCURVE",
"38 266 CURVE",
"38 269 OFFCURVE",
"38 274 OFFCURVE",
"38 279 CURVE",
"39 279 OFFCURVE",
"40 279 OFFCURVE",
"40 278 CURVE",
"43 282 OFFCURVE",
"46 285 OFFCURVE",
"47 289 CURVE",
"48 291 OFFCURVE",
"45 293 OFFCURVE",
"43 296 CURVE",
"61 306 OFFCURVE",
"54 324 OFFCURVE",
"55 340 CURVE",
"55 341 OFFCURVE",
"50 344 OFFCURVE",
"48 344 CURVE",
"42 342 OFFCURVE",
"41 345 OFFCURVE",
"42 349 CURVE",
"43 352 OFFCURVE",
"44 356 OFFCURVE",
"45 359 CURVE",
"46 362 OFFCURVE",
"46 366 OFFCURVE",
"47 370 CURVE",
"49 369 OFFCURVE",
"51 368 OFFCURVE",
"54 367 CURVE",
"54 367 OFFCURVE",
"55 367 OFFCURVE",
"55 368 CURVE",
"54 370 OFFCURVE",
"52 372 OFFCURVE",
"51 374 CURVE",
"50 378 OFFCURVE",
"49 382 OFFCURVE",
"48 386 CURVE",
"49 386 OFFCURVE",
"49 387 OFFCURVE",
"50 387 CURVE",
"51 385 OFFCURVE",
"52 383 OFFCURVE",
"53 382 CURVE",
"54 400 OFFCURVE",
"72 417 OFFCURVE",
"60 437 CURVE",
"58 434 OFFCURVE",
"56 430 OFFCURVE",
"53 426 CURVE",
"46 431 OFFCURVE",
"50 453 OFFCURVE",
"64 473 CURVE",
"66 470 OFFCURVE",
"68 468 OFFCURVE",
"70 465 CURVE",
"79 471 OFFCURVE",
"75 480 OFFCURVE",
"75 488 CURVE",
"75 494 OFFCURVE",
"75 502 OFFCURVE",
"78 506 CURVE",
"87 515 OFFCURVE",
"89 525 OFFCURVE",
"92 536 CURVE",
"96 549 OFFCURVE",
"103 561 OFFCURVE",
"114 569 CURVE",
"133 583 OFFCURVE",
"152 596 OFFCURVE",
"172 608 CURVE",
"179 613 OFFCURVE",
"188 613 OFFCURVE",
"196 617 CURVE",
"207 622 OFFCURVE",
"218 628 OFFCURVE",
"230 632 CURVE",
"244 637 OFFCURVE",
"258 640 OFFCURVE",
"272 643 CURVE",
"295 647 OFFCURVE",
"318 644 OFFCURVE",
"341 645 CURVE",
"346 646 OFFCURVE",
"351 644 OFFCURVE",
"355 642 CURVE",
"368 636 OFFCURVE",
"382 630 OFFCURVE",
"391 617 CURVE",
"396 609 OFFCURVE",
"401 600 OFFCURVE",
"406 591 CURVE",
"411 583 OFFCURVE",
"415 574 OFFCURVE",
"419 565 CURVE",
"420 564 OFFCURVE",
"420 563 OFFCURVE",
"420 562 CURVE",
"421 548 OFFCURVE",
"423 533 OFFCURVE",
"423 518 CURVE",
"423 508 OFFCURVE",
"418 497 OFFCURVE",
"417 486 CURVE",
"416 475 OFFCURVE",
"414 466 OFFCURVE",
"410 457 CURVE",
"408 453 OFFCURVE",
"404 449 OFFCURVE",
"403 445 CURVE",
"395 426 OFFCURVE",
"380 412 OFFCURVE",
"366 396 CURVE",
"356 384 OFFCURVE",
"343 374 OFFCURVE",
"331 365 CURVE",
"322 359 OFFCURVE",
"314 352 OFFCURVE",
"305 346 CURVE",
"300 343 OFFCURVE",
"295 341 OFFCURVE",
"289 339 CURVE",
"279 336 OFFCURVE",
"278 333 OFFCURVE",
"297 308 CURVE",
"306 288 OFFCURVE",
"314 267 OFFCURVE",
"323 247 CURVE",
"329 232 OFFCURVE",
"334 217 OFFCURVE",
"338 202 CURVE",
"340 198 OFFCURVE",
"339 193 OFFCURVE",
"340 189 CURVE",
"345 177 OFFCURVE",
"349 167 OFFCURVE",
"353 155 CURVE",
"359 142 OFFCURVE",
"363 129 OFFCURVE",
"369 115 CURVE",
"370 112 OFFCURVE",
"374 109 OFFCURVE",
"376 106 CURVE",
"378 102 OFFCURVE",
"380 98 OFFCURVE",
"383 93 CURVE",
"385 91 OFFCURVE",
"389 89 OFFCURVE",
"392 86 CURVE"
);
},
{
closed = 1;
nodes = (
"313 503 OFFCURVE",
"310 514 OFFCURVE",
"315 525 CURVE SMOOTH",
"316 529 OFFCURVE",
"317 534 OFFCURVE",
"316 539 CURVE SMOOTH",
"315 543 OFFCURVE",
"310 546 OFFCURVE",
"307 549 CURVE",
"304 546 OFFCURVE",
"302 543 OFFCURVE",
"299 541 CURVE SMOOTH",
"294 537 OFFCURVE",
"289 534 OFFCURVE",
"284 532 CURVE SMOOTH",
"277 530 OFFCURVE",
"270 531 OFFCURVE",
"263 529 CURVE SMOOTH",
"255 527 OFFCURVE",
"248 523 OFFCURVE",
"241 522 CURVE SMOOTH",
"227 520 OFFCURVE",
"216 514 OFFCURVE",
"206 505 CURVE SMOOTH",
"195 494 OFFCURVE",
"184 482 OFFCURVE",
"175 470 CURVE SMOOTH",
"170 463 OFFCURVE",
"168 454 OFFCURVE",
"165 446 CURVE SMOOTH",
"163 438 OFFCURVE",
"163 430 OFFCURVE",
"161 422 CURVE SMOOTH",
"158 414 OFFCURVE",
"163 406 OFFCURVE",
"172 408 CURVE SMOOTH",
"182 410 OFFCURVE",
"191 413 OFFCURVE",
"200 416 CURVE SMOOTH",
"215 422 OFFCURVE",
"229 429 OFFCURVE",
"244 436 CURVE SMOOTH",
"248 437 OFFCURVE",
"253 439 OFFCURVE",
"255 442 CURVE SMOOTH",
"260 452 OFFCURVE",
"270 456 OFFCURVE",
"279 460 CURVE SMOOTH",
"281 461 OFFCURVE",
"282 462 OFFCURVE",
"284 464 CURVE SMOOTH",
"292 474 OFFCURVE",
"299 484 OFFCURVE",
"307 493 CURVE SMOOTH",
"309 496 OFFCURVE",
"312 497 OFFCURVE",
"315 500 CURVE",
"314 495 OFFCURVE",
"314 492 OFFCURVE",
"313 488 CURVE",
"314 488 OFFCURVE",
"315 488 OFFCURVE",
"315 488 CURVE",
"318 491 OFFCURVE",
"321 495 OFFCURVE",
"325 500 CURVE"
);
}
);
width = 400;
}
);
unicode = 0052;
},
{
glyphname = S;
lastChange = "2020-11-21 14:57:29 +0000";
layers = (
{
layerId = "35B18FD4-EE95-4CAF-9F6E-40BA2ACEDFAA";
paths = (
{
closed = 1;
nodes = (
"290 536 OFFCURVE",
"291 534 OFFCURVE",
"292 533 CURVE SMOOTH",
"298 532 OFFCURVE",
"304 531 OFFCURVE",
"311 530 CURVE SMOOTH",
"341 524 OFFCURVE",
"366 510 OFFCURVE",
"379 479 CURVE SMOOTH",
"384 468 OFFCURVE",
"383 457 OFFCURVE",
"380 444 CURVE SMOOTH",
"378 432 OFFCURVE",
"371 422 OFFCURVE",
"368 410 CURVE SMOOTH",
"366 405 OFFCURVE",
"364 400 OFFCURVE",
"355 401 CURVE SMOOTH",
"352 401 OFFCURVE",
"348 395 OFFCURVE",
"344 391 CURVE SMOOTH",
"342 390 OFFCURVE",
"341 389 OFFCURVE",
"339 386 CURVE",
"337 400 OFFCURVE",
"336 413 OFFCURVE",
"335 425 CURVE SMOOTH",
"334 430 OFFCURVE",
"332 434 OFFCURVE",
"331 438 CURVE SMOOTH",
"330 441 OFFCURVE",
"328 444 OFFCURVE",
"328 446 CURVE SMOOTH",
"330 457 OFFCURVE",
"328 461 OFFCURVE",
"318 464 CURVE SMOOTH",
"308 466 OFFCURVE",
"299 466 OFFCURVE",
"289 462 CURVE SMOOTH",
"284 460 OFFCURVE",
"277 462 OFFCURVE",
"271 460 CURVE SMOOTH",
"267 459 OFFCURVE",
"262 456 OFFCURVE",
"258 454 CURVE SMOOTH",
"254 452 OFFCURVE",
"249 450 OFFCURVE",
"244 450 CURVE SMOOTH",
"235 450 OFFCURVE",
"226 451 OFFCURVE",
"219 441 CURVE SMOOTH",
"215 436 OFFCURVE",
"204 436 OFFCURVE",
"197 433 CURVE SMOOTH",
"191 431 OFFCURVE",
"185 429 OFFCURVE",
"180 425 CURVE SMOOTH",
"165 413 OFFCURVE",
"150 402 OFFCURVE",
"137 388 CURVE SMOOTH",
"126 376 OFFCURVE",
"119 361 OFFCURVE",
"111 347 CURVE SMOOTH",
"109 343 OFFCURVE",
"108 339 OFFCURVE",
"107 335 CURVE SMOOTH",
"106 328 OFFCURVE",
"109 322 OFFCURVE",
"114 317 CURVE SMOOTH",
"117 314 OFFCURVE",
"119 310 OFFCURVE",
"122 307 CURVE SMOOTH",
"126 304 OFFCURVE",
"131 301 OFFCURVE",
"136 299 CURVE SMOOTH",
"144 296 OFFCURVE",
"153 294 OFFCURVE",
"160 286 CURVE SMOOTH",
"162 283 OFFCURVE",
"169 281 OFFCURVE",
"173 282 CURVE SMOOTH",
"183 283 OFFCURVE",
"189 279 OFFCURVE",
"197 273 CURVE SMOOTH",
"200 271 OFFCURVE",
"203 267 OFFCURVE",
"209 270 CURVE SMOOTH",
"211 271 OFFCURVE",
"215 268 OFFCURVE",
"218 267 CURVE SMOOTH",
"226 264 OFFCURVE",
"234 261 OFFCURVE",
"242 258 CURVE SMOOTH",
"245 256 OFFCURVE",
"248 256 OFFCURVE",
"251 254 CURVE SMOOTH",
"266 246 OFFCURVE",
"284 242 OFFCURVE",
"294 225 CURVE SMOOTH",
"301 215 OFFCURVE",
"312 206 OFFCURVE",
"315 195 CURVE SMOOTH",
"318 181 OFFCURVE",
"330 169 OFFCURVE",
"328 152 CURVE SMOOTH",
"327 147 OFFCURVE",
"328 142 OFFCURVE",
"327 137 CURVE SMOOTH",
"327 134 OFFCURVE",
"326 131 OFFCURVE",
"324 129 CURVE SMOOTH",
"319 122 OFFCURVE",
"315 116 OFFCURVE",
"309 110 CURVE SMOOTH",
"299 101 OFFCURVE",
"288 93 OFFCURVE",
"278 85 CURVE SMOOTH",
"270 80 OFFCURVE",
"263 74 OFFCURVE",
"255 70 CURVE SMOOTH",
"248 66 OFFCURVE",
"243 60 OFFCURVE",
"233 61 CURVE SMOOTH",
"229 61 OFFCURVE",
"224 57 OFFCURVE",
"220 55 CURVE SMOOTH",
"209 49 OFFCURVE",
"198 45 OFFCURVE",
"185 44 CURVE SMOOTH",
"172 43 OFFCURVE",
"158 40 OFFCURVE",
"145 38 CURVE SMOOTH",
"141 38 OFFCURVE",
"136 36 OFFCURVE",
"133 38 CURVE SMOOTH",
"122 44 OFFCURVE",
"112 39 OFFCURVE",
"103 36 CURVE SMOOTH",
"90 32 OFFCURVE",
"79 39 OFFCURVE",
"67 38 CURVE SMOOTH",
"65 38 OFFCURVE",
"62 40 OFFCURVE",
"59 41 CURVE SMOOTH",
"55 42 OFFCURVE",
"51 43 OFFCURVE",
"47 44 CURVE",
"47 43 OFFCURVE",
"47 43 OFFCURVE",
"47 42 CURVE",
"45 44 OFFCURVE",
"42 46 OFFCURVE",
"41 47 CURVE SMOOTH",
"40 49 OFFCURVE",
"38 51 OFFCURVE",
"38 51 CURVE SMOOTH",
"44 59 OFFCURVE",
"35 61 OFFCURVE",
"32 65 CURVE SMOOTH",
"20 81 OFFCURVE",
"2 94 OFFCURVE",
"-6 114 CURVE SMOOTH",
"-10 125 OFFCURVE",
"-6 133 OFFCURVE",
"5 137 CURVE SMOOTH",
"13 140 OFFCURVE",
"21 143 OFFCURVE",
"29 146 CURVE SMOOTH",
"30 147 OFFCURVE",
"31 147 OFFCURVE",
"32 147 CURVE SMOOTH",
"56 149 OFFCURVE",
"79 151 OFFCURVE",
"102 151 CURVE SMOOTH",
"126 151 OFFCURVE",
"150 153 OFFCURVE",
"173 161 CURVE SMOOTH",
"176 161 OFFCURVE",
"178 161 OFFCURVE",
"181 162 CURVE",
"181 163 OFFCURVE",
"182 164 OFFCURVE",
"182 165 CURVE",
"178 166 OFFCURVE",
"174 168 OFFCURVE",
"168 170 CURVE",
"170 173 OFFCURVE",
"172 176 OFFCURVE",
"175 179 CURVE",
"171 182 OFFCURVE",
"165 186 OFFCURVE",
"159 190 CURVE SMOOTH",
"155 193 OFFCURVE",
"152 192 OFFCURVE",
"152 186 CURVE SMOOTH",
"153 179 OFFCURVE",
"151 177 OFFCURVE",
"145 181 CURVE SMOOTH",
"143 182 OFFCURVE",
"139 181 OFFCURVE",
"137 182 CURVE SMOOTH",
"134 182 OFFCURVE",
"132 184 OFFCURVE",
"127 186 CURVE",
"132 188 OFFCURVE",
"134 189 OFFCURVE",
"138 190 CURVE",
"130 198 OFFCURVE",
"125 206 OFFCURVE",
"115 210 CURVE SMOOTH",
"108 212 OFFCURVE",
"103 217 OFFCURVE",
"98 221 CURVE SMOOTH",
"82 236 OFFCURVE",
"65 249 OFFCURVE",
"51 264 CURVE SMOOTH",
"41 274 OFFCURVE",
"35 286 OFFCURVE",
"32 299 CURVE SMOOTH",
"30 304 OFFCURVE",
"27 308 OFFCURVE",
"24 312 CURVE SMOOTH",
"17 323 OFFCURVE",
"17 336 OFFCURVE",
"18 349 CURVE SMOOTH",
"18 350 OFFCURVE",
"17 351 OFFCURVE",
"17 352 CURVE",
"14 351 OFFCURVE",
"12 350 OFFCURVE",
"9 349 CURVE",
"9 353 OFFCURVE",
"7 357 OFFCURVE",
"8 360 CURVE SMOOTH",
"11 370 OFFCURVE",
"13 380 OFFCURVE",
"18 388 CURVE SMOOTH",
"24 398 OFFCURVE",
"28 410 OFFCURVE",
"43 409 CURVE",
"43 412 OFFCURVE",
"43 414 OFFCURVE",
"44 416 CURVE SMOOTH",
"45 421 OFFCURVE",
"47 425 OFFCURVE",
"49 429 CURVE SMOOTH",
"50 430 OFFCURVE",
"52 432 OFFCURVE",
"54 433 CURVE SMOOTH",
"62 435 OFFCURVE",
"66 440 OFFCURVE",
"66 448 CURVE SMOOTH",
"66 459 OFFCURVE",
"82 477 OFFCURVE",
"93 477 CURVE SMOOTH",
"105 478 OFFCURVE",
"114 483 OFFCURVE",
"120 491 CURVE SMOOTH",
"130 502 OFFCURVE",
"142 508 OFFCURVE",
"155 512 CURVE SMOOTH",
"170 518 OFFCURVE",
"184 524 OFFCURVE",
"199 529 CURVE SMOOTH",
"207 531 OFFCURVE",
"215 531 OFFCURVE",
"222 533 CURVE SMOOTH",
"225 534 OFFCURVE",
"228 535 OFFCURVE",
"231 537 CURVE",
"251 537 OFFCURVE",
"270 537 OFFCURVE",
"290 537 CURVE"
);
}
);
width = 340;
}
);
unicode = 0053;
},
{
glyphname = T;
lastChange = "2020-11-21 14:57:41 +0000";
layers = (
{
layerId = "35B18FD4-EE95-4CAF-9F6E-40BA2ACEDFAA";
paths = (
{
closed = 1;
nodes = (
"180.355 191.829 OFFCURVE",
"177.858 192.096 OFFCURVE",
"173.852 192.523 CURVE",
"175.505 199.926 OFFCURVE",
"176.744 206.918 OFFCURVE",
"178.696 213.705 CURVE SMOOTH",
"179.988 218.2 OFFCURVE",
"182.336 222.386 OFFCURVE",
"184.146 226.737 CURVE SMOOTH",
"185.887 230.921 OFFCURVE",
"187.891 231.466 OFFCURVE",
"191.941 228.77 CURVE SMOOTH",
"193.734 227.578 OFFCURVE",
"199.541 228.574 OFFCURVE",
"199.872 229.675 CURVE SMOOTH",
"201.538 235.215 OFFCURVE",
"202.365 241.093 OFFCURVE",
"202.756 246.901 CURVE SMOOTH",
"203.03 250.968 OFFCURVE",
"202.129 255.113 OFFCURVE",
"201.732 259.45 CURVE",
"211.707 265.049 OFFCURVE",
"221.433 291.728 OFFCURVE",
"216.763 299.202 CURVE",
"234.285 318.115 OFFCURVE",
"235.845 342.694 OFFCURVE",
"243.292 364.227 CURVE",
"238.683 365.334 OFFCURVE",
"235.255 367.24 OFFCURVE",
"232.326 366.655 CURVE SMOOTH",
"224.076 365.006 OFFCURVE",
"215.53 363.366 OFFCURVE",
"208.061 359.742 CURVE SMOOTH",
"201.957 356.779 OFFCURVE",
"197.084 351.89 OFFCURVE",
"189.394 353.948 CURVE SMOOTH",
"183.879 355.424 OFFCURVE",
"177.992 357.473 OFFCURVE",
"172.559 356.831 CURVE SMOOTH",
"164.493 355.877 OFFCURVE",
"156.774 352.308 OFFCURVE",
"148.738 350.702 CURVE SMOOTH",
"139.781 348.912 OFFCURVE",
"130.612 348.208 OFFCURVE",
"121.574 346.787 CURVE SMOOTH",
"111.957 345.274 OFFCURVE",
"102.004 344.403 OFFCURVE",
"96.682 334.096 CURVE SMOOTH",
"95.701 332.197 OFFCURVE",
"93.216 329.996 OFFCURVE",
"91.273 329.841 CURVE SMOOTH",
"72.939 328.376 OFFCURVE",
"54.583 327.078 OFFCURVE",
"36.21 326.268 CURVE SMOOTH",
"28.029 325.908 OFFCURVE",
"21.768 332.327 OFFCURVE",
"19.232 340.084 CURVE SMOOTH",
"17.907 344.137 OFFCURVE",
"14.238 347.435 OFFCURVE",
"11.567 351.029 CURVE SMOOTH",
"10.928 351.888 OFFCURVE",
"9.544 352.457 OFFCURVE",
"9.353 353.343 CURVE SMOOTH",
"6.199 367.942 OFFCURVE",
"3.182 382.571 OFFCURVE",
"0.134 397.194 CURVE",
"1.168 396.668 OFFCURVE",
"2.201 396.143 OFFCURVE",
"3.235 395.618 CURVE",
"6.888 396.55 OFFCURVE",
"10.669 397.148 OFFCURVE",
"14.169 398.482 CURVE SMOOTH",
"22.687 401.726 OFFCURVE",
"30.935 405.719 OFFCURVE",
"39.548 408.657 CURVE SMOOTH",
"50.338 412.337 OFFCURVE",
"61.319 415.514 OFFCURVE",
"72.345 418.426 CURVE SMOOTH",
"79.288 420.259 OFFCURVE",
"86.495 421.07 OFFCURVE",
"93.529 422.591 CURVE SMOOTH",
"101.568 424.329 OFFCURVE",
"109.543 426.361 OFFCURVE",
"117.552 428.24 CURVE SMOOTH",
"124.242 429.808 OFFCURVE",
"131.033 431.024 OFFCURVE",
"137.618 432.949 CURVE SMOOTH",
"155.858 438.279 OFFCURVE",
"175.507 436.928 OFFCURVE",
"193.144 445.914 CURVE SMOOTH",
"200 449.408 OFFCURVE",
"208.963 448.675 OFFCURVE",
"216.92 450.125 CURVE SMOOTH",
"227.109 451.982 OFFCURVE",
"237.244 454.13 OFFCURVE",
"247.413 456.098 CURVE SMOOTH",
"260.969 458.722 OFFCURVE",
"274.562 461.163 OFFCURVE",
"288.088 463.934 CURVE SMOOTH",
"296.769 465.713 OFFCURVE",
"305.353 467.967 OFFCURVE",
"313.992 469.958 CURVE SMOOTH",
"315.65 470.34 OFFCURVE",
"317.372 470.438 OFFCURVE",
"319.048 470.755 CURVE SMOOTH",
"336.787 474.103 OFFCURVE",
"354.504 477.566 OFFCURVE",
"372.273 480.747 CURVE SMOOTH",
"375.896 481.396 OFFCURVE",
"379.784 480.546 OFFCURVE",
"383.415 481.171 CURVE SMOOTH",
"393.851 482.968 OFFCURVE",
"404.211 485.205 OFFCURVE",
"414.615 487.194 CURVE SMOOTH",
"422.306 488.663 OFFCURVE",
"430.043 489.896 OFFCURVE",
"437.718 491.447 CURVE SMOOTH",
"446.932 493.308 OFFCURVE",
"456.016 496.089 OFFCURVE",
"465.309 497.229 CURVE SMOOTH",
"481.471 499.213 OFFCURVE",
"497.895 502.066 OFFCURVE",
"513.908 500.789 CURVE SMOOTH",
"520.424 500.27 OFFCURVE",
"526.618 490.302 OFFCURVE",
"532.072 483.881 CURVE SMOOTH",
"535.499 479.847 OFFCURVE",
"537.586 474.544 OFFCURVE",
"539.676 469.559 CURVE SMOOTH",
"540.792 466.898 OFFCURVE",
"541.078 463.683 OFFCURVE",
"540.937 460.757 CURVE SMOOTH",
"540.791 457.744 OFFCURVE",
"539.669 454.778 OFFCURVE",
"539.011 451.948 CURVE",
"548.698 447.427 OFFCURVE",
"552.329 441.855 OFFCURVE",
"548.423 437.658 CURVE SMOOTH",
"545.411 434.422 OFFCURVE",
"541.735 431.556 OFFCURVE",
"537.861 429.421 CURVE SMOOTH",
"528.83 424.442 OFFCURVE",
"519.473 420.056 OFFCURVE",
"510.319 415.292 CURVE SMOOTH",
"508.889 414.548 OFFCURVE",
"507.055 413.272 OFFCURVE",
"506.728 411.923 CURVE SMOOTH",
"504.553 402.933 OFFCURVE",
"496.665 400.305 OFFCURVE",
"489.759 399.172 CURVE SMOOTH",
"482.49 397.98 OFFCURVE",
"474.667 400.426 OFFCURVE",
"467.062 400.905 CURVE SMOOTH",
"464.171 401.086 OFFCURVE",
"460.603 401.136 OFFCURVE",
"458.391 399.667 CURVE SMOOTH",
"448.352 393.001 OFFCURVE",
"438.441 392.24 OFFCURVE",
"427.7 397.933 CURVE SMOOTH",
"419.456 402.303 OFFCURVE",
"395.29 397.155 OFFCURVE",
"388.712 390.37 CURVE SMOOTH",
"387.569 389.191 OFFCURVE",
"385.45 388.983 OFFCURVE",
"383.813 388.256 CURVE SMOOTH",
"381.715 387.324 OFFCURVE",
"378.885 386.872 OFFCURVE",
"377.706 385.246 CURVE SMOOTH",
"373.608 379.59 OFFCURVE",
"369.273 379.853 OFFCURVE",
"364.938 384.285 CURVE SMOOTH",
"360.145 389.186 OFFCURVE",
"356.861 390.331 OFFCURVE",
"354.028 382.501 CURVE SMOOTH",
"353.305 380.501 OFFCURVE",
"349.899 378.515 OFFCURVE",
"347.535 378.255 CURVE SMOOTH",
"341.907 377.638 OFFCURVE",
"336.166 378.057 OFFCURVE",
"328.965 378.057 CURVE",
"325.725 367.324 OFFCURVE",
"322.356 356.092 OFFCURVE",
"318.936 344.875 CURVE SMOOTH",
"317.906 341.495 OFFCURVE",
"316.731 338.16 OFFCURVE",
"315.63 334.802 CURVE SMOOTH",
"309.784 316.971 OFFCURVE",
"303.983 299.125 OFFCURVE",
"298.077 281.315 CURVE SMOOTH",
"295.737 274.259 OFFCURVE",
"292.86 267.37 OFFCURVE",
"290.783 260.243 CURVE SMOOTH",
"288.36 251.923 OFFCURVE",
"286.702 243.383 OFFCURVE",
"284.427 235.016 CURVE SMOOTH",
"280.701 221.305 OFFCURVE",
"276.636 207.684 OFFCURVE",
"272.928 193.968 CURVE SMOOTH",
"270.886 186.413 OFFCURVE",
"269.017 178.79 OFFCURVE",
"267.535 171.108 CURVE SMOOTH",
"264.89 157.407 OFFCURVE",
"262.561 143.643 OFFCURVE",
"260.169 129.893 CURVE SMOOTH",
"257.916 116.939 OFFCURVE",
"255.234 104.026 OFFCURVE",
"253.795 90.978 CURVE SMOOTH",
"253.182 85.416 OFFCURVE",
"255.245 79.558 OFFCURVE",
"256.102 73.835 CURVE SMOOTH",
"256.311 72.442 OFFCURVE",
"257.151 70.819 OFFCURVE",
"256.702 69.702 CURVE SMOOTH",
"251.85 57.622 OFFCURVE",
"255.705 45.471 OFFCURVE",
"257.266 33.695 CURVE SMOOTH",
"259.101 19.858 OFFCURVE",
"255.406 11.26 OFFCURVE",
"242.26 5.771 CURVE SMOOTH",
"237.013 3.58 OFFCURVE",
"233.932 -3.356 OFFCURVE",
"226.43 1.963 CURVE SMOOTH",
"224.472 3.351 OFFCURVE",
"219.585 -0.142 OFFCURVE",
"216.497 0.572 CURVE SMOOTH",
"211.408 1.748 OFFCURVE",
"209.893 6.219 OFFCURVE",
"207.627 11.138 CURVE SMOOTH",
"203.097 20.972 OFFCURVE",
"195.083 29.136 OFFCURVE",
"189.541 38.595 CURVE SMOOTH",
"186.786 43.298 OFFCURVE",
"184.571 49.543 OFFCURVE",
"185.172 54.736 CURVE SMOOTH",
"186.467 65.921 OFFCURVE",
"179.873 74.412 OFFCURVE",
"175.985 83.215 CURVE SMOOTH",
"172.791 90.448 OFFCURVE",
"173.878 95.772 OFFCURVE",
"175.397 102.1 CURVE SMOOTH",
"175.849 103.981 OFFCURVE",
"177.309 106.611 OFFCURVE",
"176.566 107.633 CURVE SMOOTH",
"169.716 117.056 OFFCURVE",
"176.09 125.983 OFFCURVE",
"176.733 135.222 CURVE SMOOTH",
"178.031 153.868 OFFCURVE",
"189.497 171.27 OFFCURVE",
"182.956 191.552 CURVE"
);
}
);
width = 500;
}
);
unicode = 0054;
},
{
glyphname = U;
lastChange = "2020-11-21 14:58:10 +0000";
layers = (
{
layerId = "35B18FD4-EE95-4CAF-9F6E-40BA2ACEDFAA";
paths = (
{
closed = 1;
nodes = (
"233 352 OFFCURVE",
"236 360 OFFCURVE",
"242 367 CURVE",
"246 365 OFFCURVE",
"249 363 OFFCURVE",
"254 359 CURVE",
"258 372 OFFCURVE",
"261 384 OFFCURVE",
"265 396 CURVE",
"253 400 OFFCURVE",
"253 400 OFFCURVE",
"259 410 CURVE",
"262 414 OFFCURVE",
"265 418 OFFCURVE",
"268 423 CURVE",
"269 422 OFFCURVE",
"270 422 OFFCURVE",
"271 422 CURVE",
"270 419 OFFCURVE",
"270 416 OFFCURVE",
"269 411 CURVE",
"272 413 OFFCURVE",
"276 415 OFFCURVE",
"277 417 CURVE",
"278 419 OFFCURVE",
"276 423 OFFCURVE",
"275 425 CURVE",
"274 427 OFFCURVE",
"273 429 OFFCURVE",
"272 431 CURVE",
"274 431 OFFCURVE",
"277 432 OFFCURVE",
"279 432 CURVE",
"280 432 OFFCURVE",
"280 431 OFFCURVE",
"281 430 CURVE",
"288 443 OFFCURVE",
"296 455 OFFCURVE",
"301 469 CURVE",
"304 476 OFFCURVE",
"302 486 OFFCURVE",
"303 494 CURVE",
"303 498 OFFCURVE",
"305 502 OFFCURVE",
"307 505 CURVE",
"308 508 OFFCURVE",
"311 510 OFFCURVE",
"312 513 CURVE",
"315 521 OFFCURVE",
"320 525 OFFCURVE",
"328 526 CURVE",
"336 527 OFFCURVE",
"343 531 OFFCURVE",
"351 534 CURVE",
"356 536 OFFCURVE",
"361 538 OFFCURVE",
"366 540 CURVE",
"370 540 OFFCURVE",
"374 540 OFFCURVE",
"378 540 CURVE",
"385 530 OFFCURVE",
"394 522 OFFCURVE",
"399 512 CURVE",
"405 500 OFFCURVE",
"408 487 OFFCURVE",
"413 475 CURVE",
"413 472 OFFCURVE",
"414 469 OFFCURVE",
"414 466 CURVE",
"415 464 OFFCURVE",
"416 461 OFFCURVE",
"416 459 CURVE",
"414 447 OFFCURVE",
"412 436 OFFCURVE",
"410 424 CURVE",
"408 418 OFFCURVE",
"406 412 OFFCURVE",
"406 406 CURVE",
"408 387 OFFCURVE",
"394 372 OFFCURVE",
"395 354 CURVE",
"395 351 OFFCURVE",
"393 348 OFFCURVE",
"392 345 CURVE",
"389 337 OFFCURVE",
"386 329 OFFCURVE",
"392 321 CURVE",
"393 319 OFFCURVE",
"392 315 OFFCURVE",
"390 313 CURVE",
"381 303 OFFCURVE",
"378 291 OFFCURVE",
"376 279 CURVE",
"374 268 OFFCURVE",
"373 257 OFFCURVE",
"372 246 CURVE",
"371 241 OFFCURVE",
"368 237 OFFCURVE",
"367 232 CURVE",
"366 227 OFFCURVE",
"367 221 OFFCURVE",
"367 216 CURVE",
"367 215 OFFCURVE",
"368 213 OFFCURVE",
"367 213 CURVE",
"360 204 OFFCURVE",
"367 192 OFFCURVE",
"362 182 CURVE",
"361 180 OFFCURVE",
"361 178 OFFCURVE",
"361 175 CURVE",
"360 166 OFFCURVE",
"359 156 OFFCURVE",
"358 147 CURVE",
"358 140 OFFCURVE",
"357 132 OFFCURVE",
"359 126 CURVE",
"364 115 OFFCURVE",
"353 104 OFFCURVE",
"360 92 CURVE",
"363 88 OFFCURVE",
"359 81 OFFCURVE",
"359 75 CURVE",
"359 74 OFFCURVE",
"358 74 OFFCURVE",
"358 74 CURVE",
"364 64 OFFCURVE",
"354 58 OFFCURVE",
"354 49 CURVE",
"354 48 OFFCURVE",
"353 45 OFFCURVE",
"352 44 CURVE",
"347 39 OFFCURVE",
"341 34 OFFCURVE",
"335 30 CURVE",
"333 28 OFFCURVE",
"328 28 OFFCURVE",
"325 29 CURVE",
"313 33 OFFCURVE",
"302 37 OFFCURVE",
"294 50 CURVE",
"287 63 OFFCURVE",
"283 77 OFFCURVE",
"274 88 CURVE",
"268 95 OFFCURVE",
"265 103 OFFCURVE",
"261 111 CURVE",
"260 112 OFFCURVE",
"261 114 OFFCURVE",
"261 115 CURVE",
"265 124 OFFCURVE",
"268 133 OFFCURVE",
"265 144 CURVE",
"264 147 OFFCURVE",
"267 151 OFFCURVE",
"267 155 CURVE",
"267 163 OFFCURVE",
"267 171 OFFCURVE",
"266 179 CURVE",
"266 180 OFFCURVE",
"264 181 OFFCURVE",
"263 182 CURVE",
"251 171 OFFCURVE",
"240 161 OFFCURVE",
"229 150 CURVE",
"221 141 OFFCURVE",
"215 131 OFFCURVE",
"207 122 CURVE",
"196 111 OFFCURVE",
"184 101 OFFCURVE",
"172 91 CURVE",
"166 87 OFFCURVE",
"158 85 OFFCURVE",
"152 81 CURVE",
"147 79 OFFCURVE",
"143 77 OFFCURVE",
"138 75 CURVE",
"130 70 OFFCURVE",
"122 65 OFFCURVE",
"113 62 CURVE",
"109 61 OFFCURVE",
"103 64 OFFCURVE",
"98 65 CURVE",
"96 65 OFFCURVE",
"90 65 OFFCURVE",
"90 64 CURVE",
"89 56 OFFCURVE",
"83 59 OFFCURVE",
"79 59 CURVE",
"78 59 OFFCURVE",
"76 59 OFFCURVE",
"76 59 CURVE",
"73 62 OFFCURVE",
"71 64 OFFCURVE",
"67 68 CURVE",
"67 68 OFFCURVE",
"66 72 OFFCURVE",
"64 73 CURVE",
"59 77 OFFCURVE",
"52 79 OFFCURVE",
"47 84 CURVE",
"37 96 OFFCURVE",
"26 108 OFFCURVE",
"18 121 CURVE",
"13 128 OFFCURVE",
"12 139 OFFCURVE",
"9 148 CURVE",
"8 152 OFFCURVE",
"7 157 OFFCURVE",
"5 162 CURVE",
"2 170 OFFCURVE",
"-1 178 OFFCURVE",
"5 186 CURVE",
"6 188 OFFCURVE",
"6 191 OFFCURVE",
"6 194 CURVE",
"6 203 OFFCURVE",
"15 275 OFFCURVE",
"15 284 CURVE",
"16 291 OFFCURVE",
"17 284 OFFCURVE",
"17 291 CURVE",
"18 303 OFFCURVE",
"18 315 OFFCURVE",
"19 327 CURVE",
"20 330 OFFCURVE",
"20 333 OFFCURVE",
"22 336 CURVE",
"27 342 OFFCURVE",
"29 349 OFFCURVE",
"30 357 CURVE",
"30 365 OFFCURVE",
"35 372 OFFCURVE",
"37 379 CURVE",
"40 389 OFFCURVE",
"43 399 OFFCURVE",
"46 409 CURVE",
"47 410 OFFCURVE",
"46 412 OFFCURVE",
"47 412 CURVE",
"61 430 OFFCURVE",
"63 456 OFFCURVE",
"82 471 CURVE",
"88 477 OFFCURVE",
"97 479 OFFCURVE",
"106 484 CURVE",
"107 475 OFFCURVE",
"113 475 OFFCURVE",
"119 476 CURVE",
"124 476 OFFCURVE",
"127 475 OFFCURVE",
"130 469 CURVE",
"133 463 OFFCURVE",
"136 455 OFFCURVE",
"144 452 CURVE",
"145 451 OFFCURVE",
"145 446 OFFCURVE",
"144 443 CURVE",
"144 439 OFFCURVE",
"142 434 OFFCURVE",
"141 430 CURVE",
"139 427 OFFCURVE",
"138 423 OFFCURVE",
"135 421 CURVE",
"119 410 OFFCURVE",
"114 393 OFFCURVE",
"107 377 CURVE",
"102 365 OFFCURVE",
"98 352 OFFCURVE",
"96 339 CURVE",
"93 325 OFFCURVE",
"92 310 OFFCURVE",
"88 296 CURVE",
"82 283 OFFCURVE",
"76 202 OFFCURVE",
"74 183 CURVE",
"73 174 OFFCURVE",
"74 167 OFFCURVE",
"78 159 CURVE",
"81 153 OFFCURVE",
"90 152 OFFCURVE",
"96 155 CURVE",
"102 159 OFFCURVE",
"108 164 OFFCURVE",
"117 165 CURVE",
"120 165 OFFCURVE",
"124 172 OFFCURVE",
"127 177 CURVE",
"133 186 OFFCURVE",
"138 195 OFFCURVE",
"151 195 CURVE",
"163 195 OFFCURVE",
"173 208 OFFCURVE",
"171 219 CURVE",
"170 228 OFFCURVE",
"175 234 OFFCURVE",
"179 241 CURVE",
"180 242 OFFCURVE",
"185 240 OFFCURVE",
"189 240 CURVE",
"188 243 OFFCURVE",
"185 247 OFFCURVE",
"185 250 CURVE",
"186 253 OFFCURVE",
"189 256 OFFCURVE",
"191 259 CURVE",
"192 262 OFFCURVE",
"193 266 OFFCURVE",
"195 267 CURVE",
"197 268 OFFCURVE",
"201 266 OFFCURVE",
"206 265 CURVE",
"206 266 OFFCURVE",
"209 269 OFFCURVE",
"208 271 CURVE",
"207 274 OFFCURVE",
"204 276 OFFCURVE",
"198 278 CURVE",
"203 286 OFFCURVE",
"207 295 OFFCURVE",
"211 303 CURVE",
"214 308 OFFCURVE",
"215 313 OFFCURVE",
"216 318 CURVE",
"216 319 OFFCURVE",
"216 320 OFFCURVE",
"216 320 CURVE",
"226 325 OFFCURVE",
"228 336 OFFCURVE",
"234 343 CURVE",
"233 336 OFFCURVE",
"232 329 OFFCURVE",
"230 320 CURVE",
"238 324 OFFCURVE",
"239 330 OFFCURVE",
"240 337 CURVE",
"241 342 OFFCURVE",
"239 344 OFFCURVE",
"234 343 CURVE"
);
},
{
closed = 1;
nodes = (
"257 381 OFFCURVE",
"256 379 OFFCURVE",
"254 378 CURVE",
"253 380 OFFCURVE",
"250 383 OFFCURVE",
"250 386 CURVE SMOOTH",
"250 388 OFFCURVE",
"253 390 OFFCURVE",
"254 393 CURVE",
"256 390 OFFCURVE",
"257 387 OFFCURVE",
"259 383 CURVE"
);
}
);
width = 400;
}
);
unicode = 0055;
},
{
glyphname = V;
lastChange = "2020-11-21 14:58:19 +0000";
layers = (
{
layerId = "35B18FD4-EE95-4CAF-9F6E-40BA2ACEDFAA";
paths = (
{
closed = 1;
nodes = (
"368 564 OFFCURVE",
"368 563 OFFCURVE",
"368 563 CURVE SMOOTH",
"382 556 OFFCURVE",
"388 542 OFFCURVE",
"394 529 CURVE SMOOTH",
"397 523 OFFCURVE",
"397 515 OFFCURVE",
"395 509 CURVE SMOOTH",
"390 494 OFFCURVE",
"382 480 OFFCURVE",
"371 467 CURVE SMOOTH",
"363 458 OFFCURVE",
"360 444 OFFCURVE",
"356 432 CURVE SMOOTH",
"349 415 OFFCURVE",
"343 397 OFFCURVE",
"337 379 CURVE SMOOTH",
"333 364 OFFCURVE",
"329 350 OFFCURVE",
"325 335 CURVE SMOOTH",
"324 334 OFFCURVE",
"325 333 OFFCURVE",
"324 332 CURVE SMOOTH",
"314 321 OFFCURVE",
"315 305 OFFCURVE",
"309 292 CURVE SMOOTH",
"304 280 OFFCURVE",
"300 268 OFFCURVE",
"294 257 CURVE SMOOTH",
"292 253 OFFCURVE",
"293 248 OFFCURVE",
"291 244 CURVE SMOOTH",
"287 225 OFFCURVE",
"275 210 OFFCURVE",
"268 192 CURVE SMOOTH",
"263 180 OFFCURVE",
"256 169 OFFCURVE",
"250 157 CURVE SMOOTH",
"245 148 OFFCURVE",
"240 140 OFFCURVE",
"235 131 CURVE SMOOTH",
"229 120 OFFCURVE",
"223 110 OFFCURVE",
"216 100 CURVE SMOOTH",
"212 95 OFFCURVE",
"206 93 OFFCURVE",
"202 89 CURVE SMOOTH",
"196 83 OFFCURVE",
"192 75 OFFCURVE",
"186 69 CURVE SMOOTH",
"176 58 OFFCURVE",
"162 51 OFFCURVE",
"149 44 CURVE SMOOTH",
"145 42 OFFCURVE",
"142 39 OFFCURVE",
"139 37 CURVE SMOOTH",
"130 34 OFFCURVE",
"121 33 OFFCURVE",
"113 39 CURVE SMOOTH",
"109 42 OFFCURVE",
"104 43 OFFCURVE",
"99 40 CURVE SMOOTH",
"94 38 OFFCURVE",
"91 39 OFFCURVE",
"88 44 CURVE SMOOTH",
"79 54 OFFCURVE",
"75 67 OFFCURVE",
"69 79 CURVE SMOOTH",
"67 84 OFFCURVE",
"62 89 OFFCURVE",
"60 94 CURVE SMOOTH",
"57 102 OFFCURVE",
"55 110 OFFCURVE",
"53 118 CURVE SMOOTH",
"50 132 OFFCURVE",
"45 144 OFFCURVE",
"44 158 CURVE SMOOTH",
"44 170 OFFCURVE",
"41 182 OFFCURVE",
"38 194 CURVE SMOOTH",
"38 197 OFFCURVE",
"35 199 OFFCURVE",
"33 201 CURVE",
"33 202 OFFCURVE",
"36 202 OFFCURVE",
"40 204 CURVE",
"38 217 OFFCURVE",
"37 231 OFFCURVE",
"36 245 CURVE SMOOTH",
"35 253 OFFCURVE",
"33 262 OFFCURVE",
"32 271 CURVE SMOOTH",
"32 272 OFFCURVE",
"32 273 OFFCURVE",
"32 274 CURVE SMOOTH",
"39 289 OFFCURVE",
"31 303 OFFCURVE",
"26 316 CURVE SMOOTH",
"25 318 OFFCURVE",
"25 320 OFFCURVE",
"26 321 CURVE SMOOTH",
"31 330 OFFCURVE",
"28 338 OFFCURVE",
"25 346 CURVE SMOOTH",
"21 356 OFFCURVE",
"19 364 OFFCURVE",
"24 374 CURVE SMOOTH",
"27 384 OFFCURVE",
"23 395 OFFCURVE",
"23 406 CURVE SMOOTH",
"23 408 OFFCURVE",
"22 409 OFFCURVE",
"22 411 CURVE SMOOTH",
"20 426 OFFCURVE",
"18 441 OFFCURVE",
"18 456 CURVE SMOOTH",
"18 461 OFFCURVE",
"23 467 OFFCURVE",
"24 472 CURVE SMOOTH",
"26 481 OFFCURVE",
"31 481 OFFCURVE",
"38 482 CURVE SMOOTH",
"58 485 OFFCURVE",
"73 472 OFFCURVE",
"77 451 CURVE SMOOTH",
"78 443 OFFCURVE",
"82 435 OFFCURVE",
"85 427 CURVE SMOOTH",
"86 423 OFFCURVE",
"86 419 OFFCURVE",
"86 415 CURVE SMOOTH",
"88 403 OFFCURVE",
"89 390 OFFCURVE",
"91 377 CURVE SMOOTH",
"92 367 OFFCURVE",
"96 356 OFFCURVE",
"97 346 CURVE SMOOTH",
"99 334 OFFCURVE",
"99 322 OFFCURVE",
"101 310 CURVE SMOOTH",
"103 294 OFFCURVE",
"105 279 OFFCURVE",
"107 263 CURVE SMOOTH",
"109 253 OFFCURVE",
"110 243 OFFCURVE",
"111 233 CURVE SMOOTH",
"114 216 OFFCURVE",
"117 198 OFFCURVE",
"120 181 CURVE SMOOTH",
"121 177 OFFCURVE",
"121 173 OFFCURVE",
"122 168 CURVE",
"125 169 OFFCURVE",
"129 170 OFFCURVE",
"131 172 CURVE SMOOTH",
"137 181 OFFCURVE",
"143 189 OFFCURVE",
"148 198 CURVE SMOOTH",
"154 208 OFFCURVE",
"154 208 OFFCURVE",
"164 202 CURVE",
"165 210 OFFCURVE",
"166 218 OFFCURVE",
"167 226 CURVE",
"171 231 OFFCURVE",
"181 220 OFFCURVE",
"182 233 CURVE",
"180 233 OFFCURVE",
"177 234 OFFCURVE",
"173 235 CURVE",
"173 239 OFFCURVE",
"173 244 OFFCURVE",
"175 247 CURVE SMOOTH",
"177 250 OFFCURVE",
"182 251 OFFCURVE",
"185 252 CURVE",
"186 251 OFFCURVE",
"186 250 OFFCURVE",
"187 249 CURVE",
"185 248 OFFCURVE",
"183 247 OFFCURVE",
"182 246 CURVE",
"183 243 OFFCURVE",
"184 239 OFFCURVE",
"185 236 CURVE",
"185 247 OFFCURVE",
"202 254 OFFCURVE",
"192 265 CURVE",
"197 270 OFFCURVE",
"201 275 OFFCURVE",
"206 281 CURVE",
"200 281 OFFCURVE",
"196 281 OFFCURVE",
"192 282 CURVE",
"193 288 OFFCURVE",
"195 293 OFFCURVE",
"195 297 CURVE SMOOTH",
"194 307 OFFCURVE",
"201 312 OFFCURVE",
"205 320 CURVE SMOOTH",
"207 326 OFFCURVE",
"209 332 OFFCURVE",
"211 339 CURVE SMOOTH",
"214 349 OFFCURVE",
"218 360 OFFCURVE",
"221 370 CURVE SMOOTH",
"222 373 OFFCURVE",
"224 375 OFFCURVE",
"229 374 CURVE SMOOTH",
"236 372 OFFCURVE",
"240 379 OFFCURVE",
"241 384 CURVE SMOOTH",
"245 396 OFFCURVE",
"247 409 OFFCURVE",
"249 421 CURVE SMOOTH",
"249 423 OFFCURVE",
"247 425 OFFCURVE",
"246 428 CURVE",
"244 421 OFFCURVE",
"243 417 OFFCURVE",
"242 413 CURVE",
"241 413 OFFCURVE",
"239 413 OFFCURVE",
"238 414 CURVE",
"239 420 OFFCURVE",
"240 427 OFFCURVE",
"241 433 CURVE SMOOTH",
"242 439 OFFCURVE",
"245 445 OFFCURVE",
"245 451 CURVE SMOOTH",
"246 469 OFFCURVE",
"253 484 OFFCURVE",
"264 497 CURVE SMOOTH",
"265 499 OFFCURVE",
"270 498 OFFCURVE",
"273 497 CURVE SMOOTH",
"274 497 OFFCURVE",
"275 494 OFFCURVE",
"276 492 CURVE",
"284 497 OFFCURVE",
"286 505 OFFCURVE",
"282 512 CURVE SMOOTH",
"279 517 OFFCURVE",
"280 521 OFFCURVE",
"284 525 CURVE SMOOTH",
"288 529 OFFCURVE",
"291 534 OFFCURVE",
"295 539 CURVE SMOOTH",
"297 541 OFFCURVE",
"299 543 OFFCURVE",
"300 543 CURVE SMOOTH",
"315 542 OFFCURVE",
"323 555 OFFCURVE",
"335 558 CURVE SMOOTH",
"340 560 OFFCURVE",
"345 560 OFFCURVE",
"349 562 CURVE SMOOTH",
"351 562 OFFCURVE",
"351 564 OFFCURVE",
"352 565 CURVE",
"358 565 OFFCURVE",
"363 565 OFFCURVE",
"368 565 CURVE"
);
}
);
width = 350;
}
);
unicode = 0056;
},
{
glyphname = W;
lastChange = "2020-11-21 14:58:26 +0000";
layers = (
{
layerId = "35B18FD4-EE95-4CAF-9F6E-40BA2ACEDFAA";
paths = (
{
closed = 1;
nodes = (
"537 482 OFFCURVE",
"537 480 OFFCURVE",
"537 478 CURVE",
"536 476 OFFCURVE",
"534 473 OFFCURVE",
"535 471 CURVE",
"536 449 OFFCURVE",
"529 428 OFFCURVE",
"526 407 CURVE",
"525 401 OFFCURVE",
"524 395 OFFCURVE",
"523 389 CURVE",
"521 380 OFFCURVE",
"519 371 OFFCURVE",
"517 362 CURVE",
"516 359 OFFCURVE",
"516 357 OFFCURVE",
"516 354 CURVE",
"514 345 OFFCURVE",
"512 337 OFFCURVE",
"510 328 CURVE",
"508 323 OFFCURVE",
"507 318 OFFCURVE",
"506 313 CURVE",
"505 308 OFFCURVE",
"503 302 OFFCURVE",
"503 296 CURVE",
"502 290 OFFCURVE",
"505 282 OFFCURVE",
"497 277 CURVE",
"496 277 OFFCURVE",
"496 275 OFFCURVE",
"496 273 CURVE",
"493 261 OFFCURVE",
"494 248 OFFCURVE",
"486 238 CURVE",
"485 237 OFFCURVE",
"486 235 OFFCURVE",
"485 233 CURVE",
"483 224 OFFCURVE",
"481 215 OFFCURVE",
"479 206 CURVE",
"477 199 OFFCURVE",
"478 191 OFFCURVE",
"474 187 CURVE",
"467 178 OFFCURVE",
"467 167 OFFCURVE",
"462 159 CURVE",
"456 149 OFFCURVE",
"456 137 OFFCURVE",
"447 129 CURVE",
"443 125 OFFCURVE",
"440 119 OFFCURVE",
"437 113 CURVE",
"435 109 OFFCURVE",
"433 104 OFFCURVE",
"430 100 CURVE",
"421 92 OFFCURVE",
"412 84 OFFCURVE",
"403 76 CURVE",
"386 64 OFFCURVE",
"369 53 OFFCURVE",
"347 57 CURVE",
"346 57 OFFCURVE",
"346 57 OFFCURVE",
"346 57 CURVE",
"344 53 OFFCURVE",
"343 49 OFFCURVE",
"341 48 CURVE",
"335 46 OFFCURVE",
"329 44 OFFCURVE",
"322 44 CURVE",
"307 45 OFFCURVE",
"292 51 OFFCURVE",
"279 59 CURVE",
"283 70 OFFCURVE",
"283 70 OFFCURVE",
"271 76 CURVE",
"270 76 OFFCURVE",
"270 77 OFFCURVE",
"269 78 CURVE",
"265 82 OFFCURVE",
"259 84 OFFCURVE",
"256 91 CURVE",
"253 99 OFFCURVE",
"245 105 OFFCURVE",
"241 113 CURVE",
"234 126 OFFCURVE",
"228 139 OFFCURVE",
"214 147 CURVE",
"206 138 OFFCURVE",
"199 128 OFFCURVE",
"190 119 CURVE",
"179 109 OFFCURVE",
"167 100 OFFCURVE",
"156 91 CURVE",
"144 82 OFFCURVE",
"132 74 OFFCURVE",
"121 66 CURVE",
"109 58 OFFCURVE",
"96 52 OFFCURVE",
"81 54 CURVE",
"76 54 OFFCURVE",
"71 50 OFFCURVE",
"67 47 CURVE",
"60 42 OFFCURVE",
"51 42 OFFCURVE",
"45 48 CURVE",
"39 56 OFFCURVE",
"32 63 OFFCURVE",
"22 66 CURVE",
"15 69 OFFCURVE",
"7 74 OFFCURVE",
"4 80 CURVE",
"-4 96 OFFCURVE",
"-18 107 OFFCURVE",
"-22 125 CURVE",
"-24 139 OFFCURVE",
"-31 152 OFFCURVE",
"-35 165 CURVE",
"-37 170 OFFCURVE",
"-36 175 OFFCURVE",
"-31 178 CURVE",
"-28 180 OFFCURVE",
"-25 182 OFFCURVE",
"-25 184 CURVE",
"-22 198 OFFCURVE",
"-20 212 OFFCURVE",
"-17 226 CURVE",
"-16 234 OFFCURVE",
"-14 243 OFFCURVE",
"-12 251 CURVE",
"-8 263 OFFCURVE",
"-5 275 OFFCURVE",
"-7 288 CURVE",
"-8 289 OFFCURVE",
"-9 289 OFFCURVE",
"-10 290 CURVE",
"-12 287 OFFCURVE",
"-14 284 OFFCURVE",
"-16 281 CURVE",
"-17 281 OFFCURVE",
"-17 281 OFFCURVE",
"-17 281 CURVE",
"-16 287 OFFCURVE",
"-15 293 OFFCURVE",
"-13 299 CURVE",
"-13 298 OFFCURVE",
"-12 297 OFFCURVE",
"-11 297 CURVE",
"-5 300 OFFCURVE",
"4 302 OFFCURVE",
"6 307 CURVE",
"14 323 OFFCURVE",
"18 341 OFFCURVE",
"17 359 CURVE",
"17 363 OFFCURVE",
"20 368 OFFCURVE",
"22 370 CURVE",
"29 373 OFFCURVE",
"30 379 OFFCURVE",
"31 385 CURVE",
"31 388 OFFCURVE",
"32 391 OFFCURVE",
"33 393 CURVE",
"40 414 OFFCURVE",
"52 433 OFFCURVE",
"55 455 CURVE",
"56 460 OFFCURVE",
"59 466 OFFCURVE",
"62 470 CURVE",
"66 478 OFFCURVE",
"72 484 OFFCURVE",
"75 491 CURVE",
"81 504 OFFCURVE",
"86 517 OFFCURVE",
"100 523 CURVE",
"102 524 OFFCURVE",
"105 524 OFFCURVE",
"106 526 CURVE",
"110 530 OFFCURVE",
"114 530 OFFCURVE",
"118 527 CURVE",
"122 524 OFFCURVE",
"127 519 OFFCURVE",
"129 520 CURVE",
"135 522 OFFCURVE",
"138 519 OFFCURVE",
"139 516 CURVE",
"147 502 OFFCURVE",
"156 488 OFFCURVE",
"155 471 CURVE",
"154 464 OFFCURVE",
"152 457 OFFCURVE",
"155 449 CURVE",
"156 448 OFFCURVE",
"156 447 OFFCURVE",
"155 445 CURVE",
"152 437 OFFCURVE",
"149 428 OFFCURVE",
"145 418 CURVE",
"129 422 OFFCURVE",
"125 402 OFFCURVE",
"111 397 CURVE",
"111 397 OFFCURVE",
"110 395 OFFCURVE",
"110 395 CURVE",
"109 389 OFFCURVE",
"108 384 OFFCURVE",
"107 378 CURVE",
"103 366 OFFCURVE",
"100 353 OFFCURVE",
"96 341 CURVE",
"90 325 OFFCURVE",
"84 309 OFFCURVE",
"79 293 CURVE",
"77 287 OFFCURVE",
"77 281 OFFCURVE",
"75 275 CURVE",
"72 263 OFFCURVE",
"68 252 OFFCURVE",
"65 240 CURVE",
"64 232 OFFCURVE",
"63 224 OFFCURVE",
"62 217 CURVE",
"58 201 OFFCURVE",
"53 185 OFFCURVE",
"50 168 CURVE",
"49 163 OFFCURVE",
"52 156 OFFCURVE",
"56 152 CURVE",
"58 150 OFFCURVE",
"67 151 OFFCURVE",
"71 153 CURVE",
"80 159 OFFCURVE",
"90 166 OFFCURVE",
"99 174 CURVE",
"103 178 OFFCURVE",
"106 184 OFFCURVE",
"109 189 CURVE",
"115 197 OFFCURVE",
"120 204 OFFCURVE",
"126 212 CURVE",
"128 215 OFFCURVE",
"129 218 OFFCURVE",
"131 220 CURVE",
"137 231 OFFCURVE",
"144 241 OFFCURVE",
"151 252 CURVE",
"151 253 OFFCURVE",
"151 254 OFFCURVE",
"151 255 CURVE",
"153 259 OFFCURVE",
"154 264 OFFCURVE",
"156 267 CURVE",
"159 273 OFFCURVE",
"165 279 OFFCURVE",
"165 285 CURVE",
"165 294 OFFCURVE",
"169 305 OFFCURVE",
"177 309 CURVE",
"183 312 OFFCURVE",
"190 328 OFFCURVE",
"188 332 CURVE",
"183 340 OFFCURVE",
"178 347 OFFCURVE",
"182 358 CURVE",
"184 363 OFFCURVE",
"182 370 OFFCURVE",
"183 376 CURVE",
"185 390 OFFCURVE",
"187 405 OFFCURVE",
"189 420 CURVE",
"191 430 OFFCURVE",
"191 440 OFFCURVE",
"194 449 CURVE",
"200 463 OFFCURVE",
"195 478 OFFCURVE",
"200 493 CURVE",
"200 494 OFFCURVE",
"200 495 OFFCURVE",
"199 496 CURVE",
"193 514 OFFCURVE",
"197 530 OFFCURVE",
"207 545 CURVE",
"209 548 OFFCURVE",
"212 552 OFFCURVE",
"217 548 CURVE",
"219 547 OFFCURVE",
"223 548 OFFCURVE",
"223 549 CURVE",
"228 558 OFFCURVE",
"236 560 OFFCURVE",
"244 562 CURVE",
"250 563 OFFCURVE",
"256 562 OFFCURVE",
"261 565 CURVE",
"269 570 OFFCURVE",
"274 564 OFFCURVE",
"278 559 CURVE",
"290 547 OFFCURVE",
"291 529 OFFCURVE",
"302 516 CURVE",
"303 515 OFFCURVE",
"303 512 OFFCURVE",
"303 510 CURVE",
"303 507 OFFCURVE",
"304 505 OFFCURVE",
"304 502 CURVE",
"304 495 OFFCURVE",
"304 488 OFFCURVE",
"304 480 CURVE",
"304 478 OFFCURVE",
"304 476 OFFCURVE",
"304 474 CURVE",
"305 469 OFFCURVE",
"306 465 OFFCURVE",
"306 460 CURVE",
"306 451 OFFCURVE",
"304 441 OFFCURVE",
"303 432 CURVE",
"303 427 OFFCURVE",
"303 421 OFFCURVE",
"303 416 CURVE",
"301 402 OFFCURVE",
"298 388 OFFCURVE",
"296 374 CURVE",
"294 362 OFFCURVE",
"298 349 OFFCURVE",
"290 338 CURVE",
"289 337 OFFCURVE",
"289 335 OFFCURVE",
"289 333 CURVE",
"291 321 OFFCURVE",
"291 309 OFFCURVE",
"286 297 CURVE",
"285 294 OFFCURVE",
"286 292 OFFCURVE",
"286 289 CURVE",
"287 285 OFFCURVE",
"289 282 OFFCURVE",
"289 278 CURVE",
"291 253 OFFCURVE",
"292 228 OFFCURVE",
"293 203 CURVE",
"293 202 OFFCURVE",
"293 201 OFFCURVE",
"293 200 CURVE",
"299 189 OFFCURVE",
"305 177 OFFCURVE",
"312 166 CURVE",
"316 158 OFFCURVE",
"333 159 OFFCURVE",
"337 167 CURVE",
"340 171 OFFCURVE",
"344 175 OFFCURVE",
"347 178 CURVE",
"350 182 OFFCURVE",
"356 183 OFFCURVE",
"355 189 CURVE",
"355 190 OFFCURVE",
"358 192 OFFCURVE",
"358 192 CURVE",
"360 191 OFFCURVE",
"361 190 OFFCURVE",
"361 188 CURVE",
"362 185 OFFCURVE",
"362 182 OFFCURVE",
"362 178 CURVE",
"369 183 OFFCURVE",
"370 187 OFFCURVE",
"367 198 CURVE",
"364 198 OFFCURVE",
"361 199 OFFCURVE",
"359 199 CURVE",
"357 212 OFFCURVE",
"368 213 OFFCURVE",
"378 218 CURVE",
"360 221 OFFCURVE",
"373 229 OFFCURVE",
"372 234 CURVE",
"372 236 OFFCURVE",
"375 239 OFFCURVE",
"376 241 CURVE",
"377 241 OFFCURVE",
"378 240 OFFCURVE",
"379 240 CURVE",
"380 235 OFFCURVE",
"372 229 OFFCURVE",
"381 226 CURVE",
"382 232 OFFCURVE",
"384 237 OFFCURVE",
"385 243 CURVE",
"375 246 OFFCURVE",
"372 252 OFFCURVE",
"380 261 CURVE",
"380 262 OFFCURVE",
"380 263 OFFCURVE",
"380 264 CURVE",
"385 278 OFFCURVE",
"389 293 OFFCURVE",
"394 307 CURVE",
"395 307 OFFCURVE",
"395 307 OFFCURVE",
"396 307 CURVE",
"396 301 OFFCURVE",
"396 296 OFFCURVE",
"396 290 CURVE",
"404 294 OFFCURVE",
"408 309 OFFCURVE",
"403 314 CURVE",
"402 314 OFFCURVE",
"402 315 OFFCURVE",
"401 315 CURVE",
"393 317 OFFCURVE",
"396 322 OFFCURVE",
"397 326 CURVE",
"398 329 OFFCURVE",
"400 331 OFFCURVE",
"403 336 CURVE",
"405 330 OFFCURVE",
"407 326 OFFCURVE",
"409 321 CURVE",
"410 328 OFFCURVE",
"412 334 OFFCURVE",
"413 339 CURVE",
"413 341 OFFCURVE",
"411 343 OFFCURVE",
"410 344 CURVE",
"409 343 OFFCURVE",
"407 342 OFFCURVE",
"406 341 CURVE",
"404 339 OFFCURVE",
"403 337 OFFCURVE",
"402 336 CURVE",
"401 336 OFFCURVE",
"400 336 OFFCURVE",
"400 336 CURVE",
"400 339 OFFCURVE",
"400 342 OFFCURVE",
"401 344 CURVE",
"403 351 OFFCURVE",
"406 358 OFFCURVE",
"407 365 CURVE",
"408 373 OFFCURVE",
"408 382 OFFCURVE",
"410 390 CURVE",
"411 397 OFFCURVE",
"415 404 OFFCURVE",
"418 411 CURVE",
"421 408 OFFCURVE",
"423 407 OFFCURVE",
"425 405 CURVE",
"436 414 OFFCURVE",
"425 423 OFFCURVE",
"426 432 CURVE",
"437 431 OFFCURVE",
"440 438 OFFCURVE",
"436 456 CURVE",
"433 452 OFFCURVE",
"432 450 OFFCURVE",
"430 448 CURVE",
"429 445 OFFCURVE",
"428 442 OFFCURVE",
"427 440 CURVE",
"426 443 OFFCURVE",
"424 446 OFFCURVE",
"424 449 CURVE",
"423 451 OFFCURVE",
"423 453 OFFCURVE",
"424 454 CURVE",
"428 468 OFFCURVE",
"433 482 OFFCURVE",
"438 496 CURVE",
"441 494 OFFCURVE",
"441 491 OFFCURVE",
"442 490 CURVE",
"443 488 OFFCURVE",
"444 486 OFFCURVE",
"446 485 CURVE",
"447 485 OFFCURVE",
"449 487 OFFCURVE",
"450 488 CURVE",
"454 496 OFFCURVE",
"458 504 OFFCURVE",
"460 512 CURVE",
"464 527 OFFCURVE",
"470 539 OFFCURVE",
"479 551 CURVE",
"487 563 OFFCURVE",
"499 565 OFFCURVE",
"511 567 CURVE",
"513 567 OFFCURVE",
"516 566 OFFCURVE",
"517 564 CURVE",
"521 555 OFFCURVE",
"528 546 OFFCURVE",
"530 537 CURVE",
"533 522 OFFCURVE",
"532 506 OFFCURVE",
"534 491 CURVE",
"534 489 OFFCURVE",
"536 487 OFFCURVE",
"537 485 CURVE"
);
},
{
closed = 1;
nodes = (
"413 376 OFFCURVE",
"411 372 OFFCURVE",
"415 361 CURVE",
"422 365 OFFCURVE",
"421 371 OFFCURVE",
"419 377 CURVE"
);
}
);
width = 500;
}
);
unicode = 0057;
},
{
glyphname = X;
lastChange = "2020-11-21 14:58:36 +0000";
layers = (
{
layerId = "35B18FD4-EE95-4CAF-9F6E-40BA2ACEDFAA";
paths = (
{
closed = 1;
nodes = (
"366 549 OFFCURVE",
"364 542 OFFCURVE",
"359 535 CURVE SMOOTH",
"352 524 OFFCURVE",
"343 513 OFFCURVE",
"335 502 CURVE SMOOTH",
"326 489 OFFCURVE",
"316 477 OFFCURVE",
"307 464 CURVE SMOOTH",
"306 463 OFFCURVE",
"305 462 OFFCURVE",
"304 460 CURVE SMOOTH",
"294 449 OFFCURVE",
"285 437 OFFCURVE",
"276 425 CURVE SMOOTH",
"270 416 OFFCURVE",
"264 407 OFFCURVE",
"258 398 CURVE SMOOTH",
"254 393 OFFCURVE",
"251 389 OFFCURVE",
"248 384 CURVE SMOOTH",
"239 372 OFFCURVE",
"229 359 OFFCURVE",
"221 346 CURVE SMOOTH",
"214 336 OFFCURVE",
"208 325 OFFCURVE",
"201 315 CURVE SMOOTH",
"194 305 OFFCURVE",
"187 296 OFFCURVE",
"181 287 CURVE SMOOTH",
"174 276 OFFCURVE",
"169 265 OFFCURVE",
"162 256 CURVE SMOOTH",
"150 241 OFFCURVE",
"159 227 OFFCURVE",
"162 213 CURVE SMOOTH",
"164 207 OFFCURVE",
"165 201 OFFCURVE",
"166 195 CURVE SMOOTH",
"169 183 OFFCURVE",
"171 171 OFFCURVE",
"174 159 CURVE SMOOTH",
"177 148 OFFCURVE",
"180 138 OFFCURVE",
"183 127 CURVE SMOOTH",
"186 120 OFFCURVE",
"188 113 OFFCURVE",
"190 106 CURVE SMOOTH",
"195 95 OFFCURVE",
"204 91 OFFCURVE",
"215 95 CURVE SMOOTH",
"223 98 OFFCURVE",
"232 102 OFFCURVE",
"241 104 CURVE SMOOTH",
"244 105 OFFCURVE",
"250 103 OFFCURVE",
"253 100 CURVE SMOOTH",
"259 95 OFFCURVE",
"262 95 OFFCURVE",
"266 102 CURVE SMOOTH",
"267 104 OFFCURVE",
"268 106 OFFCURVE",
"269 106 CURVE SMOOTH",
"270 107 OFFCURVE",
"273 107 OFFCURVE",
"275 108 CURVE",
"275 105 OFFCURVE",
"275 103 OFFCURVE",
"275 101 CURVE SMOOTH",
"272 95 OFFCURVE",
"268 90 OFFCURVE",
"265 84 CURVE SMOOTH",
"264 82 OFFCURVE",
"263 79 OFFCURVE",
"264 78 CURVE SMOOTH",
"269 72 OFFCURVE",
"264 69 OFFCURVE",
"262 64 CURVE SMOOTH",
"260 60 OFFCURVE",
"258 55 OFFCURVE",
"255 51 CURVE SMOOTH",
"253 47 OFFCURVE",
"250 43 OFFCURVE",
"247 40 CURVE SMOOTH",
"239 33 OFFCURVE",
"230 26 OFFCURVE",
"221 21 CURVE SMOOTH",
"214 17 OFFCURVE",
"206 18 OFFCURVE",
"198 15 CURVE SMOOTH",
"181 9 OFFCURVE",
"169 19 OFFCURVE",
"157 27 CURVE SMOOTH",
"140 36 OFFCURVE",
"132 52 OFFCURVE",
"125 69 CURVE SMOOTH",
"121 79 OFFCURVE",
"115 88 OFFCURVE",
"110 97 CURVE SMOOTH",
"108 99 OFFCURVE",
"107 102 OFFCURVE",
"108 104 CURVE SMOOTH",
"109 114 OFFCURVE",
"105 122 OFFCURVE",
"102 130 CURVE SMOOTH",
"99 135 OFFCURVE",
"99 141 OFFCURVE",
"97 147 CURVE SMOOTH",
"96 152 OFFCURVE",
"95 157 OFFCURVE",
"93 164 CURVE",
"81 153 OFFCURVE",
"70 143 OFFCURVE",
"59 133 CURVE SMOOTH",
"48 124 OFFCURVE",
"37 116 OFFCURVE",
"25 108 CURVE SMOOTH",
"20 104 OFFCURVE",
"5 107 OFFCURVE",
"3 113 CURVE SMOOTH",
"2 116 OFFCURVE",
"4 120 OFFCURVE",
"5 124 CURVE",
"0 127 OFFCURVE",
"0 131 OFFCURVE",
"3 136 CURVE SMOOTH",
"4 137 OFFCURVE",
"5 139 OFFCURVE",
"4 140 CURVE SMOOTH",
"2 146 OFFCURVE",
"6 152 OFFCURVE",
"6 157 CURVE SMOOTH",
"7 169 OFFCURVE",
"15 178 OFFCURVE",
"20 188 CURVE SMOOTH",
"23 196 OFFCURVE",
"26 205 OFFCURVE",
"29 213 CURVE SMOOTH",
"29 214 OFFCURVE",
"28 216 OFFCURVE",
"28 218 CURVE SMOOTH",
"27 220 OFFCURVE",
"26 222 OFFCURVE",
"25 224 CURVE",
"27 224 OFFCURVE",
"29 226 OFFCURVE",
"31 226 CURVE SMOOTH",
"42 226 OFFCURVE",
"45 230 OFFCURVE",
"41 241 CURVE SMOOTH",
"39 250 OFFCURVE",
"39 250 OFFCURVE",
"47 256 CURVE",
"50 254 OFFCURVE",
"52 252 OFFCURVE",
"53 251 CURVE",
"57 255 OFFCURVE",
"60 258 OFFCURVE",
"62 261 CURVE SMOOTH",
"68 271 OFFCURVE",
"71 281 OFFCURVE",
"70 292 CURVE SMOOTH",
"68 304 OFFCURVE",
"64 316 OFFCURVE",
"61 328 CURVE SMOOTH",
"61 330 OFFCURVE",
"60 333 OFFCURVE",
"60 336 CURVE SMOOTH",
"60 357 OFFCURVE",
"60 379 OFFCURVE",
"59 400 CURVE SMOOTH",
"59 412 OFFCURVE",
"57 424 OFFCURVE",
"57 435 CURVE SMOOTH",
"56 444 OFFCURVE",
"59 453 OFFCURVE",
"59 462 CURVE SMOOTH",
"61 481 OFFCURVE",
"61 499 OFFCURVE",
"62 518 CURVE SMOOTH",
"62 518 OFFCURVE",
"62 519 OFFCURVE",
"62 519 CURVE SMOOTH",
"66 532 OFFCURVE",
"70 544 OFFCURVE",
"75 557 CURVE SMOOTH",
"77 563 OFFCURVE",
"79 569 OFFCURVE",
"83 574 CURVE SMOOTH",
"88 584 OFFCURVE",
"100 585 OFFCURVE",
"110 590 CURVE SMOOTH",
"111 590 OFFCURVE",
"112 590 OFFCURVE",
"112 590 CURVE SMOOTH",
"115 590 OFFCURVE",
"131 573 OFFCURVE",
"132 570 CURVE SMOOTH",
"133 567 OFFCURVE",
"134 563 OFFCURVE",
"136 559 CURVE SMOOTH",
"140 551 OFFCURVE",
"140 542 OFFCURVE",
"136 533 CURVE SMOOTH",
"133 528 OFFCURVE",
"133 521 OFFCURVE",
"132 514 CURVE SMOOTH",
"130 500 OFFCURVE",
"129 486 OFFCURVE",
"128 473 CURVE SMOOTH",
"127 458 OFFCURVE",
"125 443 OFFCURVE",
"125 428 CURVE SMOOTH",
"126 411 OFFCURVE",
"129 395 OFFCURVE",
"131 379 CURVE SMOOTH",
"132 373 OFFCURVE",
"131 366 OFFCURVE",
"131 360 CURVE",
"143 359 OFFCURVE",
"136 365 OFFCURVE",
"136 369 CURVE",
"151 381 OFFCURVE",
"152 383 OFFCURVE",
"146 393 CURVE",
"147 393 OFFCURVE",
"149 394 OFFCURVE",
"149 394 CURVE SMOOTH",
"156 388 OFFCURVE",
"159 391 OFFCURVE",
"161 398 CURVE SMOOTH",
"163 401 OFFCURVE",
"165 403 OFFCURVE",
"161 406 CURVE SMOOTH",
"160 407 OFFCURVE",
"160 412 OFFCURVE",
"161 414 CURVE SMOOTH",
"162 415 OFFCURVE",
"165 415 OFFCURVE",
"168 416 CURVE SMOOTH",
"172 418 OFFCURVE",
"176 420 OFFCURVE",
"179 423 CURVE SMOOTH",
"183 427 OFFCURVE",
"187 433 OFFCURVE",
"191 438 CURVE SMOOTH",
"196 446 OFFCURVE",
"202 454 OFFCURVE",
"208 462 CURVE SMOOTH",
"215 470 OFFCURVE",
"221 479 OFFCURVE",
"228 488 CURVE SMOOTH",
"235 497 OFFCURVE",
"242 506 OFFCURVE",
"249 514 CURVE SMOOTH",
"258 524 OFFCURVE",
"262 537 OFFCURVE",
"273 544 CURVE SMOOTH",
"276 546 OFFCURVE",
"276 551 OFFCURVE",
"278 556 CURVE",
"289 559 OFFCURVE",
"298 565 OFFCURVE",
"305 577 CURVE SMOOTH",
"310 587 OFFCURVE",
"320 595 OFFCURVE",
"333 597 CURVE SMOOTH",
"335 598 OFFCURVE",
"337 599 OFFCURVE",
"339 600 CURVE SMOOTH",
"345 602 OFFCURVE",
"350 600 OFFCURVE",
"352 593 CURVE SMOOTH",
"352 592 OFFCURVE",
"352 590 OFFCURVE",
"352 590 CURVE SMOOTH",
"364 586 OFFCURVE",
"360 573 OFFCURVE",
"367 566 CURVE SMOOTH",
"368 565 OFFCURVE",
"369 565 OFFCURVE",
"370 565 CURVE",
"370 562 OFFCURVE",
"370 559 OFFCURVE",
"370 556 CURVE"
);
}
);
width = 300;
}
);
unicode = 0058;
},
{
glyphname = Y;
lastChange = "2020-11-21 14:58:42 +0000";
layers = (
{
layerId = "35B18FD4-EE95-4CAF-9F6E-40BA2ACEDFAA";
paths = (
{
closed = 1;
nodes = (
"371 664 OFFCURVE",
"381 651 OFFCURVE",
"389 638 CURVE",
"397 622 OFFCURVE",
"399 605 OFFCURVE",
"394 588 CURVE",
"393 582 OFFCURVE",
"389 576 OFFCURVE",
"392 569 CURVE",
"394 565 OFFCURVE",
"391 559 OFFCURVE",
"389 554 CURVE",
"385 538 OFFCURVE",
"385 521 OFFCURVE",
"389 505 CURVE",
"389 503 OFFCURVE",
"390 501 OFFCURVE",
"389 500 CURVE",
"388 490 OFFCURVE",
"387 481 OFFCURVE",
"386 471 CURVE",
"385 449 OFFCURVE",
"384 428 OFFCURVE",
"383 406 CURVE",
"382 392 OFFCURVE",
"383 378 OFFCURVE",
"383 364 CURVE",
"383 360 OFFCURVE",
"386 356 OFFCURVE",
"386 352 CURVE",
"386 345 OFFCURVE",
"383 339 OFFCURVE",
"382 333 CURVE",
"381 329 OFFCURVE",
"380 324 OFFCURVE",
"379 320 CURVE",
"377 306 OFFCURVE",
"379 291 OFFCURVE",
"373 278 CURVE",
"371 273 OFFCURVE",
"373 266 OFFCURVE",
"372 261 CURVE",
"371 255 OFFCURVE",
"371 249 OFFCURVE",
"369 245 CURVE",
"365 238 OFFCURVE",
"365 232 OFFCURVE",
"368 225 CURVE",
"370 219 OFFCURVE",
"374 213 OFFCURVE",
"376 207 CURVE",
"376 205 OFFCURVE",
"374 201 OFFCURVE",
"373 200 CURVE",
"369 199 OFFCURVE",
"367 198 OFFCURVE",
"369 193 CURVE",
"370 189 OFFCURVE",
"368 187 OFFCURVE",
"364 184 CURVE",
"355 176 OFFCURVE",
"347 167 OFFCURVE",
"345 154 CURVE",
"344 147 OFFCURVE",
"339 142 OFFCURVE",
"337 136 CURVE",
"334 127 OFFCURVE",
"331 119 OFFCURVE",
"328 110 CURVE",
"327 109 OFFCURVE",
"327 107 OFFCURVE",
"326 106 CURVE",
"312 94 OFFCURVE",
"308 74 OFFCURVE",
"296 60 CURVE",
"282 45 OFFCURVE",
"268 29 OFFCURVE",
"255 13 CURVE",
"248 5 OFFCURVE",
"242 -3 OFFCURVE",
"234 -10 CURVE",
"224 -18 OFFCURVE",
"213 -25 OFFCURVE",
"202 -33 CURVE",
"199 -35 OFFCURVE",
"196 -38 OFFCURVE",
"193 -41 CURVE",
"183 -50 OFFCURVE",
"172 -58 OFFCURVE",
"159 -63 CURVE",
"154 -65 OFFCURVE",
"148 -65 OFFCURVE",
"142 -67 CURVE",
"139 -68 OFFCURVE",
"135 -70 OFFCURVE",
"133 -73 CURVE",
"121 -90 OFFCURVE",
"104 -95 OFFCURVE",
"84 -92 CURVE",
"78 -92 OFFCURVE",
"72 -94 OFFCURVE",
"66 -96 CURVE",
"56 -100 OFFCURVE",
"46 -97 OFFCURVE",
"40 -88 CURVE",
"35 -80 OFFCURVE",
"30 -76 OFFCURVE",
"19 -76 CURVE",
"9 -77 OFFCURVE",
"3 -68 OFFCURVE",
"-3 -61 CURVE",
"-7 -55 OFFCURVE",
"-10 -48 OFFCURVE",
"-14 -42 CURVE",
"-19 -36 OFFCURVE",
"-25 -31 OFFCURVE",
"-30 -25 CURVE",
"-32 -23 OFFCURVE",
"-32 -20 OFFCURVE",
"-33 -17 CURVE",
"-39 -6 OFFCURVE",
"-45 5 OFFCURVE",
"-51 16 CURVE",
"-51 17 OFFCURVE",
"-53 18 OFFCURVE",
"-53 18 CURVE",
"-53 28 OFFCURVE",
"-58 21 OFFCURVE",
"-60 20 CURVE",
"-62 30 OFFCURVE",
"-64 39 OFFCURVE",
"-65 47 CURVE",
"-58 53 OFFCURVE",
"-52 58 OFFCURVE",
"-44 64 CURVE",
"-44 71 OFFCURVE",
"-44 80 OFFCURVE",
"-44 90 CURVE",
"-46 103 OFFCURVE",
"-45 115 OFFCURVE",
"-38 126 CURVE",
"-28 140 OFFCURVE",
"-20 156 OFFCURVE",
"-8 167 CURVE",
"5 179 OFFCURVE",
"19 192 OFFCURVE",
"38 195 CURVE",
"39 195 OFFCURVE",
"40 197 OFFCURVE",
"42 197 CURVE",
"52 202 OFFCURVE",
"61 208 OFFCURVE",
"71 212 CURVE",
"86 218 OFFCURVE",
"100 223 OFFCURVE",
"115 229 CURVE",
"121 231 OFFCURVE",
"127 232 OFFCURVE",
"132 232 CURVE",
"143 234 OFFCURVE",
"155 235 OFFCURVE",
"166 236 CURVE",
"172 237 OFFCURVE",
"179 238 OFFCURVE",
"186 239 CURVE",
"190 239 OFFCURVE",
"195 240 OFFCURVE",
"200 238 CURVE",
"211 234 OFFCURVE",
"222 243 OFFCURVE",
"234 237 CURVE",
"245 232 OFFCURVE",
"256 240 OFFCURVE",
"258 253 CURVE",
"261 270 OFFCURVE",
"263 287 OFFCURVE",
"266 304 CURVE",
"268 321 OFFCURVE",
"270 338 OFFCURVE",
"272 354 CURVE",
"273 358 OFFCURVE",
"273 363 OFFCURVE",
"273 367 CURVE",
"272 368 OFFCURVE",
"271 368 OFFCURVE",
"270 369 CURVE",
"265 364 OFFCURVE",
"261 358 OFFCURVE",
"256 353 CURVE",
"247 343 OFFCURVE",
"238 333 OFFCURVE",
"227 324 CURVE",
"216 314 OFFCURVE",
"203 308 OFFCURVE",
"193 298 CURVE",
"182 287 OFFCURVE",
"168 284 OFFCURVE",
"157 277 CURVE",
"144 269 OFFCURVE",
"131 269 OFFCURVE",
"118 270 CURVE",
"116 270 OFFCURVE",
"114 271 OFFCURVE",
"113 272 CURVE",
"105 282 OFFCURVE",
"97 293 OFFCURVE",
"89 304 CURVE",
"85 310 OFFCURVE",
"79 316 OFFCURVE",
"75 322 CURVE",
"73 325 OFFCURVE",
"74 330 OFFCURVE",
"72 333 CURVE",
"61 349 OFFCURVE",
"63 367 OFFCURVE",
"61 385 CURVE",
"61 389 OFFCURVE",
"60 393 OFFCURVE",
"59 397 CURVE",
"58 402 OFFCURVE",
"57 408 OFFCURVE",
"56 413 CURVE",
"55 415 OFFCURVE",
"53 418 OFFCURVE",
"52 420 CURVE",
"51 418 OFFCURVE",
"50 416 OFFCURVE",
"49 414 CURVE",
"48 412 OFFCURVE",
"48 411 OFFCURVE",
"48 409 CURVE",
"43 416 OFFCURVE",
"44 422 OFFCURVE",
"49 429 CURVE",
"58 425 OFFCURVE",
"62 427 OFFCURVE",
"62 438 CURVE",
"62 454 OFFCURVE",
"69 469 OFFCURVE",
"71 485 CURVE",
"73 499 OFFCURVE",
"84 508 OFFCURVE",
"84 521 CURVE",
"85 538 OFFCURVE",
"97 551 OFFCURVE",
"98 569 CURVE",
"98 577 OFFCURVE",
"105 585 OFFCURVE",
"108 594 CURVE",
"110 600 OFFCURVE",
"112 606 OFFCURVE",
"114 612 CURVE",
"114 613 OFFCURVE",
"112 616 OFFCURVE",
"111 616 CURVE",
"104 618 OFFCURVE",
"103 622 OFFCURVE",
"107 628 CURVE",
"108 630 OFFCURVE",
"108 632 OFFCURVE",
"108 634 CURVE",
"113 635 OFFCURVE",
"118 635 OFFCURVE",
"125 637 CURVE",
"122 638 OFFCURVE",
"119 639 OFFCURVE",
"117 640 CURVE",
"117 641 OFFCURVE",
"117 641 OFFCURVE",
"117 642 CURVE",
"119 642 OFFCURVE",
"121 642 OFFCURVE",
"122 643 CURVE",
"125 643 OFFCURVE",
"129 643 OFFCURVE",
"130 645 CURVE",
"134 652 OFFCURVE",
"139 653 OFFCURVE",
"147 653 CURVE",
"149 653 OFFCURVE",
"152 654 OFFCURVE",
"155 655 CURVE",
"160 657 OFFCURVE",
"166 660 OFFCURVE",
"170 651 CURVE",
"170 650 OFFCURVE",
"174 649 OFFCURVE",
"175 647 CURVE",
"187 635 OFFCURVE",
"197 623 OFFCURVE",
"194 604 CURVE",
"193 599 OFFCURVE",
"196 594 OFFCURVE",
"196 589 CURVE",
"196 586 OFFCURVE",
"196 582 OFFCURVE",
"195 578 CURVE",
"193 572 OFFCURVE",
"191 565 OFFCURVE",
"188 559 CURVE",
"183 551 OFFCURVE",
"177 544 OFFCURVE",
"173 536 CURVE",
"167 524 OFFCURVE",
"160 512 OFFCURVE",
"161 498 CURVE",
"161 494 OFFCURVE",
"160 489 OFFCURVE",
"158 485 CURVE",
"149 468 OFFCURVE",
"145 449 OFFCURVE",
"142 429 CURVE",
"139 415 OFFCURVE",
"139 401 OFFCURVE",
"137 387 CURVE",
"137 385 OFFCURVE",
"138 382 OFFCURVE",
"140 381 CURVE",
"141 381 OFFCURVE",
"145 382 OFFCURVE",
"146 383 CURVE",
"153 390 OFFCURVE",
"165 392 OFFCURVE",
"167 403 CURVE",
"177 405 OFFCURVE",
"181 415 OFFCURVE",
"187 421 CURVE",
"195 429 OFFCURVE",
"200 438 OFFCURVE",
"206 447 CURVE",
"206 448 OFFCURVE",
"205 449 OFFCURVE",
"204 451 CURVE",
"209 451 OFFCURVE",
"215 449 OFFCURVE",
"219 451 CURVE",
"223 453 OFFCURVE",
"229 461 OFFCURVE",
"228 463 CURVE",
"219 480 OFFCURVE",
"231 492 OFFCURVE",
"238 506 CURVE",
"238 507 OFFCURVE",
"238 508 OFFCURVE",
"239 509 CURVE",
"242 512 OFFCURVE",
"245 514 OFFCURVE",
"248 516 CURVE",
"250 513 OFFCURVE",
"252 511 OFFCURVE",
"255 506 CURVE",
"260 517 OFFCURVE",
"264 527 OFFCURVE",
"269 538 CURVE",
"269 539 OFFCURVE",
"268 542 OFFCURVE",
"267 543 CURVE",
"259 549 OFFCURVE",
"260 559 OFFCURVE",
"269 564 CURVE",
"271 565 OFFCURVE",
"273 567 OFFCURVE",
"273 568 CURVE",
"270 574 OFFCURVE",
"274 577 OFFCURVE",
"277 581 CURVE",
"278 582 OFFCURVE",
"279 585 OFFCURVE",
"279 587 CURVE",
"279 603 OFFCURVE",
"283 619 OFFCURVE",
"289 634 CURVE",
"291 638 OFFCURVE",
"290 642 OFFCURVE",
"291 646 CURVE",
"295 657 OFFCURVE",
"305 658 OFFCURVE",
"314 660 CURVE",
"315 660 OFFCURVE",
"318 660 OFFCURVE",
"319 661 CURVE",
"326 671 OFFCURVE",
"339 671 OFFCURVE",
"349 675 CURVE",
"349 676 OFFCURVE",
"350 677 OFFCURVE",
"350 677 CURVE",
"354 677 OFFCURVE",
"358 677 OFFCURVE",
"362 677 CURVE"
);
},
{
closed = 1;
nodes = (
"190 93 OFFCURVE",
"196 96 OFFCURVE",
"195 102 CURVE",
"194 120 OFFCURVE",
"210 129 OFFCURVE",
"214 144 CURVE",
"215 147 OFFCURVE",
"216 150 OFFCURVE",
"217 152 CURVE",
"213 153 OFFCURVE",
"210 154 OFFCURVE",
"206 154 CURVE",
"202 153 OFFCURVE",
"197 152 OFFCURVE",
"193 150 CURVE",
"182 148 OFFCURVE",
"171 147 OFFCURVE",
"162 142 CURVE",
"153 136 OFFCURVE",
"143 133 OFFCURVE",
"133 128 CURVE",
"122 121 OFFCURVE",
"106 121 OFFCURVE",
"98 109 CURVE",
"78 104 OFFCURVE",
"69 87 OFFCURVE",
"56 73 CURVE",
"54 70 OFFCURVE",
"53 66 OFFCURVE",
"52 62 CURVE",
"50 53 OFFCURVE",
"47 45 OFFCURVE",
"46 36 CURVE",
"45 31 OFFCURVE",
"47 25 OFFCURVE",
"49 21 CURVE",
"52 15 OFFCURVE",
"57 15 OFFCURVE",
"63 19 CURVE",
"63 20 OFFCURVE",
"65 19 OFFCURVE",
"67 19 CURVE",
"74 21 OFFCURVE",
"80 23 OFFCURVE",
"87 25 CURVE",
"97 29 OFFCURVE",
"106 34 OFFCURVE",
"116 36 CURVE",
"123 37 OFFCURVE",
"127 40 OFFCURVE",
"130 45 CURVE",
"132 48 OFFCURVE",
"134 52 OFFCURVE",
"137 54 CURVE",
"149 64 OFFCURVE",
"161 74 OFFCURVE",
"173 84 CURVE",
"177 87 OFFCURVE",
"181 91 OFFCURVE",
"186 96 CURVE"
);
},
{
closed = 1;
nodes = (
"287 377 OFFCURVE",
"290 377 OFFCURVE",
"294 379 CURVE",
"293 383 OFFCURVE",
"292 387 OFFCURVE",
"290 391 CURVE",
"289 391 OFFCURVE",
"288 391 OFFCURVE",
"287 391 CURVE",
"285 386 OFFCURVE",
"284 382 OFFCURVE",
"281 375 CURVE"
);
},
{
closed = 1;
nodes = (
"379 196 OFFCURVE",
"383 199 OFFCURVE",
"389 204 CURVE",
"389 199 OFFCURVE",
"391 194 OFFCURVE",
"389 191 CURVE",
"384 184 OFFCURVE",
"379 190 OFFCURVE",
"374 193 CURVE"
);
},
{
closed = 1;
nodes = (
"22 -78 OFFCURVE",
"28 -80 OFFCURVE",
"37 -94 CURVE",
"29 -91 OFFCURVE",
"22 -89 OFFCURVE",
"13 -87 CURVE"
);
}
);
width = 400;
}
);
unicode = 0059;
},
{
glyphname = Z;
lastChange = "2020-11-21 14:58:55 +0000";
layers = (
{
layerId = "35B18FD4-EE95-4CAF-9F6E-40BA2ACEDFAA";
paths = (
{
closed = 1;
nodes = (
"263 620 OFFCURVE",
"264 620 OFFCURVE",
"265 620 CURVE",
"269 618 OFFCURVE",
"272 616 OFFCURVE",
"276 615 CURVE SMOOTH",
"285 613 OFFCURVE",
"295 609 OFFCURVE",
"304 608 CURVE SMOOTH",
"314 608 OFFCURVE",
"325 611 OFFCURVE",
"331 602 CURVE SMOOTH",
"332 600 OFFCURVE",
"335 600 OFFCURVE",
"337 599 CURVE SMOOTH",
"343 597 OFFCURVE",
"351 596 OFFCURVE",
"355 593 CURVE SMOOTH",
"371 581 OFFCURVE",
"383 566 OFFCURVE",
"394 550 CURVE SMOOTH",
"400 542 OFFCURVE",
"401 532 OFFCURVE",
"404 523 CURVE SMOOTH",
"407 510 OFFCURVE",
"411 498 OFFCURVE",
"412 485 CURVE SMOOTH",
"414 466 OFFCURVE",
"409 449 OFFCURVE",
"403 432 CURVE SMOOTH",
"398 417 OFFCURVE",
"389 404 OFFCURVE",
"380 392 CURVE SMOOTH",
"372 378 OFFCURVE",
"362 367 OFFCURVE",
"352 356 CURVE SMOOTH",
"346 349 OFFCURVE",
"339 344 OFFCURVE",
"333 337 CURVE SMOOTH",
"322 327 OFFCURVE",
"312 314 OFFCURVE",
"300 304 CURVE SMOOTH",
"282 289 OFFCURVE",
"264 275 OFFCURVE",
"245 261 CURVE SMOOTH",
"245 260 OFFCURVE",
"244 260 OFFCURVE",
"243 259 CURVE SMOOTH",
"234 251 OFFCURVE",
"225 241 OFFCURVE",
"215 233 CURVE SMOOTH",
"205 224 OFFCURVE",
"192 218 OFFCURVE",
"181 209 CURVE SMOOTH",
"170 201 OFFCURVE",
"158 192 OFFCURVE",
"148 183 CURVE SMOOTH",
"144 181 OFFCURVE",
"141 176 OFFCURVE",
"137 172 CURVE",
"138 171 OFFCURVE",
"139 170 OFFCURVE",
"139 169 CURVE",
"149 171 OFFCURVE",
"161 172 OFFCURVE",
"171 173 CURVE SMOOTH",
"189 174 OFFCURVE",
"209 177 OFFCURVE",
"227 173 CURVE SMOOTH",
"229 172 OFFCURVE",
"231 172 OFFCURVE",
"233 173 CURVE SMOOTH",
"242 176 OFFCURVE",
"251 177 OFFCURVE",
"261 175 CURVE SMOOTH",
"275 173 OFFCURVE",
"289 172 OFFCURVE",
"304 170 CURVE SMOOTH",
"310 170 OFFCURVE",
"317 171 OFFCURVE",
"324 170 CURVE SMOOTH",
"328 169 OFFCURVE",
"333 167 OFFCURVE",
"337 164 CURVE SMOOTH",
"348 159 OFFCURVE",
"357 153 OFFCURVE",
"366 145 CURVE SMOOTH",
"373 140 OFFCURVE",
"373 127 OFFCURVE",
"383 123 CURVE SMOOTH",
"383 123 OFFCURVE",
"383 121 OFFCURVE",
"384 120 CURVE SMOOTH",
"386 110 OFFCURVE",
"390 102 OFFCURVE",
"394 92 CURVE",
"394 90 OFFCURVE",
"394 89 OFFCURVE",
"394 88 CURVE",
"388 83 OFFCURVE",
"382 79 OFFCURVE",
"379 73 CURVE SMOOTH",
"373 64 OFFCURVE",
"363 57 OFFCURVE",
"353 58 CURVE SMOOTH",
"344 60 OFFCURVE",
"334 64 OFFCURVE",
"326 62 CURVE SMOOTH",
"315 58 OFFCURVE",
"306 60 OFFCURVE",
"297 63 CURVE",
"296 67 OFFCURVE",
"295 69 OFFCURVE",
"296 71 CURVE",
"292 69 OFFCURVE",
"290 68 OFFCURVE",
"288 66 CURVE",
"286 68 OFFCURVE",
"283 70 OFFCURVE",
"283 70 CURVE",
"279 67 OFFCURVE",
"276 64 OFFCURVE",
"272 63 CURVE SMOOTH",
"268 60 OFFCURVE",
"264 60 OFFCURVE",
"259 59 CURVE SMOOTH",
"250 56 OFFCURVE",
"235 63 OFFCURVE",
"232 68 CURVE SMOOTH",
"230 70 OFFCURVE",
"227 73 OFFCURVE",
"225 73 CURVE SMOOTH",
"222 72 OFFCURVE",
"219 70 OFFCURVE",
"218 68 CURVE SMOOTH",
"214 60 OFFCURVE",
"207 58 OFFCURVE",
"200 58 CURVE SMOOTH",
"193 57 OFFCURVE",
"185 57 OFFCURVE",
"177 58 CURVE SMOOTH",
"163 59 OFFCURVE",
"149 60 OFFCURVE",
"135 57 CURVE SMOOTH",
"126 54 OFFCURVE",
"116 53 OFFCURVE",
"107 52 CURVE SMOOTH",
"100 51 OFFCURVE",
"95 51 OFFCURVE",
"90 52 CURVE SMOOTH",
"80 52 OFFCURVE",
"70 56 OFFCURVE",
"62 53 CURVE SMOOTH",
"51 50 OFFCURVE",
"41 47 OFFCURVE",
"29 50 CURVE SMOOTH",
"27 50 OFFCURVE",
"25 50 OFFCURVE",
"24 49 CURVE SMOOTH",
"14 45 OFFCURVE",
"4 50 OFFCURVE",
"-4 55 CURVE SMOOTH",
"-7 56 OFFCURVE",
"-7 62 OFFCURVE",
"-8 67 CURVE SMOOTH",
"-9 79 OFFCURVE",
"-5 92 OFFCURVE",
"-19 102 CURVE SMOOTH",
"-24 107 OFFCURVE",
"-33 114 OFFCURVE",
"-29 126 CURVE SMOOTH",
"-27 132 OFFCURVE",
"-27 138 OFFCURVE",
"-27 144 CURVE SMOOTH",
"-27 147 OFFCURVE",
"-28 151 OFFCURVE",
"-30 152 CURVE SMOOTH",
"-44 161 OFFCURVE",
"-35 170 OFFCURVE",
"-28 178 CURVE SMOOTH",
"-21 186 OFFCURVE",
"-15 197 OFFCURVE",
"-1 197 CURVE SMOOTH",
"2 196 OFFCURVE",
"7 200 OFFCURVE",
"8 203 CURVE SMOOTH",
"14 220 OFFCURVE",
"29 226 OFFCURVE",
"42 235 CURVE SMOOTH",
"49 241 OFFCURVE",
"59 239 OFFCURVE",
"64 248 CURVE SMOOTH",
"68 254 OFFCURVE",
"73 259 OFFCURVE",
"81 262 CURVE SMOOTH",
"83 262 OFFCURVE",
"84 265 OFFCURVE",
"86 266 CURVE SMOOTH",
"90 269 OFFCURVE",
"92 272 OFFCURVE",
"96 273 CURVE SMOOTH",
"108 274 OFFCURVE",
"114 280 OFFCURVE",
"121 289 CURVE SMOOTH",
"134 305 OFFCURVE",
"148 318 OFFCURVE",
"171 320 CURVE SMOOTH",
"177 321 OFFCURVE",
"184 327 OFFCURVE",
"187 335 CURVE SMOOTH",
"189 343 OFFCURVE",
"194 351 OFFCURVE",
"200 356 CURVE SMOOTH",
"208 362 OFFCURVE",
"217 367 OFFCURVE",
"224 373 CURVE SMOOTH",
"230 377 OFFCURVE",
"235 382 OFFCURVE",
"240 387 CURVE SMOOTH",
"244 389 OFFCURVE",
"248 392 OFFCURVE",
"252 393 CURVE SMOOTH",
"255 395 OFFCURVE",
"257 394 OFFCURVE",
"259 394 CURVE SMOOTH",
"263 397 OFFCURVE",
"266 400 OFFCURVE",
"271 402 CURVE",
"271 409 OFFCURVE",
"271 415 OFFCURVE",
"274 422 CURVE SMOOTH",
"276 425 OFFCURVE",
"280 427 OFFCURVE",
"282 430 CURVE SMOOTH",
"290 442 OFFCURVE",
"297 454 OFFCURVE",
"304 466 CURVE SMOOTH",
"307 470 OFFCURVE",
"311 473 OFFCURVE",
"312 477 CURVE SMOOTH",
"313 485 OFFCURVE",
"321 494 OFFCURVE",
"312 503 CURVE SMOOTH",
"312 504 OFFCURVE",
"313 505 OFFCURVE",
"313 506 CURVE SMOOTH",
"314 514 OFFCURVE",
"308 525 OFFCURVE",
"301 527 CURVE SMOOTH",
"294 529 OFFCURVE",
"286 532 OFFCURVE",
"279 523 CURVE SMOOTH",
"268 512 OFFCURVE",
"256 515 OFFCURVE",
"251 528 CURVE SMOOTH",
"250 530 OFFCURVE",
"248 531 OFFCURVE",
"247 531 CURVE SMOOTH",
"246 530 OFFCURVE",
"244 529 OFFCURVE",
"243 528 CURVE SMOOTH",
"241 526 OFFCURVE",
"239 522 OFFCURVE",
"237 522 CURVE SMOOTH",
"233 523 OFFCURVE",
"227 525 OFFCURVE",
"226 528 CURVE SMOOTH",
"220 538 OFFCURVE",
"214 527 OFFCURVE",
"207 528 CURVE SMOOTH",
"206 530 OFFCURVE",
"202 527 OFFCURVE",
"200 525 CURVE SMOOTH",
"200 524 OFFCURVE",
"201 522 OFFCURVE",
"201 522 CURVE SMOOTH",
"198 519 OFFCURVE",
"196 516 OFFCURVE",
"194 514 CURVE SMOOTH",
"188 513 OFFCURVE",
"183 511 OFFCURVE",
"178 510 CURVE SMOOTH",
"168 507 OFFCURVE",
"156 503 OFFCURVE",
"144 506 CURVE SMOOTH",
"141 507 OFFCURVE",
"139 509 OFFCURVE",
"137 512 CURVE SMOOTH",
"132 523 OFFCURVE",
"129 537 OFFCURVE",
"122 547 CURVE SMOOTH",
"118 553 OFFCURVE",
"118 559 OFFCURVE",
"119 566 CURVE SMOOTH",
"121 579 OFFCURVE",
"121 590 OFFCURVE",
"137 597 CURVE SMOOTH",
"156 606 OFFCURVE",
"176 612 OFFCURVE",
"198 614 CURVE SMOOTH",
"205 614 OFFCURVE",
"214 613 OFFCURVE",
"221 615 CURVE SMOOTH",
"233 619 OFFCURVE",
"244 619 OFFCURVE",
"256 617 CURVE SMOOTH",
"258 617 OFFCURVE",
"260 619 OFFCURVE",
"262 620 CURVE"
);
}
);
width = 400;
}
);
unicode = 005A;
},
